ISO-10303-21;
HEADER;
/* Generated by software containing ST-Developer
 * from STEP Tools, Inc. (www.steptools.com) 
 */
/* OPTION: using custom renumber hook */

FILE_DESCRIPTION(
/* description */ ('STEP AP242 Edition 2',
'CAx-IF Rec.Pracs.---Representation and Presentation of Product Manufa
cturing Information (PMI)---4.0---2014-10-13',
'CAx-IF Rec.Pracs.---3D Tessellated Geometry---0.4---2014-09-14','2;1',
'CAx-IF Rec.Pracs.---User Defined Attributes---1.5---2016-08-15'),
/* implementation_level */ '2;1');

FILE_NAME(
/* name */ 'Hand Assembly Left - Bottom_Segment',
/* time_stamp */ '2026-06-30T02:49:23Z',
/* author */ (''),
/* organization */ (''),
/* preprocessor_version */ 'ST-DEVELOPER v20',
/* originating_system */ 'ONSHAPE BY PTC INC, 1.217',
/* authorisation */ '  ');

FILE_SCHEMA (('AP242_MANAGED_MODEL_BASED_3D_ENGINEERING_MIM_LF { 1 0 10303 442 3 1 4 }'));
ENDSEC;

DATA;
#10=SHAPE_REPRESENTATION_RELATIONSHIP('','',#895,#11);
#11=ADVANCED_BREP_SHAPE_REPRESENTATION('',(#893),#1473);
#12=CYLINDRICAL_SURFACE('',#902,0.00405);
#13=CYLINDRICAL_SURFACE('',#905,0.00405);
#14=CYLINDRICAL_SURFACE('',#937,0.005);
#15=CYLINDRICAL_SURFACE('',#938,0.005);
#16=CYLINDRICAL_SURFACE('',#939,0.005);
#17=CYLINDRICAL_SURFACE('',#943,0.0035);
#18=CYLINDRICAL_SURFACE('',#946,0.00255);
#19=CYLINDRICAL_SURFACE('',#947,0.00255);
#20=CYLINDRICAL_SURFACE('',#950,0.00025);
#21=CYLINDRICAL_SURFACE('',#951,0.00025);
#22=CYLINDRICAL_SURFACE('',#952,0.005);
#23=CYLINDRICAL_SURFACE('',#957,0.0002);
#24=CYLINDRICAL_SURFACE('',#958,0.0035);
#25=CYLINDRICAL_SURFACE('',#961,0.0002);
#26=CYLINDRICAL_SURFACE('',#965,0.00025);
#27=CYLINDRICAL_SURFACE('',#966,0.00025);
#28=LINE('',#1228,#116);
#29=LINE('',#1230,#117);
#30=LINE('',#1232,#118);
#31=LINE('',#1236,#119);
#32=LINE('',#1240,#120);
#33=LINE('',#1252,#121);
#34=LINE('',#1255,#122);
#35=LINE('',#1257,#123);
#36=LINE('',#1259,#124);
#37=LINE('',#1260,#125);
#38=LINE('',#1263,#126);
#39=LINE('',#1265,#127);
#40=LINE('',#1267,#128);
#41=LINE('',#1269,#129);
#42=LINE('',#1272,#130);
#43=LINE('',#1274,#131);
#44=LINE('',#1276,#132);
#45=LINE('',#1278,#133);
#46=LINE('',#1280,#134);
#47=LINE('',#1281,#135);
#48=LINE('',#1283,#136);
#49=LINE('',#1285,#137);
#50=LINE('',#1287,#138);
#51=LINE('',#1288,#139);
#52=LINE('',#1290,#140);
#53=LINE('',#1292,#141);
#54=LINE('',#1294,#142);
#55=LINE('',#1298,#143);
#56=LINE('',#1302,#144);
#57=LINE('',#1308,#145);
#58=LINE('',#1310,#146);
#59=LINE('',#1314,#147);
#60=LINE('',#1319,#148);
#61=LINE('',#1323,#149);
#62=LINE('',#1326,#150);
#63=LINE('',#1328,#151);
#64=LINE('',#1330,#152);
#65=LINE('',#1334,#153);
#66=LINE('',#1338,#154);
#67=LINE('',#1342,#155);
#68=LINE('',#1346,#156);
#69=LINE('',#1352,#157);
#70=LINE('',#1354,#158);
#71=LINE('',#1358,#159);
#72=LINE('',#1362,#160);
#73=LINE('',#1366,#161);
#74=LINE('',#1370,#162);
#75=LINE('',#1372,#163);
#76=LINE('',#1375,#164);
#77=LINE('',#1377,#165);
#78=LINE('',#1379,#166);
#79=LINE('',#1380,#167);
#80=LINE('',#1382,#168);
#81=LINE('',#1383,#169);
#82=LINE('',#1385,#170);
#83=LINE('',#1386,#171);
#84=LINE('',#1388,#172);
#85=LINE('',#1389,#173);
#86=LINE('',#1390,#174);
#87=LINE('',#1391,#175);
#88=LINE('',#1395,#176);
#89=LINE('',#1399,#177);
#90=LINE('',#1409,#178);
#91=LINE('',#1410,#179);
#92=LINE('',#1412,#180);
#93=LINE('',#1418,#181);
#94=LINE('',#1422,#182);
#95=LINE('',#1424,#183);
#96=LINE('',#1431,#184);
#97=LINE('',#1434,#185);
#98=LINE('',#1435,#186);
#99=LINE('',#1437,#187);
#100=LINE('',#1441,#188);
#101=LINE('',#1443,#189);
#102=LINE('',#1445,#190);
#103=LINE('',#1446,#191);
#104=LINE('',#1448,#192);
#105=LINE('',#1450,#193);
#106=LINE('',#1452,#194);
#107=LINE('',#1454,#195);
#108=LINE('',#1456,#196);
#109=LINE('',#1458,#197);
#110=LINE('',#1459,#198);
#111=LINE('',#1461,#199);
#112=LINE('',#1463,#200);
#113=LINE('',#1465,#201);
#114=LINE('',#1467,#202);
#115=LINE('',#1470,#203);
#116=VECTOR('',#983,1.);
#117=VECTOR('',#984,1.);
#118=VECTOR('',#985,1.);
#119=VECTOR('',#988,1.);
#120=VECTOR('',#991,1.);
#121=VECTOR('',#1006,1.);
#122=VECTOR('',#1007,1.);
#123=VECTOR('',#1008,1.);
#124=VECTOR('',#1009,1.);
#125=VECTOR('',#1010,1.);
#126=VECTOR('',#1011,1.);
#127=VECTOR('',#1012,1.);
#128=VECTOR('',#1013,1.);
#129=VECTOR('',#1016,1.);
#130=VECTOR('',#1017,1.);
#131=VECTOR('',#1018,1.);
#132=VECTOR('',#1019,1.);
#133=VECTOR('',#1020,1.);
#134=VECTOR('',#1021,1.);
#135=VECTOR('',#1022,1.);
#136=VECTOR('',#1023,1.);
#137=VECTOR('',#1024,1.);
#138=VECTOR('',#1025,1.);
#139=VECTOR('',#1026,1.);
#140=VECTOR('',#1027,1.);
#141=VECTOR('',#1028,1.);
#142=VECTOR('',#1029,1.);
#143=VECTOR('',#1034,1.);
#144=VECTOR('',#1037,1.);
#145=VECTOR('',#1044,1.);
#146=VECTOR('',#1045,1.);
#147=VECTOR('',#1050,1.);
#148=VECTOR('',#1053,1.);
#149=VECTOR('',#1056,1.);
#150=VECTOR('',#1059,1.);
#151=VECTOR('',#1062,1.);
#152=VECTOR('',#1063,1.);
#153=VECTOR('',#1068,1.);
#154=VECTOR('',#1071,1.);
#155=VECTOR('',#1074,1.);
#156=VECTOR('',#1077,1.);
#157=VECTOR('',#1084,1.);
#158=VECTOR('',#1085,1.);
#159=VECTOR('',#1088,1.);
#160=VECTOR('',#1091,1.);
#161=VECTOR('',#1094,1.);
#162=VECTOR('',#1099,1.);
#163=VECTOR('',#1102,1.);
#164=VECTOR('',#1103,1.);
#165=VECTOR('',#1104,1.);
#166=VECTOR('',#1105,1.);
#167=VECTOR('',#1106,1.);
#168=VECTOR('',#1109,1.);
#169=VECTOR('',#1110,1.);
#170=VECTOR('',#1111,1.);
#171=VECTOR('',#1112,1.);
#172=VECTOR('',#1113,1.);
#173=VECTOR('',#1114,1.);
#174=VECTOR('',#1115,1.);
#175=VECTOR('',#1116,1.);
#176=VECTOR('',#1123,1.);
#177=VECTOR('',#1128,1.);
#178=VECTOR('',#1143,1.);
#179=VECTOR('',#1144,1.);
#180=VECTOR('',#1147,1.);
#181=VECTOR('',#1156,1.);
#182=VECTOR('',#1161,1.);
#183=VECTOR('',#1164,1.);
#184=VECTOR('',#1175,1.);
#185=VECTOR('',#1180,1.);
#186=VECTOR('',#1181,1.);
#187=VECTOR('',#1184,1.);
#188=VECTOR('',#1191,1.);
#189=VECTOR('',#1192,1.);
#190=VECTOR('',#1193,1.);
#191=VECTOR('',#1194,1.);
#192=VECTOR('',#1195,1.);
#193=VECTOR('',#1196,1.);
#194=VECTOR('',#1199,1.);
#195=VECTOR('',#1200,1.);
#196=VECTOR('',#1203,1.);
#197=VECTOR('',#1204,1.);
#198=VECTOR('',#1205,1.);
#199=VECTOR('',#1206,1.);
#200=VECTOR('',#1207,1.);
#201=VECTOR('',#1210,1.);
#202=VECTOR('',#1213,1.);
#203=VECTOR('',#1218,1.);
#204=ORIENTED_EDGE('',*,*,#444,.F.);
#205=ORIENTED_EDGE('',*,*,#445,.F.);
#206=ORIENTED_EDGE('',*,*,#446,.T.);
#207=ORIENTED_EDGE('',*,*,#447,.F.);
#208=ORIENTED_EDGE('',*,*,#448,.T.);
#209=ORIENTED_EDGE('',*,*,#449,.T.);
#210=ORIENTED_EDGE('',*,*,#450,.F.);
#211=ORIENTED_EDGE('',*,*,#451,.F.);
#212=ORIENTED_EDGE('',*,*,#452,.F.);
#213=ORIENTED_EDGE('',*,*,#453,.T.);
#214=ORIENTED_EDGE('',*,*,#454,.T.);
#215=ORIENTED_EDGE('',*,*,#455,.F.);
#216=ORIENTED_EDGE('',*,*,#456,.F.);
#217=ORIENTED_EDGE('',*,*,#457,.F.);
#218=ORIENTED_EDGE('',*,*,#458,.F.);
#219=ORIENTED_EDGE('',*,*,#459,.T.);
#220=ORIENTED_EDGE('',*,*,#460,.F.);
#221=ORIENTED_EDGE('',*,*,#461,.F.);
#222=ORIENTED_EDGE('',*,*,#462,.T.);
#223=ORIENTED_EDGE('',*,*,#463,.T.);
#224=ORIENTED_EDGE('',*,*,#464,.F.);
#225=ORIENTED_EDGE('',*,*,#465,.T.);
#226=ORIENTED_EDGE('',*,*,#466,.T.);
#227=ORIENTED_EDGE('',*,*,#467,.T.);
#228=ORIENTED_EDGE('',*,*,#468,.F.);
#229=ORIENTED_EDGE('',*,*,#469,.F.);
#230=ORIENTED_EDGE('',*,*,#470,.T.);
#231=ORIENTED_EDGE('',*,*,#448,.F.);
#232=ORIENTED_EDGE('',*,*,#471,.F.);
#233=ORIENTED_EDGE('',*,*,#472,.T.);
#234=ORIENTED_EDGE('',*,*,#473,.F.);
#235=ORIENTED_EDGE('',*,*,#474,.F.);
#236=ORIENTED_EDGE('',*,*,#462,.F.);
#237=ORIENTED_EDGE('',*,*,#475,.T.);
#238=ORIENTED_EDGE('',*,*,#476,.T.);
#239=ORIENTED_EDGE('',*,*,#477,.F.);
#240=ORIENTED_EDGE('',*,*,#478,.T.);
#241=ORIENTED_EDGE('',*,*,#479,.F.);
#242=ORIENTED_EDGE('',*,*,#480,.F.);
#243=ORIENTED_EDGE('',*,*,#481,.T.);
#244=ORIENTED_EDGE('',*,*,#469,.T.);
#245=ORIENTED_EDGE('',*,*,#482,.T.);
#246=ORIENTED_EDGE('',*,*,#483,.T.);
#247=ORIENTED_EDGE('',*,*,#484,.F.);
#248=ORIENTED_EDGE('',*,*,#485,.T.);
#249=ORIENTED_EDGE('',*,*,#486,.F.);
#250=ORIENTED_EDGE('',*,*,#467,.F.);
#251=ORIENTED_EDGE('',*,*,#487,.T.);
#252=ORIENTED_EDGE('',*,*,#488,.F.);
#253=ORIENTED_EDGE('',*,*,#489,.T.);
#254=ORIENTED_EDGE('',*,*,#490,.T.);
#255=ORIENTED_EDGE('',*,*,#491,.T.);
#256=ORIENTED_EDGE('',*,*,#492,.T.);
#257=ORIENTED_EDGE('',*,*,#493,.T.);
#258=ORIENTED_EDGE('',*,*,#465,.F.);
#259=ORIENTED_EDGE('',*,*,#494,.T.);
#260=ORIENTED_EDGE('',*,*,#495,.T.);
#261=ORIENTED_EDGE('',*,*,#496,.T.);
#262=ORIENTED_EDGE('',*,*,#494,.F.);
#263=ORIENTED_EDGE('',*,*,#478,.F.);
#264=ORIENTED_EDGE('',*,*,#497,.F.);
#265=ORIENTED_EDGE('',*,*,#498,.F.);
#266=ORIENTED_EDGE('',*,*,#499,.T.);
#267=ORIENTED_EDGE('',*,*,#500,.F.);
#268=ORIENTED_EDGE('',*,*,#501,.T.);
#269=ORIENTED_EDGE('',*,*,#502,.F.);
#270=ORIENTED_EDGE('',*,*,#503,.T.);
#271=ORIENTED_EDGE('',*,*,#504,.T.);
#272=ORIENTED_EDGE('',*,*,#495,.F.);
#273=ORIENTED_EDGE('',*,*,#477,.T.);
#274=ORIENTED_EDGE('',*,*,#505,.T.);
#275=ORIENTED_EDGE('',*,*,#506,.F.);
#276=ORIENTED_EDGE('',*,*,#472,.F.);
#277=ORIENTED_EDGE('',*,*,#507,.T.);
#278=ORIENTED_EDGE('',*,*,#508,.F.);
#279=ORIENTED_EDGE('',*,*,#509,.F.);
#280=ORIENTED_EDGE('',*,*,#510,.T.);
#281=ORIENTED_EDGE('',*,*,#511,.F.);
#282=ORIENTED_EDGE('',*,*,#512,.T.);
#283=ORIENTED_EDGE('',*,*,#513,.F.);
#284=ORIENTED_EDGE('',*,*,#514,.T.);
#285=ORIENTED_EDGE('',*,*,#515,.T.);
#286=ORIENTED_EDGE('',*,*,#516,.F.);
#287=ORIENTED_EDGE('',*,*,#507,.F.);
#288=ORIENTED_EDGE('',*,*,#471,.T.);
#289=ORIENTED_EDGE('',*,*,#447,.T.);
#290=ORIENTED_EDGE('',*,*,#517,.F.);
#291=ORIENTED_EDGE('',*,*,#518,.F.);
#292=ORIENTED_EDGE('',*,*,#519,.F.);
#293=ORIENTED_EDGE('',*,*,#520,.F.);
#294=ORIENTED_EDGE('',*,*,#482,.F.);
#295=ORIENTED_EDGE('',*,*,#468,.T.);
#296=ORIENTED_EDGE('',*,*,#486,.T.);
#297=ORIENTED_EDGE('',*,*,#521,.F.);
#298=ORIENTED_EDGE('',*,*,#492,.F.);
#299=ORIENTED_EDGE('',*,*,#522,.T.);
#300=ORIENTED_EDGE('',*,*,#500,.T.);
#301=ORIENTED_EDGE('',*,*,#523,.T.);
#302=ORIENTED_EDGE('',*,*,#524,.F.);
#303=ORIENTED_EDGE('',*,*,#464,.T.);
#304=ORIENTED_EDGE('',*,*,#525,.T.);
#305=ORIENTED_EDGE('',*,*,#526,.F.);
#306=ORIENTED_EDGE('',*,*,#512,.F.);
#307=ORIENTED_EDGE('',*,*,#527,.F.);
#308=ORIENTED_EDGE('',*,*,#450,.T.);
#309=ORIENTED_EDGE('',*,*,#528,.F.);
#310=ORIENTED_EDGE('',*,*,#480,.T.);
#311=ORIENTED_EDGE('',*,*,#521,.T.);
#312=ORIENTED_EDGE('',*,*,#485,.F.);
#313=ORIENTED_EDGE('',*,*,#529,.F.);
#314=ORIENTED_EDGE('',*,*,#484,.T.);
#315=ORIENTED_EDGE('',*,*,#466,.F.);
#316=ORIENTED_EDGE('',*,*,#493,.F.);
#317=ORIENTED_EDGE('',*,*,#529,.T.);
#318=ORIENTED_EDGE('',*,*,#528,.T.);
#319=ORIENTED_EDGE('',*,*,#449,.F.);
#320=ORIENTED_EDGE('',*,*,#470,.F.);
#321=ORIENTED_EDGE('',*,*,#481,.F.);
#322=ORIENTED_EDGE('',*,*,#530,.F.);
#323=ORIENTED_EDGE('',*,*,#531,.T.);
#324=ORIENTED_EDGE('',*,*,#473,.T.);
#325=ORIENTED_EDGE('',*,*,#515,.F.);
#326=ORIENTED_EDGE('',*,*,#531,.F.);
#327=ORIENTED_EDGE('',*,*,#532,.T.);
#328=ORIENTED_EDGE('',*,*,#533,.F.);
#329=ORIENTED_EDGE('',*,*,#525,.F.);
#330=ORIENTED_EDGE('',*,*,#463,.F.);
#331=ORIENTED_EDGE('',*,*,#474,.T.);
#332=ORIENTED_EDGE('',*,*,#455,.T.);
#333=ORIENTED_EDGE('',*,*,#534,.F.);
#334=ORIENTED_EDGE('',*,*,#506,.T.);
#335=ORIENTED_EDGE('',*,*,#456,.T.);
#336=ORIENTED_EDGE('',*,*,#534,.T.);
#337=ORIENTED_EDGE('',*,*,#487,.F.);
#338=ORIENTED_EDGE('',*,*,#483,.F.);
#339=ORIENTED_EDGE('',*,*,#479,.T.);
#340=ORIENTED_EDGE('',*,*,#444,.T.);
#341=ORIENTED_EDGE('',*,*,#490,.F.);
#342=ORIENTED_EDGE('',*,*,#535,.T.);
#343=ORIENTED_EDGE('',*,*,#502,.T.);
#344=ORIENTED_EDGE('',*,*,#536,.T.);
#345=ORIENTED_EDGE('',*,*,#504,.F.);
#346=ORIENTED_EDGE('',*,*,#537,.T.);
#347=ORIENTED_EDGE('',*,*,#488,.T.);
#348=ORIENTED_EDGE('',*,*,#496,.F.);
#349=ORIENTED_EDGE('',*,*,#503,.F.);
#350=ORIENTED_EDGE('',*,*,#535,.F.);
#351=ORIENTED_EDGE('',*,*,#489,.F.);
#352=ORIENTED_EDGE('',*,*,#537,.F.);
#353=ORIENTED_EDGE('',*,*,#501,.F.);
#354=ORIENTED_EDGE('',*,*,#522,.F.);
#355=ORIENTED_EDGE('',*,*,#491,.F.);
#356=ORIENTED_EDGE('',*,*,#536,.F.);
#357=ORIENTED_EDGE('',*,*,#538,.F.);
#358=ORIENTED_EDGE('',*,*,#539,.T.);
#359=ORIENTED_EDGE('',*,*,#497,.T.);
#360=ORIENTED_EDGE('',*,*,#476,.F.);
#361=ORIENTED_EDGE('',*,*,#524,.T.);
#362=ORIENTED_EDGE('',*,*,#540,.T.);
#363=ORIENTED_EDGE('',*,*,#541,.F.);
#364=ORIENTED_EDGE('',*,*,#538,.T.);
#365=ORIENTED_EDGE('',*,*,#475,.F.);
#366=ORIENTED_EDGE('',*,*,#461,.T.);
#367=ORIENTED_EDGE('',*,*,#453,.F.);
#368=ORIENTED_EDGE('',*,*,#541,.T.);
#369=ORIENTED_EDGE('',*,*,#542,.T.);
#370=ORIENTED_EDGE('',*,*,#498,.T.);
#371=ORIENTED_EDGE('',*,*,#539,.F.);
#372=ORIENTED_EDGE('',*,*,#540,.F.);
#373=ORIENTED_EDGE('',*,*,#523,.F.);
#374=ORIENTED_EDGE('',*,*,#499,.F.);
#375=ORIENTED_EDGE('',*,*,#542,.F.);
#376=ORIENTED_EDGE('',*,*,#543,.T.);
#377=ORIENTED_EDGE('',*,*,#505,.F.);
#378=ORIENTED_EDGE('',*,*,#454,.F.);
#379=ORIENTED_EDGE('',*,*,#543,.F.);
#380=ORIENTED_EDGE('',*,*,#533,.T.);
#381=ORIENTED_EDGE('',*,*,#544,.T.);
#382=ORIENTED_EDGE('',*,*,#513,.T.);
#383=ORIENTED_EDGE('',*,*,#526,.T.);
#384=ORIENTED_EDGE('',*,*,#532,.F.);
#385=ORIENTED_EDGE('',*,*,#530,.T.);
#386=ORIENTED_EDGE('',*,*,#514,.F.);
#387=ORIENTED_EDGE('',*,*,#544,.F.);
#388=ORIENTED_EDGE('',*,*,#452,.T.);
#389=ORIENTED_EDGE('',*,*,#545,.F.);
#390=ORIENTED_EDGE('',*,*,#510,.F.);
#391=ORIENTED_EDGE('',*,*,#546,.F.);
#392=ORIENTED_EDGE('',*,*,#508,.T.);
#393=ORIENTED_EDGE('',*,*,#516,.T.);
#394=ORIENTED_EDGE('',*,*,#446,.F.);
#395=ORIENTED_EDGE('',*,*,#547,.F.);
#396=ORIENTED_EDGE('',*,*,#509,.T.);
#397=ORIENTED_EDGE('',*,*,#547,.T.);
#398=ORIENTED_EDGE('',*,*,#445,.T.);
#399=ORIENTED_EDGE('',*,*,#546,.T.);
#400=ORIENTED_EDGE('',*,*,#511,.T.);
#401=ORIENTED_EDGE('',*,*,#545,.T.);
#402=ORIENTED_EDGE('',*,*,#451,.T.);
#403=ORIENTED_EDGE('',*,*,#527,.T.);
#404=ORIENTED_EDGE('',*,*,#460,.T.);
#405=ORIENTED_EDGE('',*,*,#548,.F.);
#406=ORIENTED_EDGE('',*,*,#549,.T.);
#407=ORIENTED_EDGE('',*,*,#550,.T.);
#408=ORIENTED_EDGE('',*,*,#517,.T.);
#409=ORIENTED_EDGE('',*,*,#551,.F.);
#410=ORIENTED_EDGE('',*,*,#552,.T.);
#411=ORIENTED_EDGE('',*,*,#553,.T.);
#412=ORIENTED_EDGE('',*,*,#554,.F.);
#413=ORIENTED_EDGE('',*,*,#555,.T.);
#414=ORIENTED_EDGE('',*,*,#551,.T.);
#415=ORIENTED_EDGE('',*,*,#520,.T.);
#416=ORIENTED_EDGE('',*,*,#458,.T.);
#417=ORIENTED_EDGE('',*,*,#556,.F.);
#418=ORIENTED_EDGE('',*,*,#557,.F.);
#419=ORIENTED_EDGE('',*,*,#554,.T.);
#420=ORIENTED_EDGE('',*,*,#519,.T.);
#421=ORIENTED_EDGE('',*,*,#558,.F.);
#422=ORIENTED_EDGE('',*,*,#559,.F.);
#423=ORIENTED_EDGE('',*,*,#560,.T.);
#424=ORIENTED_EDGE('',*,*,#550,.F.);
#425=ORIENTED_EDGE('',*,*,#561,.T.);
#426=ORIENTED_EDGE('',*,*,#558,.T.);
#427=ORIENTED_EDGE('',*,*,#518,.T.);
#428=ORIENTED_EDGE('',*,*,#459,.F.);
#429=ORIENTED_EDGE('',*,*,#560,.F.);
#430=ORIENTED_EDGE('',*,*,#562,.T.);
#431=ORIENTED_EDGE('',*,*,#548,.T.);
#432=ORIENTED_EDGE('',*,*,#562,.F.);
#433=ORIENTED_EDGE('',*,*,#559,.T.);
#434=ORIENTED_EDGE('',*,*,#561,.F.);
#435=ORIENTED_EDGE('',*,*,#549,.F.);
#436=ORIENTED_EDGE('',*,*,#457,.T.);
#437=ORIENTED_EDGE('',*,*,#553,.F.);
#438=ORIENTED_EDGE('',*,*,#563,.F.);
#439=ORIENTED_EDGE('',*,*,#556,.T.);
#440=ORIENTED_EDGE('',*,*,#555,.F.);
#441=ORIENTED_EDGE('',*,*,#557,.T.);
#442=ORIENTED_EDGE('',*,*,#563,.T.);
#443=ORIENTED_EDGE('',*,*,#552,.F.);
#444=EDGE_CURVE('',#564,#564,#648,.T.);
#445=EDGE_CURVE('',#565,#566,#649,.T.);
#446=EDGE_CURVE('',#565,#567,#28,.T.);
#447=EDGE_CURVE('',#568,#567,#29,.T.);
#448=EDGE_CURVE('',#568,#569,#30,.T.);
#449=EDGE_CURVE('',#569,#570,#650,.T.);
#450=EDGE_CURVE('',#571,#570,#31,.T.);
#451=EDGE_CURVE('',#572,#571,#651,.T.);
#452=EDGE_CURVE('',#566,#572,#32,.T.);
#453=EDGE_CURVE('',#573,#573,#652,.T.);
#454=EDGE_CURVE('',#574,#574,#653,.F.);
#455=EDGE_CURVE('',#575,#575,#654,.T.);
#456=EDGE_CURVE('',#576,#576,#655,.F.);
#457=EDGE_CURVE('',#577,#578,#33,.T.);
#458=EDGE_CURVE('',#579,#577,#34,.T.);
#459=EDGE_CURVE('',#579,#580,#35,.T.);
#460=EDGE_CURVE('',#578,#580,#36,.T.);
#461=EDGE_CURVE('',#581,#582,#37,.T.);
#462=EDGE_CURVE('',#581,#583,#38,.T.);
#463=EDGE_CURVE('',#583,#584,#39,.T.);
#464=EDGE_CURVE('',#582,#584,#40,.T.);
#465=EDGE_CURVE('',#585,#586,#41,.T.);
#466=EDGE_CURVE('',#586,#587,#42,.T.);
#467=EDGE_CURVE('',#587,#588,#43,.T.);
#468=EDGE_CURVE('',#589,#588,#44,.T.);
#469=EDGE_CURVE('',#590,#589,#45,.T.);
#470=EDGE_CURVE('',#590,#569,#46,.T.);
#471=EDGE_CURVE('',#591,#568,#47,.T.);
#472=EDGE_CURVE('',#591,#592,#48,.T.);
#473=EDGE_CURVE('',#593,#592,#49,.T.);
#474=EDGE_CURVE('',#583,#593,#50,.T.);
#475=EDGE_CURVE('',#581,#594,#51,.T.);
#476=EDGE_CURVE('',#594,#595,#52,.T.);
#477=EDGE_CURVE('',#596,#595,#53,.T.);
#478=EDGE_CURVE('',#596,#585,#54,.T.);
#479=EDGE_CURVE('',#597,#597,#656,.T.);
#480=EDGE_CURVE('',#598,#599,#55,.T.);
#481=EDGE_CURVE('',#598,#590,#657,.T.);
#482=EDGE_CURVE('',#589,#599,#56,.T.);
#483=EDGE_CURVE('',#600,#600,#658,.T.);
#484=EDGE_CURVE('',#601,#587,#659,.T.);
#485=EDGE_CURVE('',#601,#602,#57,.T.);
#486=EDGE_CURVE('',#588,#602,#58,.T.);
#487=EDGE_CURVE('',#603,#603,#660,.T.);
#488=EDGE_CURVE('',#604,#605,#59,.T.);
#489=EDGE_CURVE('',#604,#606,#661,.T.);
#490=EDGE_CURVE('',#606,#607,#60,.T.);
#491=EDGE_CURVE('',#607,#608,#662,.T.);
#492=EDGE_CURVE('',#608,#609,#61,.T.);
#493=EDGE_CURVE('',#609,#586,#663,.F.);
#494=EDGE_CURVE('',#585,#605,#62,.T.);
#495=EDGE_CURVE('',#596,#610,#63,.T.);
#496=EDGE_CURVE('',#610,#605,#64,.T.);
#497=EDGE_CURVE('',#611,#595,#664,.T.);
#498=EDGE_CURVE('',#612,#611,#65,.T.);
#499=EDGE_CURVE('',#612,#613,#665,.T.);
#500=EDGE_CURVE('',#614,#613,#66,.T.);
#501=EDGE_CURVE('',#614,#615,#666,.T.);
#502=EDGE_CURVE('',#616,#615,#67,.T.);
#503=EDGE_CURVE('',#616,#617,#667,.T.);
#504=EDGE_CURVE('',#617,#610,#68,.T.);
#505=EDGE_CURVE('',#618,#618,#668,.T.);
#506=EDGE_CURVE('',#619,#619,#669,.T.);
#507=EDGE_CURVE('',#591,#620,#69,.T.);
#508=EDGE_CURVE('',#621,#620,#70,.T.);
#509=EDGE_CURVE('',#622,#621,#670,.T.);
#510=EDGE_CURVE('',#622,#623,#71,.T.);
#511=EDGE_CURVE('',#624,#623,#671,.T.);
#512=EDGE_CURVE('',#624,#625,#72,.T.);
#513=EDGE_CURVE('',#626,#625,#672,.T.);
#514=EDGE_CURVE('',#626,#627,#73,.T.);
#515=EDGE_CURVE('',#627,#592,#673,.T.);
#516=EDGE_CURVE('',#620,#567,#74,.T.);
#517=EDGE_CURVE('',#628,#629,#75,.T.);
#518=EDGE_CURVE('',#630,#628,#76,.T.);
#519=EDGE_CURVE('',#631,#630,#77,.T.);
#520=EDGE_CURVE('',#629,#631,#78,.T.);
#521=EDGE_CURVE('',#599,#602,#79,.T.);
#522=EDGE_CURVE('',#608,#614,#80,.F.);
#523=EDGE_CURVE('',#613,#632,#81,.F.);
#524=EDGE_CURVE('',#582,#632,#82,.T.);
#525=EDGE_CURVE('',#584,#633,#83,.T.);
#526=EDGE_CURVE('',#625,#633,#84,.F.);
#527=EDGE_CURVE('',#571,#624,#85,.F.);
#528=EDGE_CURVE('',#598,#570,#86,.T.);
#529=EDGE_CURVE('',#609,#601,#87,.T.);
#530=EDGE_CURVE('',#634,#627,#88,.T.);
#531=EDGE_CURVE('',#634,#593,#674,.T.);
#532=EDGE_CURVE('',#634,#635,#89,.T.);
#533=EDGE_CURVE('',#633,#635,#675,.F.);
#534=EDGE_CURVE('',#636,#636,#676,.T.);
#535=EDGE_CURVE('',#606,#616,#90,.F.);
#536=EDGE_CURVE('',#615,#607,#91,.T.);
#537=EDGE_CURVE('',#617,#604,#92,.T.);
#538=EDGE_CURVE('',#637,#594,#677,.T.);
#539=EDGE_CURVE('',#637,#611,#93,.T.);
#540=EDGE_CURVE('',#632,#638,#678,.F.);
#541=EDGE_CURVE('',#637,#638,#94,.T.);
#542=EDGE_CURVE('',#638,#612,#95,.T.);
#543=EDGE_CURVE('',#639,#639,#679,.T.);
#544=EDGE_CURVE('',#635,#626,#96,.T.);
#545=EDGE_CURVE('',#623,#572,#97,.T.);
#546=EDGE_CURVE('',#566,#622,#98,.F.);
#547=EDGE_CURVE('',#621,#565,#99,.T.);
#548=EDGE_CURVE('',#640,#580,#100,.T.);
#549=EDGE_CURVE('',#640,#641,#101,.T.);
#550=EDGE_CURVE('',#641,#628,#102,.T.);
#551=EDGE_CURVE('',#642,#629,#103,.T.);
#552=EDGE_CURVE('',#642,#643,#104,.T.);
#553=EDGE_CURVE('',#643,#578,#105,.T.);
#554=EDGE_CURVE('',#644,#631,#106,.T.);
#555=EDGE_CURVE('',#644,#642,#107,.T.);
#556=EDGE_CURVE('',#645,#577,#108,.T.);
#557=EDGE_CURVE('',#644,#645,#109,.T.);
#558=EDGE_CURVE('',#646,#630,#110,.T.);
#559=EDGE_CURVE('',#647,#646,#111,.T.);
#560=EDGE_CURVE('',#647,#579,#112,.T.);
#561=EDGE_CURVE('',#641,#646,#113,.T.);
#562=EDGE_CURVE('',#647,#640,#114,.T.);
#563=EDGE_CURVE('',#645,#643,#115,.T.);
#564=VERTEX_POINT('',#1224);
#565=VERTEX_POINT('',#1226);
#566=VERTEX_POINT('',#1227);
#567=VERTEX_POINT('',#1229);
#568=VERTEX_POINT('',#1231);
#569=VERTEX_POINT('',#1233);
#570=VERTEX_POINT('',#1235);
#571=VERTEX_POINT('',#1237);
#572=VERTEX_POINT('',#1239);
#573=VERTEX_POINT('',#1243);
#574=VERTEX_POINT('',#1245);
#575=VERTEX_POINT('',#1248);
#576=VERTEX_POINT('',#1250);
#577=VERTEX_POINT('',#1253);
#578=VERTEX_POINT('',#1254);
#579=VERTEX_POINT('',#1256);
#580=VERTEX_POINT('',#1258);
#581=VERTEX_POINT('',#1261);
#582=VERTEX_POINT('',#1262);
#583=VERTEX_POINT('',#1264);
#584=VERTEX_POINT('',#1266);
#585=VERTEX_POINT('',#1270);
#586=VERTEX_POINT('',#1271);
#587=VERTEX_POINT('',#1273);
#588=VERTEX_POINT('',#1275);
#589=VERTEX_POINT('',#1277);
#590=VERTEX_POINT('',#1279);
#591=VERTEX_POINT('',#1282);
#592=VERTEX_POINT('',#1284);
#593=VERTEX_POINT('',#1286);
#594=VERTEX_POINT('',#1289);
#595=VERTEX_POINT('',#1291);
#596=VERTEX_POINT('',#1293);
#597=VERTEX_POINT('',#1297);
#598=VERTEX_POINT('',#1299);
#599=VERTEX_POINT('',#1300);
#600=VERTEX_POINT('',#1305);
#601=VERTEX_POINT('',#1307);
#602=VERTEX_POINT('',#1309);
#603=VERTEX_POINT('',#1313);
#604=VERTEX_POINT('',#1315);
#605=VERTEX_POINT('',#1316);
#606=VERTEX_POINT('',#1318);
#607=VERTEX_POINT('',#1320);
#608=VERTEX_POINT('',#1322);
#609=VERTEX_POINT('',#1324);
#610=VERTEX_POINT('',#1329);
#611=VERTEX_POINT('',#1333);
#612=VERTEX_POINT('',#1335);
#613=VERTEX_POINT('',#1337);
#614=VERTEX_POINT('',#1339);
#615=VERTEX_POINT('',#1341);
#616=VERTEX_POINT('',#1343);
#617=VERTEX_POINT('',#1345);
#618=VERTEX_POINT('',#1348);
#619=VERTEX_POINT('',#1351);
#620=VERTEX_POINT('',#1353);
#621=VERTEX_POINT('',#1355);
#622=VERTEX_POINT('',#1357);
#623=VERTEX_POINT('',#1359);
#624=VERTEX_POINT('',#1361);
#625=VERTEX_POINT('',#1363);
#626=VERTEX_POINT('',#1365);
#627=VERTEX_POINT('',#1367);
#628=VERTEX_POINT('',#1373);
#629=VERTEX_POINT('',#1374);
#630=VERTEX_POINT('',#1376);
#631=VERTEX_POINT('',#1378);
#632=VERTEX_POINT('',#1384);
#633=VERTEX_POINT('',#1387);
#634=VERTEX_POINT('',#1396);
#635=VERTEX_POINT('',#1400);
#636=VERTEX_POINT('',#1404);
#637=VERTEX_POINT('',#1417);
#638=VERTEX_POINT('',#1421);
#639=VERTEX_POINT('',#1428);
#640=VERTEX_POINT('',#1442);
#641=VERTEX_POINT('',#1444);
#642=VERTEX_POINT('',#1447);
#643=VERTEX_POINT('',#1449);
#644=VERTEX_POINT('',#1453);
#645=VERTEX_POINT('',#1457);
#646=VERTEX_POINT('',#1460);
#647=VERTEX_POINT('',#1462);
#648=CIRCLE('',#898,0.00255);
#649=CIRCLE('',#899,0.00025);
#650=CIRCLE('',#900,0.005);
#651=CIRCLE('',#901,0.00025);
#652=CIRCLE('',#903,0.00405);
#653=CIRCLE('',#904,0.00405);
#654=CIRCLE('',#906,0.00405);
#655=CIRCLE('',#907,0.00405);
#656=CIRCLE('',#911,0.00255);
#657=CIRCLE('',#912,0.005);
#658=CIRCLE('',#914,0.00255);
#659=CIRCLE('',#915,0.005);
#660=CIRCLE('',#917,0.00255);
#661=CIRCLE('',#918,0.00025);
#662=CIRCLE('',#919,0.00025);
#663=CIRCLE('',#920,0.005);
#664=CIRCLE('',#923,0.005);
#665=CIRCLE('',#924,0.0002);
#666=CIRCLE('',#925,0.00025);
#667=CIRCLE('',#926,0.00025);
#668=CIRCLE('',#927,0.0035);
#669=CIRCLE('',#929,0.0035);
#670=CIRCLE('',#930,0.00025);
#671=CIRCLE('',#931,0.00025);
#672=CIRCLE('',#932,0.0002);
#673=CIRCLE('',#933,0.005);
#674=CIRCLE('',#940,0.005);
#675=CIRCLE('',#942,0.0002);
#676=CIRCLE('',#944,0.0035);
#677=CIRCLE('',#953,0.005);
#678=CIRCLE('',#955,0.0002);
#679=CIRCLE('',#959,0.0035);
#680=EDGE_LOOP('',(#204));
#681=EDGE_LOOP('',(#205,#206,#207,#208,#209,#210,#211,#212));
#682=EDGE_LOOP('',(#213));
#683=EDGE_LOOP('',(#214));
#684=EDGE_LOOP('',(#215));
#685=EDGE_LOOP('',(#216));
#686=EDGE_LOOP('',(#217,#218,#219,#220));
#687=EDGE_LOOP('',(#221,#222,#223,#224));
#688=EDGE_LOOP('',(#225,#226,#227,#228,#229,#230,#231,#232,#233,#234,#235,
#236,#237,#238,#239,#240));
#689=EDGE_LOOP('',(#241));
#690=EDGE_LOOP('',(#242,#243,#244,#245));
#691=EDGE_LOOP('',(#246));
#692=EDGE_LOOP('',(#247,#248,#249,#250));
#693=EDGE_LOOP('',(#251));
#694=EDGE_LOOP('',(#252,#253,#254,#255,#256,#257,#258,#259));
#695=EDGE_LOOP('',(#260,#261,#262,#263));
#696=EDGE_LOOP('',(#264,#265,#266,#267,#268,#269,#270,#271,#272,#273));
#697=EDGE_LOOP('',(#274));
#698=EDGE_LOOP('',(#275));
#699=EDGE_LOOP('',(#276,#277,#278,#279,#280,#281,#282,#283,#284,#285));
#700=EDGE_LOOP('',(#286,#287,#288,#289));
#701=EDGE_LOOP('',(#290,#291,#292,#293));
#702=EDGE_LOOP('',(#294,#295,#296,#297));
#703=EDGE_LOOP('',(#298,#299,#300,#301,#302,#303,#304,#305,#306,#307,#308,
#309,#310,#311,#312,#313));
#704=EDGE_LOOP('',(#314,#315,#316,#317));
#705=EDGE_LOOP('',(#318,#319,#320,#321));
#706=EDGE_LOOP('',(#322,#323,#324,#325));
#707=EDGE_LOOP('',(#326,#327,#328,#329,#330,#331));
#708=EDGE_LOOP('',(#332));
#709=EDGE_LOOP('',(#333));
#710=EDGE_LOOP('',(#334));
#711=EDGE_LOOP('',(#335));
#712=EDGE_LOOP('',(#336));
#713=EDGE_LOOP('',(#337));
#714=EDGE_LOOP('',(#338));
#715=EDGE_LOOP('',(#339));
#716=EDGE_LOOP('',(#340));
#717=EDGE_LOOP('',(#341,#342,#343,#344));
#718=EDGE_LOOP('',(#345,#346,#347,#348));
#719=EDGE_LOOP('',(#349,#350,#351,#352));
#720=EDGE_LOOP('',(#353,#354,#355,#356));
#721=EDGE_LOOP('',(#357,#358,#359,#360));
#722=EDGE_LOOP('',(#361,#362,#363,#364,#365,#366));
#723=EDGE_LOOP('',(#367));
#724=EDGE_LOOP('',(#368,#369,#370,#371));
#725=EDGE_LOOP('',(#372,#373,#374,#375));
#726=EDGE_LOOP('',(#376));
#727=EDGE_LOOP('',(#377));
#728=EDGE_LOOP('',(#378));
#729=EDGE_LOOP('',(#379));
#730=EDGE_LOOP('',(#380,#381,#382,#383));
#731=EDGE_LOOP('',(#384,#385,#386,#387));
#732=EDGE_LOOP('',(#388,#389,#390,#391));
#733=EDGE_LOOP('',(#392,#393,#394,#395));
#734=EDGE_LOOP('',(#396,#397,#398,#399));
#735=EDGE_LOOP('',(#400,#401,#402,#403));
#736=EDGE_LOOP('',(#404,#405,#406,#407,#408,#409,#410,#411));
#737=EDGE_LOOP('',(#412,#413,#414,#415));
#738=EDGE_LOOP('',(#416,#417,#418,#419,#420,#421,#422,#423));
#739=EDGE_LOOP('',(#424,#425,#426,#427));
#740=EDGE_LOOP('',(#428,#429,#430,#431));
#741=EDGE_LOOP('',(#432,#433,#434,#435));
#742=EDGE_LOOP('',(#436,#437,#438,#439));
#743=EDGE_LOOP('',(#440,#441,#442,#443));
#744=FACE_BOUND('',#680,.T.);
#745=FACE_BOUND('',#681,.T.);
#746=FACE_BOUND('',#682,.T.);
#747=FACE_BOUND('',#683,.T.);
#748=FACE_BOUND('',#684,.T.);
#749=FACE_BOUND('',#685,.T.);
#750=FACE_BOUND('',#686,.T.);
#751=FACE_BOUND('',#687,.T.);
#752=FACE_BOUND('',#688,.T.);
#753=FACE_BOUND('',#689,.T.);
#754=FACE_BOUND('',#690,.T.);
#755=FACE_BOUND('',#691,.T.);
#756=FACE_BOUND('',#692,.T.);
#757=FACE_BOUND('',#693,.T.);
#758=FACE_BOUND('',#694,.T.);
#759=FACE_BOUND('',#695,.T.);
#760=FACE_BOUND('',#696,.T.);
#761=FACE_BOUND('',#697,.T.);
#762=FACE_BOUND('',#698,.T.);
#763=FACE_BOUND('',#699,.T.);
#764=FACE_BOUND('',#700,.T.);
#765=FACE_BOUND('',#701,.T.);
#766=FACE_BOUND('',#702,.T.);
#767=FACE_BOUND('',#703,.T.);
#768=FACE_BOUND('',#704,.T.);
#769=FACE_BOUND('',#705,.T.);
#770=FACE_BOUND('',#706,.T.);
#771=FACE_BOUND('',#707,.T.);
#772=FACE_BOUND('',#708,.T.);
#773=FACE_BOUND('',#709,.T.);
#774=FACE_BOUND('',#710,.T.);
#775=FACE_BOUND('',#711,.T.);
#776=FACE_BOUND('',#712,.T.);
#777=FACE_BOUND('',#713,.T.);
#778=FACE_BOUND('',#714,.T.);
#779=FACE_BOUND('',#715,.T.);
#780=FACE_BOUND('',#716,.T.);
#781=FACE_BOUND('',#717,.T.);
#782=FACE_BOUND('',#718,.T.);
#783=FACE_BOUND('',#719,.T.);
#784=FACE_BOUND('',#720,.T.);
#785=FACE_BOUND('',#721,.T.);
#786=FACE_BOUND('',#722,.T.);
#787=FACE_BOUND('',#723,.T.);
#788=FACE_BOUND('',#724,.T.);
#789=FACE_BOUND('',#725,.T.);
#790=FACE_BOUND('',#726,.T.);
#791=FACE_BOUND('',#727,.T.);
#792=FACE_BOUND('',#728,.T.);
#793=FACE_BOUND('',#729,.T.);
#794=FACE_BOUND('',#730,.T.);
#795=FACE_BOUND('',#731,.T.);
#796=FACE_BOUND('',#732,.T.);
#797=FACE_BOUND('',#733,.T.);
#798=FACE_BOUND('',#734,.T.);
#799=FACE_BOUND('',#735,.T.);
#800=FACE_BOUND('',#736,.T.);
#801=FACE_BOUND('',#737,.T.);
#802=FACE_BOUND('',#738,.T.);
#803=FACE_BOUND('',#739,.T.);
#804=FACE_BOUND('',#740,.T.);
#805=FACE_BOUND('',#741,.T.);
#806=FACE_BOUND('',#742,.T.);
#807=FACE_BOUND('',#743,.T.);
#808=PLANE('',#897);
#809=PLANE('',#908);
#810=PLANE('',#909);
#811=PLANE('',#910);
#812=PLANE('',#913);
#813=PLANE('',#916);
#814=PLANE('',#921);
#815=PLANE('',#922);
#816=PLANE('',#928);
#817=PLANE('',#934);
#818=PLANE('',#935);
#819=PLANE('',#936);
#820=PLANE('',#941);
#821=PLANE('',#945);
#822=PLANE('',#948);
#823=PLANE('',#949);
#824=PLANE('',#954);
#825=PLANE('',#956);
#826=PLANE('',#960);
#827=PLANE('',#962);
#828=PLANE('',#963);
#829=PLANE('',#964);
#830=PLANE('',#967);
#831=PLANE('',#968);
#832=PLANE('',#969);
#833=PLANE('',#970);
#834=PLANE('',#971);
#835=PLANE('',#972);
#836=PLANE('',#973);
#837=PLANE('',#974);
#838=ADVANCED_FACE('',(#744,#745),#808,.T.);
#839=ADVANCED_FACE('',(#746,#747),#12,.F.);
#840=ADVANCED_FACE('',(#748,#749),#13,.F.);
#841=ADVANCED_FACE('',(#750,#751),#809,.T.);
#842=ADVANCED_FACE('',(#752),#810,.T.);
#843=ADVANCED_FACE('',(#753,#754),#811,.T.);
#844=ADVANCED_FACE('',(#755,#756),#812,.F.);
#845=ADVANCED_FACE('',(#757,#758),#813,.F.);
#846=ADVANCED_FACE('',(#759),#814,.F.);
#847=ADVANCED_FACE('',(#760,#761),#815,.T.);
#848=ADVANCED_FACE('',(#762,#763),#816,.F.);
#849=ADVANCED_FACE('',(#764),#817,.T.);
#850=ADVANCED_FACE('',(#765,#766),#818,.T.);
#851=ADVANCED_FACE('',(#767),#819,.T.);
#852=ADVANCED_FACE('',(#768),#14,.T.);
#853=ADVANCED_FACE('',(#769),#15,.T.);
#854=ADVANCED_FACE('',(#770),#16,.T.);
#855=ADVANCED_FACE('',(#771,#772),#820,.F.);
#856=ADVANCED_FACE('',(#773,#774),#17,.F.);
#857=ADVANCED_FACE('',(#775,#776),#821,.F.);
#858=ADVANCED_FACE('',(#777,#778),#18,.F.);
#859=ADVANCED_FACE('',(#779,#780),#19,.F.);
#860=ADVANCED_FACE('',(#781),#822,.T.);
#861=ADVANCED_FACE('',(#782),#823,.F.);
#862=ADVANCED_FACE('',(#783),#20,.T.);
#863=ADVANCED_FACE('',(#784),#21,.T.);
#864=ADVANCED_FACE('',(#785),#22,.T.);
#865=ADVANCED_FACE('',(#786,#787),#824,.F.);
#866=ADVANCED_FACE('',(#788),#825,.F.);
#867=ADVANCED_FACE('',(#789),#23,.T.);
#868=ADVANCED_FACE('',(#790,#791),#24,.F.);
#869=ADVANCED_FACE('',(#792,#793),#826,.F.);
#870=ADVANCED_FACE('',(#794),#25,.T.);
#871=ADVANCED_FACE('',(#795),#827,.F.);
#872=ADVANCED_FACE('',(#796),#828,.T.);
#873=ADVANCED_FACE('',(#797),#829,.F.);
#874=ADVANCED_FACE('',(#798),#26,.T.);
#875=ADVANCED_FACE('',(#799),#27,.T.);
#876=ADVANCED_FACE('',(#800),#830,.F.);
#877=ADVANCED_FACE('',(#801),#831,.F.);
#878=ADVANCED_FACE('',(#802),#832,.F.);
#879=ADVANCED_FACE('',(#803),#833,.F.);
#880=ADVANCED_FACE('',(#804),#834,.T.);
#881=ADVANCED_FACE('',(#805),#835,.T.);
#882=ADVANCED_FACE('',(#806),#836,.F.);
#883=ADVANCED_FACE('',(#807),#837,.T.);
#884=CLOSED_SHELL('',(#838,#839,#840,#841,#842,#843,#844,#845,#846,#847,
#848,#849,#850,#851,#852,#853,#854,#855,#856,#857,#858,#859,#860,#861,#862,
#863,#864,#865,#866,#867,#868,#869,#870,#871,#872,#873,#874,#875,#876,#877,
#878,#879,#880,#881,#882,#883));
#885=STYLED_ITEM('',(#886),#893);
#886=PRESENTATION_STYLE_ASSIGNMENT((#887));
#887=SURFACE_STYLE_USAGE(.BOTH.,#888);
#888=SURFACE_SIDE_STYLE('',(#889));
#889=SURFACE_STYLE_FILL_AREA(#890);
#890=FILL_AREA_STYLE('',(#891));
#891=FILL_AREA_STYLE_COLOUR('',#892);
#892=COLOUR_RGB('',0.231372549019608,0.380392156862745,0.705882352941177);
#893=MANIFOLD_SOLID_BREP('Bottom_Segment',#884);
#894=SHAPE_DEFINITION_REPRESENTATION(#1478,#895);
#895=SHAPE_REPRESENTATION('Bottom_Segment',(#896),#1473);
#896=AXIS2_PLACEMENT_3D('',#1221,#975,#976);
#897=AXIS2_PLACEMENT_3D('',#1222,#977,#978);
#898=AXIS2_PLACEMENT_3D('',#1223,#979,#980);
#899=AXIS2_PLACEMENT_3D('',#1225,#981,#982);
#900=AXIS2_PLACEMENT_3D('',#1234,#986,#987);
#901=AXIS2_PLACEMENT_3D('',#1238,#989,#990);
#902=AXIS2_PLACEMENT_3D('',#1241,#992,#993);
#903=AXIS2_PLACEMENT_3D('',#1242,#994,#995);
#904=AXIS2_PLACEMENT_3D('',#1244,#996,#997);
#905=AXIS2_PLACEMENT_3D('',#1246,#998,#999);
#906=AXIS2_PLACEMENT_3D('',#1247,#1000,#1001);
#907=AXIS2_PLACEMENT_3D('',#1249,#1002,#1003);
#908=AXIS2_PLACEMENT_3D('',#1251,#1004,#1005);
#909=AXIS2_PLACEMENT_3D('',#1268,#1014,#1015);
#910=AXIS2_PLACEMENT_3D('',#1295,#1030,#1031);
#911=AXIS2_PLACEMENT_3D('',#1296,#1032,#1033);
#912=AXIS2_PLACEMENT_3D('',#1301,#1035,#1036);
#913=AXIS2_PLACEMENT_3D('',#1303,#1038,#1039);
#914=AXIS2_PLACEMENT_3D('',#1304,#1040,#1041);
#915=AXIS2_PLACEMENT_3D('',#1306,#1042,#1043);
#916=AXIS2_PLACEMENT_3D('',#1311,#1046,#1047);
#917=AXIS2_PLACEMENT_3D('',#1312,#1048,#1049);
#918=AXIS2_PLACEMENT_3D('',#1317,#1051,#1052);
#919=AXIS2_PLACEMENT_3D('',#1321,#1054,#1055);
#920=AXIS2_PLACEMENT_3D('',#1325,#1057,#1058);
#921=AXIS2_PLACEMENT_3D('',#1327,#1060,#1061);
#922=AXIS2_PLACEMENT_3D('',#1331,#1064,#1065);
#923=AXIS2_PLACEMENT_3D('',#1332,#1066,#1067);
#924=AXIS2_PLACEMENT_3D('',#1336,#1069,#1070);
#925=AXIS2_PLACEMENT_3D('',#1340,#1072,#1073);
#926=AXIS2_PLACEMENT_3D('',#1344,#1075,#1076);
#927=AXIS2_PLACEMENT_3D('',#1347,#1078,#1079);
#928=AXIS2_PLACEMENT_3D('',#1349,#1080,#1081);
#929=AXIS2_PLACEMENT_3D('',#1350,#1082,#1083);
#930=AXIS2_PLACEMENT_3D('',#1356,#1086,#1087);
#931=AXIS2_PLACEMENT_3D('',#1360,#1089,#1090);
#932=AXIS2_PLACEMENT_3D('',#1364,#1092,#1093);
#933=AXIS2_PLACEMENT_3D('',#1368,#1095,#1096);
#934=AXIS2_PLACEMENT_3D('',#1369,#1097,#1098);
#935=AXIS2_PLACEMENT_3D('',#1371,#1100,#1101);
#936=AXIS2_PLACEMENT_3D('',#1381,#1107,#1108);
#937=AXIS2_PLACEMENT_3D('',#1392,#1117,#1118);
#938=AXIS2_PLACEMENT_3D('',#1393,#1119,#1120);
#939=AXIS2_PLACEMENT_3D('',#1394,#1121,#1122);
#940=AXIS2_PLACEMENT_3D('',#1397,#1124,#1125);
#941=AXIS2_PLACEMENT_3D('',#1398,#1126,#1127);
#942=AXIS2_PLACEMENT_3D('',#1401,#1129,#1130);
#943=AXIS2_PLACEMENT_3D('',#1402,#1131,#1132);
#944=AXIS2_PLACEMENT_3D('',#1403,#1133,#1134);
#945=AXIS2_PLACEMENT_3D('',#1405,#1135,#1136);
#946=AXIS2_PLACEMENT_3D('',#1406,#1137,#1138);
#947=AXIS2_PLACEMENT_3D('',#1407,#1139,#1140);
#948=AXIS2_PLACEMENT_3D('',#1408,#1141,#1142);
#949=AXIS2_PLACEMENT_3D('',#1411,#1145,#1146);
#950=AXIS2_PLACEMENT_3D('',#1413,#1148,#1149);
#951=AXIS2_PLACEMENT_3D('',#1414,#1150,#1151);
#952=AXIS2_PLACEMENT_3D('',#1415,#1152,#1153);
#953=AXIS2_PLACEMENT_3D('',#1416,#1154,#1155);
#954=AXIS2_PLACEMENT_3D('',#1419,#1157,#1158);
#955=AXIS2_PLACEMENT_3D('',#1420,#1159,#1160);
#956=AXIS2_PLACEMENT_3D('',#1423,#1162,#1163);
#957=AXIS2_PLACEMENT_3D('',#1425,#1165,#1166);
#958=AXIS2_PLACEMENT_3D('',#1426,#1167,#1168);
#959=AXIS2_PLACEMENT_3D('',#1427,#1169,#1170);
#960=AXIS2_PLACEMENT_3D('',#1429,#1171,#1172);
#961=AXIS2_PLACEMENT_3D('',#1430,#1173,#1174);
#962=AXIS2_PLACEMENT_3D('',#1432,#1176,#1177);
#963=AXIS2_PLACEMENT_3D('',#1433,#1178,#1179);
#964=AXIS2_PLACEMENT_3D('',#1436,#1182,#1183);
#965=AXIS2_PLACEMENT_3D('',#1438,#1185,#1186);
#966=AXIS2_PLACEMENT_3D('',#1439,#1187,#1188);
#967=AXIS2_PLACEMENT_3D('',#1440,#1189,#1190);
#968=AXIS2_PLACEMENT_3D('',#1451,#1197,#1198);
#969=AXIS2_PLACEMENT_3D('',#1455,#1201,#1202);
#970=AXIS2_PLACEMENT_3D('',#1464,#1208,#1209);
#971=AXIS2_PLACEMENT_3D('',#1466,#1211,#1212);
#972=AXIS2_PLACEMENT_3D('',#1468,#1214,#1215);
#973=AXIS2_PLACEMENT_3D('',#1469,#1216,#1217);
#974=AXIS2_PLACEMENT_3D('',#1471,#1219,#1220);
#975=DIRECTION('',(0.,0.,1.));
#976=DIRECTION('',(1.,0.,0.));
#977=DIRECTION('',(-1.,0.,-5.10212787052002E-16));
#978=DIRECTION('',(-5.10212787052002E-16,0.,1.));
#979=DIRECTION('',(-1.,0.,-5.10212787052002E-16));
#980=DIRECTION('',(-5.10212787052002E-16,0.,1.));
#981=DIRECTION('',(-1.,0.,-7.65319180578004E-16));
#982=DIRECTION('',(-7.65319180578004E-16,0.,1.));
#983=DIRECTION('',(7.10581020254083E-16,-0.371390676354103,-0.92847669088526));
#984=DIRECTION('',(0.,1.,0.));
#985=DIRECTION('',(-5.10212787052002E-16,0.,1.));
#986=DIRECTION('',(-1.,0.,-5.10212787052002E-16));
#987=DIRECTION('',(-5.10212787052002E-16,0.,1.));
#988=DIRECTION('',(-5.10212787052002E-16,0.,1.));
#989=DIRECTION('',(-1.,0.,-7.65319180578004E-16));
#990=DIRECTION('',(-7.65319180578004E-16,0.,1.));
#991=DIRECTION('',(0.,1.,0.));
#992=DIRECTION('',(1.,0.,1.38777878078145E-16));
#993=DIRECTION('',(1.38777878078145E-16,0.,-1.));
#994=DIRECTION('',(-1.,0.,-1.38777878078145E-16));
#995=DIRECTION('',(-1.38777878078145E-16,0.,1.));
#996=DIRECTION('',(-1.,0.,-1.38777878078145E-16));
#997=DIRECTION('',(-1.38777878078145E-16,0.,1.));
#998=DIRECTION('',(-1.,0.,1.38777878078145E-16));
#999=DIRECTION('',(1.38777878078145E-16,0.,1.));
#1000=DIRECTION('',(-1.,0.,1.38777878078145E-16));
#1001=DIRECTION('',(1.38777878078145E-16,0.,1.));
#1002=DIRECTION('',(-1.,0.,1.38777878078145E-16));
#1003=DIRECTION('',(1.38777878078145E-16,0.,1.));
#1004=DIRECTION('',(0.,0.,-1.));
#1005=DIRECTION('',(-1.,0.,0.));
#1006=DIRECTION('',(-1.44560289664734E-16,-1.,0.));
#1007=DIRECTION('',(1.,0.,0.));
#1008=DIRECTION('',(-1.44560289664734E-16,-1.,0.));
#1009=DIRECTION('',(-1.,0.,0.));
#1010=DIRECTION('',(0.,1.,0.));
#1011=DIRECTION('',(-1.,0.,0.));
#1012=DIRECTION('',(0.,1.,0.));
#1013=DIRECTION('',(-1.,0.,0.));
#1014=DIRECTION('',(0.,-1.,0.));
#1015=DIRECTION('',(1.,0.,0.));
#1016=DIRECTION('',(7.65319180578004E-16,0.,1.));
#1017=DIRECTION('',(-1.,0.,-5.10212787052002E-16));
#1018=DIRECTION('',(-8.50354645086671E-17,0.,-1.));
#1019=DIRECTION('',(1.,0.,0.));
#1020=DIRECTION('',(-1.70070929017334E-16,0.,-1.));
#1021=DIRECTION('',(-1.,0.,-5.10212787052002E-16));
#1022=DIRECTION('',(1.,0.,0.));
#1023=DIRECTION('',(-1.38777878078145E-16,0.,-1.));
#1024=DIRECTION('',(-1.,0.,1.38777878078145E-16));
#1025=DIRECTION('',(-1.38777878078145E-16,0.,-1.));
#1026=DIRECTION('',(1.38777878078145E-16,0.,-1.));
#1027=DIRECTION('',(1.,0.,1.38777878078145E-16));
#1028=DIRECTION('',(-1.38777878078145E-16,0.,-1.));
#1029=DIRECTION('',(-1.,0.,0.));
#1030=DIRECTION('',(1.,0.,-1.70070929017334E-16));
#1031=DIRECTION('',(-1.70070929017334E-16,0.,-1.));
#1032=DIRECTION('',(1.,0.,-1.70070929017334E-16));
#1033=DIRECTION('',(-1.70070929017334E-16,0.,-1.));
#1034=DIRECTION('',(-1.70070929017334E-16,0.,-1.));
#1035=DIRECTION('',(1.,0.,-1.70070929017334E-16));
#1036=DIRECTION('',(-1.70070929017334E-16,0.,-1.));
#1037=DIRECTION('',(0.,1.,0.));
#1038=DIRECTION('',(1.,0.,-8.50354645086671E-17));
#1039=DIRECTION('',(-8.50354645086671E-17,0.,-1.));
#1040=DIRECTION('',(1.,0.,-8.50354645086671E-17));
#1041=DIRECTION('',(-8.50354645086671E-17,0.,-1.));
#1042=DIRECTION('',(1.,0.,-8.50354645086671E-17));
#1043=DIRECTION('',(-8.50354645086671E-17,0.,-1.));
#1044=DIRECTION('',(-8.50354645086671E-17,0.,-1.));
#1045=DIRECTION('',(0.,1.,0.));
#1046=DIRECTION('',(-1.,0.,7.65319180578004E-16));
#1047=DIRECTION('',(7.65319180578004E-16,0.,1.));
#1048=DIRECTION('',(-1.,0.,7.65319180578004E-16));
#1049=DIRECTION('',(7.65319180578004E-16,0.,1.));
#1050=DIRECTION('',(-7.10581020254083E-16,-0.371390676354103,-0.92847669088526));
#1051=DIRECTION('',(-1.,0.,7.65319180578004E-16));
#1052=DIRECTION('',(7.65319180578004E-16,0.,1.));
#1053=DIRECTION('',(0.,1.,0.));
#1054=DIRECTION('',(-1.,0.,7.65319180578004E-16));
#1055=DIRECTION('',(7.65319180578004E-16,0.,1.));
#1056=DIRECTION('',(7.65319180578004E-16,0.,1.));
#1057=DIRECTION('',(-1.,0.,7.65319180578004E-16));
#1058=DIRECTION('',(7.65319180578004E-16,0.,1.));
#1059=DIRECTION('',(0.,1.,0.));
#1060=DIRECTION('',(0.,0.,-1.));
#1061=DIRECTION('',(-1.,0.,0.));
#1062=DIRECTION('',(0.,1.,0.));
#1063=DIRECTION('',(-1.,0.,7.65319180578004E-16));
#1064=DIRECTION('',(1.,0.,-1.38777878078145E-16));
#1065=DIRECTION('',(-1.38777878078145E-16,0.,-1.));
#1066=DIRECTION('',(-1.,0.,-1.38777878078145E-16));
#1067=DIRECTION('',(-1.38777878078145E-16,0.,1.));
#1068=DIRECTION('',(0.,-1.,0.));
#1069=DIRECTION('',(1.,0.,-1.38777878078145E-16));
#1070=DIRECTION('',(-1.38777878078145E-16,0.,-1.));
#1071=DIRECTION('',(-1.38777878078145E-16,0.,-1.));
#1072=DIRECTION('',(1.,0.,-1.38777878078145E-16));
#1073=DIRECTION('',(-1.38777878078145E-16,0.,-1.));
#1074=DIRECTION('',(0.,1.,0.));
#1075=DIRECTION('',(1.,0.,-1.38777878078145E-16));
#1076=DIRECTION('',(-1.38777878078145E-16,0.,-1.));
#1077=DIRECTION('',(-1.28852025006074E-16,-0.371390676354103,-0.92847669088526));
#1078=DIRECTION('',(-1.,0.,-1.38777878078145E-16));
#1079=DIRECTION('',(-1.38777878078145E-16,0.,1.));
#1080=DIRECTION('',(1.,0.,-1.38777878078145E-16));
#1081=DIRECTION('',(-1.38777878078145E-16,0.,-1.));
#1082=DIRECTION('',(-1.,0.,1.38777878078145E-16));
#1083=DIRECTION('',(1.38777878078145E-16,0.,1.));
#1084=DIRECTION('',(0.,1.,0.));
#1085=DIRECTION('',(1.28852025006074E-16,-0.371390676354103,-0.92847669088526));
#1086=DIRECTION('',(1.,0.,1.38777878078145E-16));
#1087=DIRECTION('',(1.38777878078145E-16,0.,-1.));
#1088=DIRECTION('',(0.,1.,0.));
#1089=DIRECTION('',(1.,0.,1.38777878078145E-16));
#1090=DIRECTION('',(1.38777878078145E-16,0.,-1.));
#1091=DIRECTION('',(-1.38777878078145E-16,0.,-1.));
#1092=DIRECTION('',(1.,0.,1.38777878078145E-16));
#1093=DIRECTION('',(1.38777878078145E-16,0.,-1.));
#1094=DIRECTION('',(0.,-1.,0.));
#1095=DIRECTION('',(-1.,0.,1.38777878078145E-16));
#1096=DIRECTION('',(1.38777878078145E-16,0.,1.));
#1097=DIRECTION('',(0.,0.,1.));
#1098=DIRECTION('',(1.,0.,0.));
#1099=DIRECTION('',(1.,0.,7.65319180578004E-16));
#1100=DIRECTION('',(0.,0.,1.));
#1101=DIRECTION('',(1.,0.,0.));
#1102=DIRECTION('',(1.,0.,0.));
#1103=DIRECTION('',(0.,-1.,0.));
#1104=DIRECTION('',(-1.,0.,0.));
#1105=DIRECTION('',(0.,1.,0.));
#1106=DIRECTION('',(1.,0.,0.));
#1107=DIRECTION('',(0.,1.,0.));
#1108=DIRECTION('',(-1.,0.,0.));
#1109=DIRECTION('',(-1.,0.,7.65319180578004E-16));
#1110=DIRECTION('',(1.,0.,-1.38777878078145E-16));
#1111=DIRECTION('',(1.38777878078145E-16,0.,-1.));
#1112=DIRECTION('',(-1.38777878078145E-16,0.,-1.));
#1113=DIRECTION('',(-1.,0.,-1.38777878078145E-16));
#1114=DIRECTION('',(1.,0.,7.65319180578004E-16));
#1115=DIRECTION('',(-1.,0.,-5.10212787052002E-16));
#1116=DIRECTION('',(-1.,0.,-5.10212787052002E-16));
#1117=DIRECTION('',(-1.,0.,-5.10212787052002E-16));
#1118=DIRECTION('',(-5.10212787052002E-16,0.,1.));
#1119=DIRECTION('',(-1.,0.,-5.10212787052002E-16));
#1120=DIRECTION('',(-5.10212787052002E-16,0.,1.));
#1121=DIRECTION('',(-1.,0.,1.38777878078145E-16));
#1122=DIRECTION('',(1.38777878078145E-16,0.,1.));
#1123=DIRECTION('',(-1.,0.,-1.38777878078145E-16));
#1124=DIRECTION('',(-1.,0.,1.38777878078145E-16));
#1125=DIRECTION('',(1.38777878078145E-16,0.,1.));
#1126=DIRECTION('',(-1.,0.,1.38777878078145E-16));
#1127=DIRECTION('',(0.,-1.,0.));
#1128=DIRECTION('',(0.,1.,0.));
#1129=DIRECTION('',(1.,0.,-1.38777878078145E-16));
#1130=DIRECTION('',(-1.38777878078145E-16,0.,-1.));
#1131=DIRECTION('',(-1.,0.,1.38777878078145E-16));
#1132=DIRECTION('',(1.38777878078145E-16,0.,1.));
#1133=DIRECTION('',(-1.,0.,1.38777878078145E-16));
#1134=DIRECTION('',(1.38777878078145E-16,0.,1.));
#1135=DIRECTION('',(-1.,0.,1.38777878078145E-16));
#1136=DIRECTION('',(0.,-1.,0.));
#1137=DIRECTION('',(-1.,0.,-5.10212787052002E-16));
#1138=DIRECTION('',(-5.10212787052002E-16,0.,1.));
#1139=DIRECTION('',(-1.,0.,-5.10212787052002E-16));
#1140=DIRECTION('',(-5.10212787052002E-16,0.,1.));
#1141=DIRECTION('',(7.65319180578004E-16,0.,1.));
#1142=DIRECTION('',(1.,0.,-7.65319180578004E-16));
#1143=DIRECTION('',(-1.,5.31018248065057E-32,7.65319180578004E-16));
#1144=DIRECTION('',(-1.,0.,7.65319180578004E-16));
#1145=DIRECTION('',(-2.84232408101633E-16,0.92847669088526,-0.371390676354103));
#1146=DIRECTION('',(0.,0.371390676354103,0.92847669088526));
#1147=DIRECTION('',(-1.,4.93038065763132E-32,7.65319180578004E-16));
#1148=DIRECTION('',(1.,-5.31018248065057E-32,-7.65319180578004E-16));
#1149=DIRECTION('',(-7.65319180578004E-16,0.,-1.));
#1150=DIRECTION('',(-1.,0.,7.65319180578004E-16));
#1151=DIRECTION('',(7.65319180578004E-16,0.,1.));
#1152=DIRECTION('',(1.,0.,1.38777878078145E-16));
#1153=DIRECTION('',(1.38777878078145E-16,0.,-1.));
#1154=DIRECTION('',(-1.,0.,-1.38777878078145E-16));
#1155=DIRECTION('',(-1.38777878078145E-16,0.,1.));
#1156=DIRECTION('',(1.,0.,-1.38777878078145E-16));
#1157=DIRECTION('',(1.,0.,1.38777878078145E-16));
#1158=DIRECTION('',(0.,-1.,0.));
#1159=DIRECTION('',(1.,0.,1.38777878078145E-16));
#1160=DIRECTION('',(1.38777878078145E-16,0.,-1.));
#1161=DIRECTION('',(0.,1.,0.));
#1162=DIRECTION('',(1.38777878078145E-16,0.,1.));
#1163=DIRECTION('',(1.,0.,-1.38777878078145E-16));
#1164=DIRECTION('',(1.,0.,-1.38777878078145E-16));
#1165=DIRECTION('',(-1.,0.,1.38777878078145E-16));
#1166=DIRECTION('',(1.38777878078145E-16,0.,1.));
#1167=DIRECTION('',(1.,0.,1.38777878078145E-16));
#1168=DIRECTION('',(-1.38777878078145E-16,0.,1.));
#1169=DIRECTION('',(-1.,0.,-1.38777878078145E-16));
#1170=DIRECTION('',(-1.38777878078145E-16,0.,1.));
#1171=DIRECTION('',(1.,0.,1.38777878078145E-16));
#1172=DIRECTION('',(0.,-1.,0.));
#1173=DIRECTION('',(1.,0.,1.38777878078145E-16));
#1174=DIRECTION('',(-1.38777878078145E-16,0.,1.));
#1175=DIRECTION('',(-1.,0.,-1.38777878078145E-16));
#1176=DIRECTION('',(-1.38777878078145E-16,0.,1.));
#1177=DIRECTION('',(-1.,0.,-1.38777878078145E-16));
#1178=DIRECTION('',(-7.65319180578004E-16,0.,1.));
#1179=DIRECTION('',(-1.,0.,-7.65319180578004E-16));
#1180=DIRECTION('',(1.,0.,7.65319180578004E-16));
#1181=DIRECTION('',(1.,5.31018248065057E-32,7.65319180578004E-16));
#1182=DIRECTION('',(2.84232408101633E-16,0.92847669088526,-0.371390676354103));
#1183=DIRECTION('',(0.,0.371390676354103,0.92847669088526));
#1184=DIRECTION('',(1.,4.93038065763132E-32,7.65319180578004E-16));
#1185=DIRECTION('',(-1.,-5.31018248065057E-32,-7.65319180578004E-16));
#1186=DIRECTION('',(7.65319180578004E-16,0.,-1.));
#1187=DIRECTION('',(1.,0.,7.65319180578004E-16));
#1188=DIRECTION('',(-7.65319180578004E-16,0.,1.));
#1189=DIRECTION('',(0.,-1.,0.));
#1190=DIRECTION('',(0.,0.,-1.));
#1191=DIRECTION('',(0.,0.,-1.));
#1192=DIRECTION('',(1.,0.,0.));
#1193=DIRECTION('',(0.,0.,1.));
#1194=DIRECTION('',(0.,0.,1.));
#1195=DIRECTION('',(1.,0.,0.));
#1196=DIRECTION('',(0.,0.,-1.));
#1197=DIRECTION('',(1.,0.,0.));
#1198=DIRECTION('',(0.,0.,-1.));
#1199=DIRECTION('',(0.,0.,1.));
#1200=DIRECTION('',(0.,-1.,0.));
#1201=DIRECTION('',(0.,1.,0.));
#1202=DIRECTION('',(0.,0.,1.));
#1203=DIRECTION('',(0.,0.,-1.));
#1204=DIRECTION('',(1.,0.,0.));
#1205=DIRECTION('',(0.,0.,1.));
#1206=DIRECTION('',(1.,0.,0.));
#1207=DIRECTION('',(0.,0.,-1.));
#1208=DIRECTION('',(-1.,0.,0.));
#1209=DIRECTION('',(0.,0.,1.));
#1210=DIRECTION('',(0.,1.,0.));
#1211=DIRECTION('',(1.,-1.44560289664734E-16,0.));
#1212=DIRECTION('',(1.44560289664734E-16,1.,0.));
#1213=DIRECTION('',(-1.44560289664734E-16,-1.,0.));
#1214=DIRECTION('',(0.,0.,-1.));
#1215=DIRECTION('',(1.,0.,0.));
#1216=DIRECTION('',(1.,-1.44560289664734E-16,0.));
#1217=DIRECTION('',(1.44560289664734E-16,1.,0.));
#1218=DIRECTION('',(-1.44560289664734E-16,-1.,0.));
#1219=DIRECTION('',(0.,0.,-1.));
#1220=DIRECTION('',(1.,0.,0.));
#1221=CARTESIAN_POINT('',(0.,0.,0.));
#1222=CARTESIAN_POINT('',(-0.0042,-0.010002,-0.0459));
#1223=CARTESIAN_POINT('',(-0.0042,-0.005,-0.0455));
#1224=CARTESIAN_POINT('',(-0.0042,-0.005,-0.04295));
#1225=CARTESIAN_POINT('',(-0.0042,-0.000830741759643272,-0.04875));
#1226=CARTESIAN_POINT('',(-0.0042,-0.00106286093236459,-0.0486571523309115));
#1227=CARTESIAN_POINT('',(-0.0042,-0.000830741759643272,-0.0485));
#1228=CARTESIAN_POINT('',(-0.0042,-0.0015,-0.04975));
#1229=CARTESIAN_POINT('',(-0.0042,-0.002,-0.051));
#1230=CARTESIAN_POINT('',(-0.0042,-0.010002,-0.051));
#1231=CARTESIAN_POINT('',(-0.0042,-0.01,-0.051));
#1232=CARTESIAN_POINT('',(-0.0042,-0.01,-0.0459));
#1233=CARTESIAN_POINT('',(-0.0042,-0.01,-0.0459));
#1234=CARTESIAN_POINT('',(-0.0042,-0.005,-0.0459));
#1235=CARTESIAN_POINT('',(-0.0042,0.,-0.0459));
#1236=CARTESIAN_POINT('',(-0.0042,0.,-0.0459));
#1237=CARTESIAN_POINT('',(-0.0042,0.,-0.04875));
#1238=CARTESIAN_POINT('',(-0.0042,-0.00025,-0.04875));
#1239=CARTESIAN_POINT('',(-0.0042,-0.00025,-0.0485));
#1240=CARTESIAN_POINT('',(-0.0042,-0.0005,-0.0485));
#1241=CARTESIAN_POINT('',(0.0045,-0.005,-0.081));
#1242=CARTESIAN_POINT('',(0.0045,-0.005,-0.081));
#1243=CARTESIAN_POINT('',(0.0045,-0.005,-0.07695));
#1244=CARTESIAN_POINT('',(0.007,-0.005,-0.081));
#1245=CARTESIAN_POINT('',(0.007,-0.005,-0.07695));
#1246=CARTESIAN_POINT('',(-0.0045,-0.005,-0.081));
#1247=CARTESIAN_POINT('',(-0.0045,-0.005,-0.081));
#1248=CARTESIAN_POINT('',(-0.0045,-0.005,-0.07695));
#1249=CARTESIAN_POINT('',(-0.007,-0.005,-0.081));
#1250=CARTESIAN_POINT('',(-0.007,-0.005,-0.07695));
#1251=CARTESIAN_POINT('',(0.00375,-0.010002,-0.076));
#1252=CARTESIAN_POINT('',(0.0025,-0.005,-0.076));
#1253=CARTESIAN_POINT('',(0.0025,-0.002,-0.076));
#1254=CARTESIAN_POINT('',(0.0025,-0.008,-0.076));
#1255=CARTESIAN_POINT('',(0.00375,-0.002,-0.076));
#1256=CARTESIAN_POINT('',(-0.0025,-0.002,-0.076));
#1257=CARTESIAN_POINT('',(-0.0025,-0.005,-0.076));
#1258=CARTESIAN_POINT('',(-0.0025,-0.008,-0.076));
#1259=CARTESIAN_POINT('',(0.00375,-0.008,-0.076));
#1260=CARTESIAN_POINT('',(0.0045,-0.010002,-0.076));
#1261=CARTESIAN_POINT('',(0.0045,-0.01,-0.076));
#1262=CARTESIAN_POINT('',(0.0045,0.,-0.076));
#1263=CARTESIAN_POINT('',(0.00375,-0.01,-0.076));
#1264=CARTESIAN_POINT('',(-0.0045,-0.01,-0.076));
#1265=CARTESIAN_POINT('',(-0.0045,-0.010002,-0.076));
#1266=CARTESIAN_POINT('',(-0.0045,0.,-0.076));
#1267=CARTESIAN_POINT('',(0.00375,0.,-0.076));
#1268=CARTESIAN_POINT('',(0.,-0.01,0.00375));
#1269=CARTESIAN_POINT('',(0.0042,-0.01,-0.0459));
#1270=CARTESIAN_POINT('',(0.0042,-0.01,-0.051));
#1271=CARTESIAN_POINT('',(0.0042,-0.01,-0.0459));
#1272=CARTESIAN_POINT('',(0.004202,-0.01,-0.0459));
#1273=CARTESIAN_POINT('',(0.002,-0.01,-0.0459));
#1274=CARTESIAN_POINT('',(0.002,-0.01,-0.0459));
#1275=CARTESIAN_POINT('',(0.002,-0.01,-0.051));
#1276=CARTESIAN_POINT('',(-0.001,-0.01,-0.051));
#1277=CARTESIAN_POINT('',(-0.002,-0.01,-0.051));
#1278=CARTESIAN_POINT('',(-0.002,-0.01,-0.0459));
#1279=CARTESIAN_POINT('',(-0.002,-0.01,-0.0459));
#1280=CARTESIAN_POINT('',(0.004202,-0.01,-0.0459));
#1281=CARTESIAN_POINT('',(-0.00585,-0.01,-0.051));
#1282=CARTESIAN_POINT('',(-0.0075,-0.01,-0.051));
#1283=CARTESIAN_POINT('',(-0.0075,-0.01,-0.0635));
#1284=CARTESIAN_POINT('',(-0.0075,-0.01,-0.081));
#1285=CARTESIAN_POINT('',(-0.0045,-0.01,-0.081));
#1286=CARTESIAN_POINT('',(-0.0045,-0.01,-0.081));
#1287=CARTESIAN_POINT('',(-0.0045,-0.01,-0.0785));
#1288=CARTESIAN_POINT('',(0.0045,-0.01,-0.0785));
#1289=CARTESIAN_POINT('',(0.0045,-0.01,-0.081));
#1290=CARTESIAN_POINT('',(0.0045,-0.01,-0.081));
#1291=CARTESIAN_POINT('',(0.0075,-0.01,-0.081));
#1292=CARTESIAN_POINT('',(0.0075,-0.01,-0.0635));
#1293=CARTESIAN_POINT('',(0.0075,-0.01,-0.051));
#1294=CARTESIAN_POINT('',(0.00585,-0.01,-0.051));
#1295=CARTESIAN_POINT('',(-0.002,-0.010002,-0.0459));
#1296=CARTESIAN_POINT('',(-0.002,-0.005,-0.0455));
#1297=CARTESIAN_POINT('',(-0.002,-0.005,-0.04805));
#1298=CARTESIAN_POINT('',(-0.002,0.,-0.0459));
#1299=CARTESIAN_POINT('',(-0.002,0.,-0.0459));
#1300=CARTESIAN_POINT('',(-0.002,0.,-0.051));
#1301=CARTESIAN_POINT('',(-0.002,-0.005,-0.0459));
#1302=CARTESIAN_POINT('',(-0.002,-0.010002,-0.051));
#1303=CARTESIAN_POINT('',(0.002,-0.010002,-0.0459));
#1304=CARTESIAN_POINT('',(0.002,-0.005,-0.0455));
#1305=CARTESIAN_POINT('',(0.002,-0.005,-0.04805));
#1306=CARTESIAN_POINT('',(0.002,-0.005,-0.0459));
#1307=CARTESIAN_POINT('',(0.002,0.,-0.0459));
#1308=CARTESIAN_POINT('',(0.002,0.,-0.0459));
#1309=CARTESIAN_POINT('',(0.002,0.,-0.051));
#1310=CARTESIAN_POINT('',(0.002,-0.010002,-0.051));
#1311=CARTESIAN_POINT('',(0.0042,-0.010002,-0.0459));
#1312=CARTESIAN_POINT('',(0.0042,-0.005,-0.0455));
#1313=CARTESIAN_POINT('',(0.0042,-0.005,-0.04295));
#1314=CARTESIAN_POINT('',(0.0042,-0.0015,-0.04975));
#1315=CARTESIAN_POINT('',(0.0042,-0.00106286093236459,-0.0486571523309115));
#1316=CARTESIAN_POINT('',(0.0042,-0.002,-0.051));
#1317=CARTESIAN_POINT('',(0.0042,-0.000830741759643272,-0.04875));
#1318=CARTESIAN_POINT('',(0.0042,-0.000830741759643272,-0.0485));
#1319=CARTESIAN_POINT('',(0.0042,-0.0005,-0.0485));
#1320=CARTESIAN_POINT('',(0.0042,-0.00025,-0.0485));
#1321=CARTESIAN_POINT('',(0.0042,-0.00025,-0.04875));
#1322=CARTESIAN_POINT('',(0.0042,0.,-0.04875));
#1323=CARTESIAN_POINT('',(0.0042,0.,-0.0459));
#1324=CARTESIAN_POINT('',(0.0042,0.,-0.0459));
#1325=CARTESIAN_POINT('',(0.0042,-0.005,-0.0459));
#1326=CARTESIAN_POINT('',(0.0042,-0.010002,-0.051));
#1327=CARTESIAN_POINT('',(0.00585,-0.010002,-0.051));
#1328=CARTESIAN_POINT('',(0.0075,-0.010002,-0.051));
#1329=CARTESIAN_POINT('',(0.0075,-0.002,-0.051));
#1330=CARTESIAN_POINT('',(0.007502,-0.002,-0.051));
#1331=CARTESIAN_POINT('',(0.0075,-0.010002,-0.0635));
#1332=CARTESIAN_POINT('',(0.0075,-0.005,-0.081));
#1333=CARTESIAN_POINT('',(0.0075,-0.000999999999994267,-0.0839999999999924));
#1334=CARTESIAN_POINT('',(0.0075,-0.000932296703854303,-0.0839999999999924));
#1335=CARTESIAN_POINT('',(0.0075,-0.0002,-0.0839999999999924));
#1336=CARTESIAN_POINT('',(0.0075,-0.0002,-0.0837999999999924));
#1337=CARTESIAN_POINT('',(0.0075,0.,-0.0837999999999924));
#1338=CARTESIAN_POINT('',(0.0075,0.,-0.0635));
#1339=CARTESIAN_POINT('',(0.0075,0.,-0.04875));
#1340=CARTESIAN_POINT('',(0.0075,-0.00025,-0.04875));
#1341=CARTESIAN_POINT('',(0.0075,-0.00025,-0.0485));
#1342=CARTESIAN_POINT('',(0.0075,-0.0005,-0.0485));
#1343=CARTESIAN_POINT('',(0.0075,-0.000830741759643272,-0.0485));
#1344=CARTESIAN_POINT('',(0.0075,-0.000830741759643272,-0.04875));
#1345=CARTESIAN_POINT('',(0.0075,-0.00106286093236459,-0.0486571523309115));
#1346=CARTESIAN_POINT('',(0.0075,-0.0015,-0.04975));
#1347=CARTESIAN_POINT('',(0.0075,-0.005,-0.081));
#1348=CARTESIAN_POINT('',(0.0075,-0.005,-0.0775));
#1349=CARTESIAN_POINT('',(-0.0075,-0.010002,-0.0635));
#1350=CARTESIAN_POINT('',(-0.0075,-0.005,-0.081));
#1351=CARTESIAN_POINT('',(-0.0075,-0.005,-0.0775));
#1352=CARTESIAN_POINT('',(-0.0075,-0.010002,-0.051));
#1353=CARTESIAN_POINT('',(-0.0075,-0.002,-0.051));
#1354=CARTESIAN_POINT('',(-0.0075,-0.0015,-0.04975));
#1355=CARTESIAN_POINT('',(-0.0075,-0.00106286093236459,-0.0486571523309115));
#1356=CARTESIAN_POINT('',(-0.0075,-0.000830741759643272,-0.04875));
#1357=CARTESIAN_POINT('',(-0.0075,-0.000830741759643272,-0.0485));
#1358=CARTESIAN_POINT('',(-0.0075,-0.0005,-0.0485));
#1359=CARTESIAN_POINT('',(-0.0075,-0.00025,-0.0485));
#1360=CARTESIAN_POINT('',(-0.0075,-0.00025,-0.04875));
#1361=CARTESIAN_POINT('',(-0.0075,0.,-0.04875));
#1362=CARTESIAN_POINT('',(-0.0075,0.,-0.0635));
#1363=CARTESIAN_POINT('',(-0.0075,0.,-0.0837999999999924));
#1364=CARTESIAN_POINT('',(-0.0075,-0.0002,-0.0837999999999924));
#1365=CARTESIAN_POINT('',(-0.0075,-0.0002,-0.0839999999999924));
#1366=CARTESIAN_POINT('',(-0.0075,-0.000932296703854303,-0.0839999999999924));
#1367=CARTESIAN_POINT('',(-0.0075,-0.000999999999994267,-0.0839999999999924));
#1368=CARTESIAN_POINT('',(-0.0075,-0.005,-0.081));
#1369=CARTESIAN_POINT('',(-0.00585,-0.010002,-0.051));
#1370=CARTESIAN_POINT('',(-0.007502,-0.002,-0.051));
#1371=CARTESIAN_POINT('',(-0.001,-0.010002,-0.051));
#1372=CARTESIAN_POINT('',(-0.001,-0.008,-0.051));
#1373=CARTESIAN_POINT('',(-0.0015,-0.008,-0.051));
#1374=CARTESIAN_POINT('',(0.0015,-0.008,-0.051));
#1375=CARTESIAN_POINT('',(-0.0015,-0.010002,-0.051));
#1376=CARTESIAN_POINT('',(-0.0015,-0.002,-0.051));
#1377=CARTESIAN_POINT('',(-0.001,-0.002,-0.051));
#1378=CARTESIAN_POINT('',(0.0015,-0.002,-0.051));
#1379=CARTESIAN_POINT('',(0.0015,-0.010002,-0.051));
#1380=CARTESIAN_POINT('',(-0.001,0.,-0.051));
#1381=CARTESIAN_POINT('',(0.,0.,-0.0456009803921568));
#1382=CARTESIAN_POINT('',(-2.41000510589861E-18,0.,-0.04875));
#1383=CARTESIAN_POINT('',(0.0045,0.,-0.0837999999999924));
#1384=CARTESIAN_POINT('',(0.0045,0.,-0.0837999999999924));
#1385=CARTESIAN_POINT('',(0.0045,0.,-0.0785));
#1386=CARTESIAN_POINT('',(-0.0045,0.,-0.0785));
#1387=CARTESIAN_POINT('',(-0.0045,0.,-0.0837999999999924));
#1388=CARTESIAN_POINT('',(-0.0045,0.,-0.0837999999999924));
#1389=CARTESIAN_POINT('',(2.41000510589861E-18,0.,-0.04875));
#1390=CARTESIAN_POINT('',(0.004202,0.,-0.0459));
#1391=CARTESIAN_POINT('',(0.004202,0.,-0.0459));
#1392=CARTESIAN_POINT('',(0.004202,-0.005,-0.0459));
#1393=CARTESIAN_POINT('',(0.004202,-0.005,-0.0459));
#1394=CARTESIAN_POINT('',(-0.0045,-0.005,-0.081));
#1395=CARTESIAN_POINT('',(-0.004498,-0.000999999999994267,-0.0839999999999924));
#1396=CARTESIAN_POINT('',(-0.0045,-0.000999999999994267,-0.0839999999999924));
#1397=CARTESIAN_POINT('',(-0.0045,-0.005,-0.081));
#1398=CARTESIAN_POINT('',(-0.0045,-0.005,-0.0685));
#1399=CARTESIAN_POINT('',(-0.0045,-0.000932296703854303,-0.0839999999999924));
#1400=CARTESIAN_POINT('',(-0.0045,-0.0002,-0.0839999999999924));
#1401=CARTESIAN_POINT('',(-0.0045,-0.0002,-0.0837999999999924));
#1402=CARTESIAN_POINT('',(-0.007,-0.005,-0.081));
#1403=CARTESIAN_POINT('',(-0.007,-0.005,-0.081));
#1404=CARTESIAN_POINT('',(-0.007,-0.005,-0.0775));
#1405=CARTESIAN_POINT('',(-0.007,-0.005,-0.0685));
#1406=CARTESIAN_POINT('',(0.1008833694171,-0.005,-0.0455));
#1407=CARTESIAN_POINT('',(0.1008833694171,-0.005,-0.0455));
#1408=CARTESIAN_POINT('',(0.007502,-0.0005,-0.0485));
#1409=CARTESIAN_POINT('',(0.0075,-0.000830741759643272,-0.0485));
#1410=CARTESIAN_POINT('',(0.007502,-0.00025,-0.0485));
#1411=CARTESIAN_POINT('',(0.007502,-0.0015,-0.04975));
#1412=CARTESIAN_POINT('',(0.0042,-0.00106286093236459,-0.0486571523309115));
#1413=CARTESIAN_POINT('',(0.007502,-0.000830741759643272,-0.04875));
#1414=CARTESIAN_POINT('',(0.007502,-0.00025,-0.04875));
#1415=CARTESIAN_POINT('',(0.0045,-0.005,-0.081));
#1416=CARTESIAN_POINT('',(0.0045,-0.005,-0.081));
#1417=CARTESIAN_POINT('',(0.0045,-0.000999999999994267,-0.0839999999999924));
#1418=CARTESIAN_POINT('',(0.004498,-0.000999999999994267,-0.0839999999999924));
#1419=CARTESIAN_POINT('',(0.0045,-0.005,-0.0685));
#1420=CARTESIAN_POINT('',(0.0045,-0.0002,-0.0837999999999924));
#1421=CARTESIAN_POINT('',(0.0045,-0.0002,-0.0839999999999924));
#1422=CARTESIAN_POINT('',(0.0045,-0.000932296703854303,-0.0839999999999924));
#1423=CARTESIAN_POINT('',(0.004498,-0.000932296703854303,-0.0839999999999924));
#1424=CARTESIAN_POINT('',(0.0075,-0.0002,-0.0839999999999924));
#1425=CARTESIAN_POINT('',(0.004498,-0.0002,-0.0837999999999924));
#1426=CARTESIAN_POINT('',(0.007,-0.005,-0.081));
#1427=CARTESIAN_POINT('',(0.007,-0.005,-0.081));
#1428=CARTESIAN_POINT('',(0.007,-0.005,-0.0775));
#1429=CARTESIAN_POINT('',(0.007,-0.005,-0.0685));
#1430=CARTESIAN_POINT('',(-0.004498,-0.0002,-0.0837999999999924));
#1431=CARTESIAN_POINT('',(-0.0075,-0.0002,-0.0839999999999924));
#1432=CARTESIAN_POINT('',(-0.004498,-0.000932296703854303,-0.0839999999999924));
#1433=CARTESIAN_POINT('',(-0.007502,-0.0005,-0.0485));
#1434=CARTESIAN_POINT('',(-0.007502,-0.00025,-0.0485));
#1435=CARTESIAN_POINT('',(-0.0075,-0.000830741759643272,-0.0485));
#1436=CARTESIAN_POINT('',(-0.007502,-0.0015,-0.04975));
#1437=CARTESIAN_POINT('',(-0.0042,-0.00106286093236459,-0.0486571523309115));
#1438=CARTESIAN_POINT('',(-0.007502,-0.000830741759643272,-0.04875));
#1439=CARTESIAN_POINT('',(-0.007502,-0.00025,-0.04875));
#1440=CARTESIAN_POINT('',(-1.3010426069826E-18,-0.008,-0.1255833694171));
#1441=CARTESIAN_POINT('',(-0.0025,-0.008,-0.053));
#1442=CARTESIAN_POINT('',(-0.0025,-0.008,-0.053));
#1443=CARTESIAN_POINT('',(-2.60208521396521E-18,-0.008,-0.053));
#1444=CARTESIAN_POINT('',(-0.0015,-0.008,-0.053));
#1445=CARTESIAN_POINT('',(-0.0015,-0.008,-0.1255833694171));
#1446=CARTESIAN_POINT('',(0.0015,-0.008,-0.1255833694171));
#1447=CARTESIAN_POINT('',(0.0015,-0.008,-0.053));
#1448=CARTESIAN_POINT('',(-2.60208521396521E-18,-0.008,-0.053));
#1449=CARTESIAN_POINT('',(0.0025,-0.008,-0.053));
#1450=CARTESIAN_POINT('',(0.0025,-0.008,-0.053));
#1451=CARTESIAN_POINT('',(0.0015,-0.005,-0.1255833694171));
#1452=CARTESIAN_POINT('',(0.0015,-0.002,-0.1255833694171));
#1453=CARTESIAN_POINT('',(0.0015,-0.002,-0.053));
#1454=CARTESIAN_POINT('',(0.0015,-0.010002,-0.053));
#1455=CARTESIAN_POINT('',(-1.3010426069826E-18,-0.002,-0.1255833694171));
#1456=CARTESIAN_POINT('',(0.0025,-0.002,-0.053));
#1457=CARTESIAN_POINT('',(0.0025,-0.002,-0.053));
#1458=CARTESIAN_POINT('',(-1.95156391047391E-18,-0.002,-0.053));
#1459=CARTESIAN_POINT('',(-0.0015,-0.002,-0.1255833694171));
#1460=CARTESIAN_POINT('',(-0.0015,-0.002,-0.053));
#1461=CARTESIAN_POINT('',(-1.95156391047391E-18,-0.002,-0.053));
#1462=CARTESIAN_POINT('',(-0.0025,-0.002,-0.053));
#1463=CARTESIAN_POINT('',(-0.0025,-0.002,-0.053));
#1464=CARTESIAN_POINT('',(-0.0015,-0.005,-0.1255833694171));
#1465=CARTESIAN_POINT('',(-0.0015,-0.010002,-0.053));
#1466=CARTESIAN_POINT('',(-0.0025,-0.005,-0.053));
#1467=CARTESIAN_POINT('',(-0.0025,-0.005,-0.053));
#1468=CARTESIAN_POINT('',(0.,-0.005,-0.053));
#1469=CARTESIAN_POINT('',(0.0025,-0.005,-0.053));
#1470=CARTESIAN_POINT('',(0.0025,-0.005,-0.053));
#1471=CARTESIAN_POINT('',(0.,-0.005,-0.053));
#1472=MECHANICAL_DESIGN_GEOMETRIC_PRESENTATION_REPRESENTATION('',(#885),
#1473);
#1473=(
GEOMETRIC_REPRESENTATION_CONTEXT(3)
GLOBAL_UNCERTAINTY_ASSIGNED_CONTEXT((#1474))
GLOBAL_UNIT_ASSIGNED_CONTEXT((#1477,#1476,#1475))
REPRESENTATION_CONTEXT('Bottom_Segment','TOP_LEVEL_ASSEMBLY_PART')
);
#1474=UNCERTAINTY_MEASURE_WITH_UNIT(LENGTH_MEASURE(1.E-8),#1477,
'DISTANCE_ACCURACY_VALUE','Maximum Tolerance applied to model');
#1475=(
NAMED_UNIT(*)
SI_UNIT($,.STERADIAN.)
SOLID_ANGLE_UNIT()
);
#1476=(
NAMED_UNIT(*)
PLANE_ANGLE_UNIT()
SI_UNIT($,.RADIAN.)
);
#1477=(
LENGTH_UNIT()
NAMED_UNIT(*)
SI_UNIT($,.METRE.)
);
#1478=PRODUCT_DEFINITION_SHAPE('','',#1479);
#1479=PRODUCT_DEFINITION('','',#1481,#1480);
#1480=PRODUCT_DEFINITION_CONTEXT('',#1487,'design');
#1481=PRODUCT_DEFINITION_FORMATION_WITH_SPECIFIED_SOURCE('','',#1483,
 .NOT_KNOWN.);
#1482=PRODUCT_RELATED_PRODUCT_CATEGORY('','',(#1483));
#1483=PRODUCT('Bottom_Segment','Bottom_Segment','Bottom_Segment',(#1485));
#1484=PRODUCT_CATEGORY('','');
#1485=PRODUCT_CONTEXT('',#1487,'mechanical');
#1486=APPLICATION_PROTOCOL_DEFINITION('international standard',
'ap242_managed_model_based_3d_engineering',2020,#1487);
#1487=APPLICATION_CONTEXT('managed model based 3d engineering');
ENDSEC;
END-ISO-10303-21;
