ISO-10303-21;
HEADER;
/* Generated by software containing ST-Developer
 * from STEP Tools, Inc. (www.steptools.com) 
 */
/* OPTION: using custom renumber hook */

FILE_DESCRIPTION(
/* description */ ('STEP AP242 Edition 2',
'CAx-IF Rec.Pracs.---Representation and Presentation of Product Manufa
cturing Information (PMI)---4.0---2014-10-13',
'CAx-IF Rec.Pracs.---3D Tessellated Geometry---0.4---2014-09-14','2;1',
'CAx-IF Rec.Pracs.---User Defined Attributes---1.5---2016-08-15'),
/* implementation_level */ '2;1');

FILE_NAME(
/* name */ 'Hand Assembly Left - Middle_Segment',
/* time_stamp */ '2026-06-30T02:49:23Z',
/* author */ (''),
/* organization */ (''),
/* preprocessor_version */ 'ST-DEVELOPER v20',
/* originating_system */ 'ONSHAPE BY PTC INC, 1.217',
/* authorisation */ '  ');

FILE_SCHEMA (('AP242_MANAGED_MODEL_BASED_3D_ENGINEERING_MIM_LF { 1 0 10303 442 3 1 4 }'));
ENDSEC;

DATA;
#10=SHAPE_REPRESENTATION_RELATIONSHIP('','',#1091,#11);
#11=ADVANCED_BREP_SHAPE_REPRESENTATION('',(#1089),#1817);
#12=B_SPLINE_CURVE_WITH_KNOTS('',3,(#1587,#1588,#1589,#1590),
 .UNSPECIFIED.,.F.,.F.,(4,4),(0.,1.),.UNSPECIFIED.);
#13=B_SPLINE_CURVE_WITH_KNOTS('',3,(#1732,#1733,#1734,#1735),
 .UNSPECIFIED.,.F.,.F.,(4,4),(0.00362989198782057,1.),.UNSPECIFIED.);
#14=PLANE('',#1099);
#15=PLANE('',#1110);
#16=PLANE('',#1118);
#17=PLANE('',#1122);
#18=PLANE('',#1125);
#19=PLANE('',#1128);
#20=PLANE('',#1129);
#21=PLANE('',#1130);
#22=PLANE('',#1131);
#23=PLANE('',#1138);
#24=PLANE('',#1145);
#25=PLANE('',#1146);
#26=PLANE('',#1153);
#27=PLANE('',#1158);
#28=PLANE('',#1161);
#29=PLANE('',#1164);
#30=PLANE('',#1165);
#31=PLANE('',#1166);
#32=PLANE('',#1167);
#33=PLANE('',#1168);
#34=PLANE('',#1173);
#35=PLANE('',#1174);
#36=PLANE('',#1175);
#37=PLANE('',#1176);
#38=PLANE('',#1177);
#39=PLANE('',#1178);
#40=PLANE('',#1181);
#41=PLANE('',#1182);
#42=PLANE('',#1185);
#43=PLANE('',#1186);
#44=PLANE('',#1189);
#45=PLANE('',#1190);
#46=PLANE('',#1191);
#47=PLANE('',#1192);
#48=LINE('',#1504,#152);
#49=LINE('',#1508,#153);
#50=LINE('',#1510,#154);
#51=LINE('',#1515,#155);
#52=LINE('',#1521,#156);
#53=LINE('',#1526,#157);
#54=LINE('',#1530,#158);
#55=LINE('',#1534,#159);
#56=LINE('',#1536,#160);
#57=LINE('',#1538,#161);
#58=LINE('',#1542,#162);
#59=LINE('',#1544,#163);
#60=LINE('',#1549,#164);
#61=LINE('',#1550,#165);
#62=LINE('',#1557,#166);
#63=LINE('',#1562,#167);
#64=LINE('',#1566,#168);
#65=LINE('',#1570,#169);
#66=LINE('',#1572,#170);
#67=LINE('',#1574,#171);
#68=LINE('',#1578,#172);
#69=LINE('',#1580,#173);
#70=LINE('',#1591,#174);
#71=LINE('',#1593,#175);
#72=LINE('',#1596,#176);
#73=LINE('',#1598,#177);
#74=LINE('',#1600,#178);
#75=LINE('',#1601,#179);
#76=LINE('',#1604,#180);
#77=LINE('',#1606,#181);
#78=LINE('',#1608,#182);
#79=LINE('',#1617,#183);
#80=LINE('',#1619,#184);
#81=LINE('',#1621,#185);
#82=LINE('',#1625,#186);
#83=LINE('',#1627,#187);
#84=LINE('',#1629,#188);
#85=LINE('',#1631,#189);
#86=LINE('',#1633,#190);
#87=LINE('',#1635,#191);
#88=LINE('',#1637,#192);
#89=LINE('',#1641,#193);
#90=LINE('',#1643,#194);
#91=LINE('',#1647,#195);
#92=LINE('',#1650,#196);
#93=LINE('',#1652,#197);
#94=LINE('',#1653,#198);
#95=LINE('',#1654,#199);
#96=LINE('',#1655,#200);
#97=LINE('',#1657,#201);
#98=LINE('',#1659,#202);
#99=LINE('',#1661,#203);
#100=LINE('',#1662,#204);
#101=LINE('',#1664,#205);
#102=LINE('',#1665,#206);
#103=LINE('',#1666,#207);
#104=LINE('',#1668,#208);
#105=LINE('',#1669,#209);
#106=LINE('',#1670,#210);
#107=LINE('',#1671,#211);
#108=LINE('',#1673,#212);
#109=LINE('',#1675,#213);
#110=LINE('',#1677,#214);
#111=LINE('',#1683,#215);
#112=LINE('',#1687,#216);
#113=LINE('',#1688,#217);
#114=LINE('',#1692,#218);
#115=LINE('',#1698,#219);
#116=LINE('',#1702,#220);
#117=LINE('',#1709,#221);
#118=LINE('',#1713,#222);
#119=LINE('',#1715,#223);
#120=LINE('',#1719,#224);
#121=LINE('',#1721,#225);
#122=LINE('',#1724,#226);
#123=LINE('',#1726,#227);
#124=LINE('',#1728,#228);
#125=LINE('',#1730,#229);
#126=LINE('',#1739,#230);
#127=LINE('',#1743,#231);
#128=LINE('',#1747,#232);
#129=LINE('',#1755,#233);
#130=LINE('',#1761,#234);
#131=LINE('',#1765,#235);
#132=LINE('',#1767,#236);
#133=LINE('',#1769,#237);
#134=LINE('',#1772,#238);
#135=LINE('',#1773,#239);
#136=LINE('',#1775,#240);
#137=LINE('',#1783,#241);
#138=LINE('',#1784,#242);
#139=LINE('',#1788,#243);
#140=LINE('',#1790,#244);
#141=LINE('',#1791,#245);
#142=LINE('',#1795,#246);
#143=LINE('',#1797,#247);
#144=LINE('',#1798,#248);
#145=LINE('',#1802,#249);
#146=LINE('',#1804,#250);
#147=LINE('',#1805,#251);
#148=LINE('',#1809,#252);
#149=LINE('',#1810,#253);
#150=LINE('',#1812,#254);
#151=LINE('',#1814,#255);
#152=VECTOR('',#1199,1.);
#153=VECTOR('',#1202,1.);
#154=VECTOR('',#1205,1.);
#155=VECTOR('',#1208,1.);
#156=VECTOR('',#1215,1.);
#157=VECTOR('',#1218,1.);
#158=VECTOR('',#1221,1.);
#159=VECTOR('',#1224,1.);
#160=VECTOR('',#1225,1.);
#161=VECTOR('',#1226,1.);
#162=VECTOR('',#1229,1.);
#163=VECTOR('',#1230,1.);
#164=VECTOR('',#1235,1.);
#165=VECTOR('',#1236,1.);
#166=VECTOR('',#1245,1.);
#167=VECTOR('',#1248,1.);
#168=VECTOR('',#1251,1.);
#169=VECTOR('',#1254,1.);
#170=VECTOR('',#1255,1.);
#171=VECTOR('',#1256,1.);
#172=VECTOR('',#1259,1.);
#173=VECTOR('',#1260,1.);
#174=VECTOR('',#1267,1.);
#175=VECTOR('',#1270,1.);
#176=VECTOR('',#1271,1.);
#177=VECTOR('',#1272,1.);
#178=VECTOR('',#1273,1.);
#179=VECTOR('',#1274,1.);
#180=VECTOR('',#1275,1.);
#181=VECTOR('',#1276,1.);
#182=VECTOR('',#1277,1.);
#183=VECTOR('',#1288,1.);
#184=VECTOR('',#1289,1.);
#185=VECTOR('',#1290,1.);
#186=VECTOR('',#1293,1.);
#187=VECTOR('',#1294,1.);
#188=VECTOR('',#1295,1.);
#189=VECTOR('',#1298,1.);
#190=VECTOR('',#1299,1.);
#191=VECTOR('',#1300,1.);
#192=VECTOR('',#1301,1.);
#193=VECTOR('',#1304,1.);
#194=VECTOR('',#1305,1.);
#195=VECTOR('',#1310,1.);
#196=VECTOR('',#1311,1.);
#197=VECTOR('',#1312,1.);
#198=VECTOR('',#1313,1.);
#199=VECTOR('',#1314,1.);
#200=VECTOR('',#1315,1.);
#201=VECTOR('',#1316,1.);
#202=VECTOR('',#1317,1.);
#203=VECTOR('',#1318,1.);
#204=VECTOR('',#1319,1.);
#205=VECTOR('',#1322,1.);
#206=VECTOR('',#1323,1.);
#207=VECTOR('',#1324,1.);
#208=VECTOR('',#1325,1.);
#209=VECTOR('',#1326,1.);
#210=VECTOR('',#1327,1.);
#211=VECTOR('',#1328,1.);
#212=VECTOR('',#1329,1.);
#213=VECTOR('',#1332,1.);
#214=VECTOR('',#1333,1.);
#215=VECTOR('',#1340,1.);
#216=VECTOR('',#1343,1.);
#217=VECTOR('',#1344,1.);
#218=VECTOR('',#1347,1.);
#219=VECTOR('',#1354,1.);
#220=VECTOR('',#1357,1.);
#221=VECTOR('',#1364,1.);
#222=VECTOR('',#1367,1.);
#223=VECTOR('',#1368,1.);
#224=VECTOR('',#1373,1.);
#225=VECTOR('',#1376,1.);
#226=VECTOR('',#1377,1.);
#227=VECTOR('',#1378,1.);
#228=VECTOR('',#1379,1.);
#229=VECTOR('',#1382,1.);
#230=VECTOR('',#1391,1.);
#231=VECTOR('',#1396,1.);
#232=VECTOR('',#1399,1.);
#233=VECTOR('',#1410,1.);
#234=VECTOR('',#1417,1.);
#235=VECTOR('',#1420,1.);
#236=VECTOR('',#1423,1.);
#237=VECTOR('',#1426,1.);
#238=VECTOR('',#1431,1.);
#239=VECTOR('',#1432,1.);
#240=VECTOR('',#1435,1.);
#241=VECTOR('',#1448,1.);
#242=VECTOR('',#1449,1.);
#243=VECTOR('',#1456,1.);
#244=VECTOR('',#1459,1.);
#245=VECTOR('',#1460,1.);
#246=VECTOR('',#1467,1.);
#247=VECTOR('',#1470,1.);
#248=VECTOR('',#1471,1.);
#249=VECTOR('',#1478,1.);
#250=VECTOR('',#1481,1.);
#251=VECTOR('',#1482,1.);
#252=VECTOR('',#1489,1.);
#253=VECTOR('',#1490,1.);
#254=VECTOR('',#1493,1.);
#255=VECTOR('',#1496,1.);
#256=ORIENTED_EDGE('',*,*,#556,.F.);
#257=ORIENTED_EDGE('',*,*,#557,.T.);
#258=ORIENTED_EDGE('',*,*,#558,.T.);
#259=ORIENTED_EDGE('',*,*,#559,.T.);
#260=ORIENTED_EDGE('',*,*,#560,.F.);
#261=ORIENTED_EDGE('',*,*,#561,.T.);
#262=ORIENTED_EDGE('',*,*,#562,.F.);
#263=ORIENTED_EDGE('',*,*,#563,.F.);
#264=ORIENTED_EDGE('',*,*,#564,.T.);
#265=ORIENTED_EDGE('',*,*,#565,.F.);
#266=ORIENTED_EDGE('',*,*,#566,.F.);
#267=ORIENTED_EDGE('',*,*,#567,.T.);
#268=ORIENTED_EDGE('',*,*,#568,.F.);
#269=ORIENTED_EDGE('',*,*,#569,.T.);
#270=ORIENTED_EDGE('',*,*,#570,.F.);
#271=ORIENTED_EDGE('',*,*,#571,.F.);
#272=ORIENTED_EDGE('',*,*,#572,.F.);
#273=ORIENTED_EDGE('',*,*,#573,.F.);
#274=ORIENTED_EDGE('',*,*,#574,.F.);
#275=ORIENTED_EDGE('',*,*,#575,.F.);
#276=ORIENTED_EDGE('',*,*,#576,.T.);
#277=ORIENTED_EDGE('',*,*,#577,.T.);
#278=ORIENTED_EDGE('',*,*,#578,.T.);
#279=ORIENTED_EDGE('',*,*,#570,.T.);
#280=ORIENTED_EDGE('',*,*,#579,.T.);
#281=ORIENTED_EDGE('',*,*,#580,.T.);
#282=ORIENTED_EDGE('',*,*,#581,.T.);
#283=ORIENTED_EDGE('',*,*,#582,.T.);
#284=ORIENTED_EDGE('',*,*,#583,.T.);
#285=ORIENTED_EDGE('',*,*,#584,.F.);
#286=ORIENTED_EDGE('',*,*,#585,.T.);
#287=ORIENTED_EDGE('',*,*,#586,.F.);
#288=ORIENTED_EDGE('',*,*,#587,.T.);
#289=ORIENTED_EDGE('',*,*,#588,.T.);
#290=ORIENTED_EDGE('',*,*,#589,.F.);
#291=ORIENTED_EDGE('',*,*,#590,.T.);
#292=ORIENTED_EDGE('',*,*,#591,.T.);
#293=ORIENTED_EDGE('',*,*,#592,.T.);
#294=ORIENTED_EDGE('',*,*,#593,.T.);
#295=ORIENTED_EDGE('',*,*,#594,.F.);
#296=ORIENTED_EDGE('',*,*,#595,.F.);
#297=ORIENTED_EDGE('',*,*,#596,.T.);
#298=ORIENTED_EDGE('',*,*,#591,.F.);
#299=ORIENTED_EDGE('',*,*,#597,.F.);
#300=ORIENTED_EDGE('',*,*,#598,.T.);
#301=ORIENTED_EDGE('',*,*,#599,.T.);
#302=ORIENTED_EDGE('',*,*,#600,.T.);
#303=ORIENTED_EDGE('',*,*,#601,.T.);
#304=ORIENTED_EDGE('',*,*,#602,.F.);
#305=ORIENTED_EDGE('',*,*,#603,.F.);
#306=ORIENTED_EDGE('',*,*,#604,.T.);
#307=ORIENTED_EDGE('',*,*,#605,.T.);
#308=ORIENTED_EDGE('',*,*,#606,.F.);
#309=ORIENTED_EDGE('',*,*,#607,.F.);
#310=ORIENTED_EDGE('',*,*,#608,.T.);
#311=ORIENTED_EDGE('',*,*,#577,.F.);
#312=ORIENTED_EDGE('',*,*,#609,.T.);
#313=ORIENTED_EDGE('',*,*,#610,.F.);
#314=ORIENTED_EDGE('',*,*,#611,.F.);
#315=ORIENTED_EDGE('',*,*,#612,.F.);
#316=ORIENTED_EDGE('',*,*,#613,.T.);
#317=ORIENTED_EDGE('',*,*,#614,.T.);
#318=ORIENTED_EDGE('',*,*,#615,.T.);
#319=ORIENTED_EDGE('',*,*,#616,.F.);
#320=ORIENTED_EDGE('',*,*,#595,.T.);
#321=ORIENTED_EDGE('',*,*,#617,.T.);
#322=ORIENTED_EDGE('',*,*,#618,.T.);
#323=ORIENTED_EDGE('',*,*,#619,.F.);
#324=ORIENTED_EDGE('',*,*,#620,.T.);
#325=ORIENTED_EDGE('',*,*,#621,.F.);
#326=ORIENTED_EDGE('',*,*,#622,.F.);
#327=ORIENTED_EDGE('',*,*,#623,.F.);
#328=ORIENTED_EDGE('',*,*,#624,.T.);
#329=ORIENTED_EDGE('',*,*,#625,.F.);
#330=ORIENTED_EDGE('',*,*,#626,.T.);
#331=ORIENTED_EDGE('',*,*,#584,.T.);
#332=ORIENTED_EDGE('',*,*,#627,.F.);
#333=ORIENTED_EDGE('',*,*,#619,.T.);
#334=ORIENTED_EDGE('',*,*,#628,.F.);
#335=ORIENTED_EDGE('',*,*,#609,.F.);
#336=ORIENTED_EDGE('',*,*,#579,.F.);
#337=ORIENTED_EDGE('',*,*,#569,.F.);
#338=ORIENTED_EDGE('',*,*,#629,.F.);
#339=ORIENTED_EDGE('',*,*,#630,.T.);
#340=ORIENTED_EDGE('',*,*,#631,.F.);
#341=ORIENTED_EDGE('',*,*,#632,.F.);
#342=ORIENTED_EDGE('',*,*,#605,.F.);
#343=ORIENTED_EDGE('',*,*,#633,.T.);
#344=ORIENTED_EDGE('',*,*,#575,.T.);
#345=ORIENTED_EDGE('',*,*,#634,.T.);
#346=ORIENTED_EDGE('',*,*,#611,.T.);
#347=ORIENTED_EDGE('',*,*,#635,.T.);
#348=ORIENTED_EDGE('',*,*,#617,.F.);
#349=ORIENTED_EDGE('',*,*,#597,.T.);
#350=ORIENTED_EDGE('',*,*,#590,.F.);
#351=ORIENTED_EDGE('',*,*,#636,.F.);
#352=ORIENTED_EDGE('',*,*,#637,.T.);
#353=ORIENTED_EDGE('',*,*,#559,.F.);
#354=ORIENTED_EDGE('',*,*,#638,.F.);
#355=ORIENTED_EDGE('',*,*,#603,.T.);
#356=ORIENTED_EDGE('',*,*,#639,.T.);
#357=ORIENTED_EDGE('',*,*,#562,.T.);
#358=ORIENTED_EDGE('',*,*,#640,.F.);
#359=ORIENTED_EDGE('',*,*,#641,.T.);
#360=ORIENTED_EDGE('',*,*,#642,.F.);
#361=ORIENTED_EDGE('',*,*,#643,.F.);
#362=ORIENTED_EDGE('',*,*,#636,.T.);
#363=ORIENTED_EDGE('',*,*,#589,.T.);
#364=ORIENTED_EDGE('',*,*,#625,.T.);
#365=ORIENTED_EDGE('',*,*,#644,.T.);
#366=ORIENTED_EDGE('',*,*,#645,.F.);
#367=ORIENTED_EDGE('',*,*,#646,.F.);
#368=ORIENTED_EDGE('',*,*,#647,.F.);
#369=ORIENTED_EDGE('',*,*,#648,.F.);
#370=ORIENTED_EDGE('',*,*,#556,.T.);
#371=ORIENTED_EDGE('',*,*,#637,.F.);
#372=ORIENTED_EDGE('',*,*,#643,.T.);
#373=ORIENTED_EDGE('',*,*,#649,.T.);
#374=ORIENTED_EDGE('',*,*,#650,.T.);
#375=ORIENTED_EDGE('',*,*,#651,.F.);
#376=ORIENTED_EDGE('',*,*,#652,.T.);
#377=ORIENTED_EDGE('',*,*,#653,.F.);
#378=ORIENTED_EDGE('',*,*,#561,.F.);
#379=ORIENTED_EDGE('',*,*,#654,.T.);
#380=ORIENTED_EDGE('',*,*,#655,.T.);
#381=ORIENTED_EDGE('',*,*,#656,.T.);
#382=ORIENTED_EDGE('',*,*,#657,.T.);
#383=ORIENTED_EDGE('',*,*,#658,.F.);
#384=ORIENTED_EDGE('',*,*,#630,.F.);
#385=ORIENTED_EDGE('',*,*,#659,.F.);
#386=ORIENTED_EDGE('',*,*,#660,.T.);
#387=ORIENTED_EDGE('',*,*,#661,.F.);
#388=ORIENTED_EDGE('',*,*,#662,.F.);
#389=ORIENTED_EDGE('',*,*,#663,.F.);
#390=ORIENTED_EDGE('',*,*,#640,.T.);
#391=ORIENTED_EDGE('',*,*,#664,.T.);
#392=ORIENTED_EDGE('',*,*,#663,.T.);
#393=ORIENTED_EDGE('',*,*,#665,.T.);
#394=ORIENTED_EDGE('',*,*,#576,.F.);
#395=ORIENTED_EDGE('',*,*,#641,.F.);
#396=ORIENTED_EDGE('',*,*,#666,.T.);
#397=ORIENTED_EDGE('',*,*,#667,.T.);
#398=ORIENTED_EDGE('',*,*,#668,.T.);
#399=ORIENTED_EDGE('',*,*,#669,.T.);
#400=ORIENTED_EDGE('',*,*,#635,.F.);
#401=ORIENTED_EDGE('',*,*,#610,.T.);
#402=ORIENTED_EDGE('',*,*,#628,.T.);
#403=ORIENTED_EDGE('',*,*,#618,.F.);
#404=ORIENTED_EDGE('',*,*,#670,.F.);
#405=ORIENTED_EDGE('',*,*,#620,.F.);
#406=ORIENTED_EDGE('',*,*,#627,.T.);
#407=ORIENTED_EDGE('',*,*,#583,.F.);
#408=ORIENTED_EDGE('',*,*,#671,.F.);
#409=ORIENTED_EDGE('',*,*,#612,.T.);
#410=ORIENTED_EDGE('',*,*,#634,.F.);
#411=ORIENTED_EDGE('',*,*,#574,.T.);
#412=ORIENTED_EDGE('',*,*,#623,.T.);
#413=ORIENTED_EDGE('',*,*,#594,.T.);
#414=ORIENTED_EDGE('',*,*,#608,.F.);
#415=ORIENTED_EDGE('',*,*,#564,.F.);
#416=ORIENTED_EDGE('',*,*,#672,.F.);
#417=ORIENTED_EDGE('',*,*,#644,.F.);
#418=ORIENTED_EDGE('',*,*,#624,.F.);
#419=ORIENTED_EDGE('',*,*,#673,.T.);
#420=ORIENTED_EDGE('',*,*,#673,.F.);
#421=ORIENTED_EDGE('',*,*,#633,.F.);
#422=ORIENTED_EDGE('',*,*,#604,.F.);
#423=ORIENTED_EDGE('',*,*,#638,.T.);
#424=ORIENTED_EDGE('',*,*,#558,.F.);
#425=ORIENTED_EDGE('',*,*,#674,.T.);
#426=ORIENTED_EDGE('',*,*,#675,.F.);
#427=ORIENTED_EDGE('',*,*,#676,.T.);
#428=ORIENTED_EDGE('',*,*,#677,.T.);
#429=ORIENTED_EDGE('',*,*,#606,.T.);
#430=ORIENTED_EDGE('',*,*,#678,.F.);
#431=ORIENTED_EDGE('',*,*,#653,.T.);
#432=ORIENTED_EDGE('',*,*,#607,.T.);
#433=ORIENTED_EDGE('',*,*,#678,.T.);
#434=ORIENTED_EDGE('',*,*,#658,.T.);
#435=ORIENTED_EDGE('',*,*,#679,.T.);
#436=ORIENTED_EDGE('',*,*,#680,.F.);
#437=ORIENTED_EDGE('',*,*,#631,.T.);
#438=ORIENTED_EDGE('',*,*,#680,.T.);
#439=ORIENTED_EDGE('',*,*,#681,.F.);
#440=ORIENTED_EDGE('',*,*,#682,.F.);
#441=ORIENTED_EDGE('',*,*,#683,.T.);
#442=ORIENTED_EDGE('',*,*,#684,.F.);
#443=ORIENTED_EDGE('',*,*,#563,.T.);
#444=ORIENTED_EDGE('',*,*,#639,.F.);
#445=ORIENTED_EDGE('',*,*,#602,.T.);
#446=ORIENTED_EDGE('',*,*,#632,.T.);
#447=ORIENTED_EDGE('',*,*,#580,.F.);
#448=ORIENTED_EDGE('',*,*,#596,.F.);
#449=ORIENTED_EDGE('',*,*,#616,.T.);
#450=ORIENTED_EDGE('',*,*,#685,.T.);
#451=ORIENTED_EDGE('',*,*,#592,.F.);
#452=ORIENTED_EDGE('',*,*,#685,.F.);
#453=ORIENTED_EDGE('',*,*,#622,.T.);
#454=ORIENTED_EDGE('',*,*,#686,.T.);
#455=ORIENTED_EDGE('',*,*,#593,.F.);
#456=ORIENTED_EDGE('',*,*,#686,.F.);
#457=ORIENTED_EDGE('',*,*,#621,.T.);
#458=ORIENTED_EDGE('',*,*,#670,.T.);
#459=ORIENTED_EDGE('',*,*,#582,.F.);
#460=ORIENTED_EDGE('',*,*,#651,.T.);
#461=ORIENTED_EDGE('',*,*,#687,.T.);
#462=ORIENTED_EDGE('',*,*,#586,.T.);
#463=ORIENTED_EDGE('',*,*,#688,.T.);
#464=ORIENTED_EDGE('',*,*,#588,.F.);
#465=ORIENTED_EDGE('',*,*,#689,.T.);
#466=ORIENTED_EDGE('',*,*,#649,.F.);
#467=ORIENTED_EDGE('',*,*,#642,.T.);
#468=ORIENTED_EDGE('',*,*,#650,.F.);
#469=ORIENTED_EDGE('',*,*,#689,.F.);
#470=ORIENTED_EDGE('',*,*,#587,.F.);
#471=ORIENTED_EDGE('',*,*,#687,.F.);
#472=ORIENTED_EDGE('',*,*,#652,.F.);
#473=ORIENTED_EDGE('',*,*,#688,.F.);
#474=ORIENTED_EDGE('',*,*,#585,.F.);
#475=ORIENTED_EDGE('',*,*,#626,.F.);
#476=ORIENTED_EDGE('',*,*,#690,.T.);
#477=ORIENTED_EDGE('',*,*,#664,.F.);
#478=ORIENTED_EDGE('',*,*,#581,.F.);
#479=ORIENTED_EDGE('',*,*,#690,.F.);
#480=ORIENTED_EDGE('',*,*,#691,.T.);
#481=ORIENTED_EDGE('',*,*,#572,.T.);
#482=ORIENTED_EDGE('',*,*,#692,.F.);
#483=ORIENTED_EDGE('',*,*,#614,.F.);
#484=ORIENTED_EDGE('',*,*,#692,.T.);
#485=ORIENTED_EDGE('',*,*,#571,.T.);
#486=ORIENTED_EDGE('',*,*,#578,.F.);
#487=ORIENTED_EDGE('',*,*,#615,.F.);
#488=ORIENTED_EDGE('',*,*,#671,.T.);
#489=ORIENTED_EDGE('',*,*,#573,.T.);
#490=ORIENTED_EDGE('',*,*,#691,.F.);
#491=ORIENTED_EDGE('',*,*,#613,.F.);
#492=ORIENTED_EDGE('',*,*,#565,.T.);
#493=ORIENTED_EDGE('',*,*,#665,.F.);
#494=ORIENTED_EDGE('',*,*,#662,.T.);
#495=ORIENTED_EDGE('',*,*,#693,.F.);
#496=ORIENTED_EDGE('',*,*,#660,.F.);
#497=ORIENTED_EDGE('',*,*,#694,.F.);
#498=ORIENTED_EDGE('',*,*,#567,.F.);
#499=ORIENTED_EDGE('',*,*,#695,.F.);
#500=ORIENTED_EDGE('',*,*,#661,.T.);
#501=ORIENTED_EDGE('',*,*,#695,.T.);
#502=ORIENTED_EDGE('',*,*,#566,.T.);
#503=ORIENTED_EDGE('',*,*,#693,.T.);
#504=ORIENTED_EDGE('',*,*,#659,.T.);
#505=ORIENTED_EDGE('',*,*,#629,.T.);
#506=ORIENTED_EDGE('',*,*,#568,.T.);
#507=ORIENTED_EDGE('',*,*,#694,.T.);
#508=ORIENTED_EDGE('',*,*,#684,.T.);
#509=ORIENTED_EDGE('',*,*,#696,.T.);
#510=ORIENTED_EDGE('',*,*,#654,.F.);
#511=ORIENTED_EDGE('',*,*,#560,.T.);
#512=ORIENTED_EDGE('',*,*,#656,.F.);
#513=ORIENTED_EDGE('',*,*,#697,.T.);
#514=ORIENTED_EDGE('',*,*,#682,.T.);
#515=ORIENTED_EDGE('',*,*,#698,.F.);
#516=ORIENTED_EDGE('',*,*,#657,.F.);
#517=ORIENTED_EDGE('',*,*,#698,.T.);
#518=ORIENTED_EDGE('',*,*,#681,.T.);
#519=ORIENTED_EDGE('',*,*,#679,.F.);
#520=ORIENTED_EDGE('',*,*,#655,.F.);
#521=ORIENTED_EDGE('',*,*,#696,.F.);
#522=ORIENTED_EDGE('',*,*,#683,.F.);
#523=ORIENTED_EDGE('',*,*,#697,.F.);
#524=ORIENTED_EDGE('',*,*,#674,.F.);
#525=ORIENTED_EDGE('',*,*,#557,.F.);
#526=ORIENTED_EDGE('',*,*,#648,.T.);
#527=ORIENTED_EDGE('',*,*,#699,.F.);
#528=ORIENTED_EDGE('',*,*,#646,.T.);
#529=ORIENTED_EDGE('',*,*,#700,.T.);
#530=ORIENTED_EDGE('',*,*,#676,.F.);
#531=ORIENTED_EDGE('',*,*,#701,.F.);
#532=ORIENTED_EDGE('',*,*,#645,.T.);
#533=ORIENTED_EDGE('',*,*,#672,.T.);
#534=ORIENTED_EDGE('',*,*,#677,.F.);
#535=ORIENTED_EDGE('',*,*,#700,.F.);
#536=ORIENTED_EDGE('',*,*,#647,.T.);
#537=ORIENTED_EDGE('',*,*,#701,.T.);
#538=ORIENTED_EDGE('',*,*,#675,.T.);
#539=ORIENTED_EDGE('',*,*,#699,.T.);
#540=ORIENTED_EDGE('',*,*,#702,.T.);
#541=ORIENTED_EDGE('',*,*,#667,.F.);
#542=ORIENTED_EDGE('',*,*,#703,.F.);
#543=ORIENTED_EDGE('',*,*,#599,.F.);
#544=ORIENTED_EDGE('',*,*,#703,.T.);
#545=ORIENTED_EDGE('',*,*,#666,.F.);
#546=ORIENTED_EDGE('',*,*,#704,.F.);
#547=ORIENTED_EDGE('',*,*,#600,.F.);
#548=ORIENTED_EDGE('',*,*,#704,.T.);
#549=ORIENTED_EDGE('',*,*,#669,.F.);
#550=ORIENTED_EDGE('',*,*,#705,.F.);
#551=ORIENTED_EDGE('',*,*,#601,.F.);
#552=ORIENTED_EDGE('',*,*,#705,.T.);
#553=ORIENTED_EDGE('',*,*,#668,.F.);
#554=ORIENTED_EDGE('',*,*,#702,.F.);
#555=ORIENTED_EDGE('',*,*,#598,.F.);
#556=EDGE_CURVE('',#706,#707,#810,.T.);
#557=EDGE_CURVE('',#706,#708,#48,.T.);
#558=EDGE_CURVE('',#708,#709,#811,.T.);
#559=EDGE_CURVE('',#709,#707,#49,.T.);
#560=EDGE_CURVE('',#710,#711,#50,.T.);
#561=EDGE_CURVE('',#710,#712,#812,.T.);
#562=EDGE_CURVE('',#713,#712,#51,.T.);
#563=EDGE_CURVE('',#711,#713,#813,.T.);
#564=EDGE_CURVE('',#714,#714,#814,.T.);
#565=EDGE_CURVE('',#715,#716,#52,.T.);
#566=EDGE_CURVE('',#717,#715,#815,.F.);
#567=EDGE_CURVE('',#717,#718,#53,.T.);
#568=EDGE_CURVE('',#719,#718,#816,.F.);
#569=EDGE_CURVE('',#719,#720,#54,.T.);
#570=EDGE_CURVE('',#721,#720,#817,.T.);
#571=EDGE_CURVE('',#722,#721,#55,.T.);
#572=EDGE_CURVE('',#723,#722,#56,.T.);
#573=EDGE_CURVE('',#724,#723,#57,.T.);
#574=EDGE_CURVE('',#725,#724,#818,.T.);
#575=EDGE_CURVE('',#726,#725,#58,.T.);
#576=EDGE_CURVE('',#726,#716,#59,.T.);
#577=EDGE_CURVE('',#727,#728,#819,.T.);
#578=EDGE_CURVE('',#728,#721,#60,.T.);
#579=EDGE_CURVE('',#720,#727,#61,.T.);
#580=EDGE_CURVE('',#729,#729,#820,.T.);
#581=EDGE_CURVE('',#730,#730,#821,.F.);
#582=EDGE_CURVE('',#731,#732,#62,.T.);
#583=EDGE_CURVE('',#732,#733,#822,.T.);
#584=EDGE_CURVE('',#734,#733,#63,.T.);
#585=EDGE_CURVE('',#734,#735,#823,.F.);
#586=EDGE_CURVE('',#736,#735,#64,.T.);
#587=EDGE_CURVE('',#736,#737,#824,.F.);
#588=EDGE_CURVE('',#737,#738,#65,.T.);
#589=EDGE_CURVE('',#739,#738,#66,.T.);
#590=EDGE_CURVE('',#739,#740,#67,.T.);
#591=EDGE_CURVE('',#740,#741,#825,.T.);
#592=EDGE_CURVE('',#741,#742,#68,.T.);
#593=EDGE_CURVE('',#742,#731,#69,.T.);
#594=EDGE_CURVE('',#743,#743,#826,.T.);
#595=EDGE_CURVE('',#744,#745,#827,.T.);
#596=EDGE_CURVE('',#744,#741,#12,.T.);
#597=EDGE_CURVE('',#745,#740,#70,.T.);
#598=EDGE_CURVE('',#746,#747,#71,.T.);
#599=EDGE_CURVE('',#747,#748,#72,.T.);
#600=EDGE_CURVE('',#748,#749,#73,.T.);
#601=EDGE_CURVE('',#749,#746,#74,.T.);
#602=EDGE_CURVE('',#750,#751,#75,.T.);
#603=EDGE_CURVE('',#752,#750,#76,.T.);
#604=EDGE_CURVE('',#752,#753,#77,.T.);
#605=EDGE_CURVE('',#753,#751,#78,.T.);
#606=EDGE_CURVE('',#754,#754,#828,.T.);
#607=EDGE_CURVE('',#755,#755,#829,.F.);
#608=EDGE_CURVE('',#756,#756,#830,.T.);
#609=EDGE_CURVE('',#727,#757,#79,.T.);
#610=EDGE_CURVE('',#758,#757,#80,.T.);
#611=EDGE_CURVE('',#759,#758,#81,.T.);
#612=EDGE_CURVE('',#760,#759,#831,.T.);
#613=EDGE_CURVE('',#760,#761,#82,.T.);
#614=EDGE_CURVE('',#761,#762,#83,.T.);
#615=EDGE_CURVE('',#762,#728,#84,.T.);
#616=EDGE_CURVE('',#744,#763,#85,.T.);
#617=EDGE_CURVE('',#745,#764,#86,.T.);
#618=EDGE_CURVE('',#764,#765,#87,.T.);
#619=EDGE_CURVE('',#766,#765,#88,.T.);
#620=EDGE_CURVE('',#766,#767,#832,.T.);
#621=EDGE_CURVE('',#768,#767,#89,.T.);
#622=EDGE_CURVE('',#763,#768,#90,.T.);
#623=EDGE_CURVE('',#769,#769,#833,.T.);
#624=EDGE_CURVE('',#770,#771,#91,.T.);
#625=EDGE_CURVE('',#772,#771,#92,.T.);
#626=EDGE_CURVE('',#772,#734,#93,.T.);
#627=EDGE_CURVE('',#766,#733,#94,.T.);
#628=EDGE_CURVE('',#757,#765,#95,.T.);
#629=EDGE_CURVE('',#773,#719,#96,.T.);
#630=EDGE_CURVE('',#773,#774,#97,.T.);
#631=EDGE_CURVE('',#775,#774,#98,.T.);
#632=EDGE_CURVE('',#751,#775,#99,.T.);
#633=EDGE_CURVE('',#753,#770,#100,.T.);
#634=EDGE_CURVE('',#725,#759,#101,.T.);
#635=EDGE_CURVE('',#758,#764,#102,.T.);
#636=EDGE_CURVE('',#776,#739,#103,.T.);
#637=EDGE_CURVE('',#776,#707,#104,.T.);
#638=EDGE_CURVE('',#752,#709,#105,.T.);
#639=EDGE_CURVE('',#750,#713,#106,.T.);
#640=EDGE_CURVE('',#777,#712,#107,.T.);
#641=EDGE_CURVE('',#777,#726,#108,.T.);
#642=EDGE_CURVE('',#778,#738,#109,.T.);
#643=EDGE_CURVE('',#776,#778,#110,.T.);
#644=EDGE_CURVE('',#771,#779,#834,.T.);
#645=EDGE_CURVE('',#780,#779,#835,.T.);
#646=EDGE_CURVE('',#781,#780,#111,.T.);
#647=EDGE_CURVE('',#782,#781,#836,.T.);
#648=EDGE_CURVE('',#706,#782,#112,.T.);
#649=EDGE_CURVE('',#778,#783,#113,.T.);
#650=EDGE_CURVE('',#783,#784,#837,.F.);
#651=EDGE_CURVE('',#785,#784,#114,.T.);
#652=EDGE_CURVE('',#785,#772,#838,.F.);
#653=EDGE_CURVE('',#786,#786,#839,.T.);
#654=EDGE_CURVE('',#710,#787,#115,.T.);
#655=EDGE_CURVE('',#787,#788,#840,.T.);
#656=EDGE_CURVE('',#788,#789,#116,.T.);
#657=EDGE_CURVE('',#789,#790,#841,.T.);
#658=EDGE_CURVE('',#774,#790,#842,.T.);
#659=EDGE_CURVE('',#791,#773,#843,.F.);
#660=EDGE_CURVE('',#791,#792,#117,.T.);
#661=EDGE_CURVE('',#793,#792,#844,.F.);
#662=EDGE_CURVE('',#794,#793,#118,.T.);
#663=EDGE_CURVE('',#777,#794,#119,.T.);
#664=EDGE_CURVE('',#795,#795,#845,.T.);
#665=EDGE_CURVE('',#794,#716,#120,.T.);
#666=EDGE_CURVE('',#796,#797,#121,.T.);
#667=EDGE_CURVE('',#797,#798,#122,.T.);
#668=EDGE_CURVE('',#798,#799,#123,.T.);
#669=EDGE_CURVE('',#799,#796,#124,.T.);
#670=EDGE_CURVE('',#767,#732,#125,.T.);
#671=EDGE_CURVE('',#760,#724,#13,.T.);
#672=EDGE_CURVE('',#779,#800,#126,.T.);
#673=EDGE_CURVE('',#770,#800,#846,.T.);
#674=EDGE_CURVE('',#708,#801,#127,.T.);
#675=EDGE_CURVE('',#802,#801,#847,.F.);
#676=EDGE_CURVE('',#802,#803,#128,.T.);
#677=EDGE_CURVE('',#803,#800,#848,.F.);
#678=EDGE_CURVE('',#804,#804,#849,.T.);
#679=EDGE_CURVE('',#790,#805,#129,.T.);
#680=EDGE_CURVE('',#775,#805,#850,.T.);
#681=EDGE_CURVE('',#806,#805,#851,.F.);
#682=EDGE_CURVE('',#807,#806,#130,.T.);
#683=EDGE_CURVE('',#807,#808,#852,.F.);
#684=EDGE_CURVE('',#711,#808,#131,.T.);
#685=EDGE_CURVE('',#763,#742,#132,.T.);
#686=EDGE_CURVE('',#768,#731,#133,.T.);
#687=EDGE_CURVE('',#784,#736,#134,.T.);
#688=EDGE_CURVE('',#735,#785,#135,.F.);
#689=EDGE_CURVE('',#737,#783,#136,.F.);
#690=EDGE_CURVE('',#809,#809,#853,.T.);
#691=EDGE_CURVE('',#761,#723,#137,.T.);
#692=EDGE_CURVE('',#762,#722,#138,.T.);
#693=EDGE_CURVE('',#715,#793,#139,.F.);
#694=EDGE_CURVE('',#718,#791,#140,.F.);
#695=EDGE_CURVE('',#792,#717,#141,.T.);
#696=EDGE_CURVE('',#808,#787,#142,.F.);
#697=EDGE_CURVE('',#788,#807,#143,.T.);
#698=EDGE_CURVE('',#789,#806,#144,.T.);
#699=EDGE_CURVE('',#801,#782,#145,.F.);
#700=EDGE_CURVE('',#780,#803,#146,.T.);
#701=EDGE_CURVE('',#781,#802,#147,.T.);
#702=EDGE_CURVE('',#747,#798,#148,.T.);
#703=EDGE_CURVE('',#748,#797,#149,.T.);
#704=EDGE_CURVE('',#749,#796,#150,.T.);
#705=EDGE_CURVE('',#746,#799,#151,.T.);
#706=VERTEX_POINT('',#1502);
#707=VERTEX_POINT('',#1503);
#708=VERTEX_POINT('',#1505);
#709=VERTEX_POINT('',#1507);
#710=VERTEX_POINT('',#1511);
#711=VERTEX_POINT('',#1512);
#712=VERTEX_POINT('',#1514);
#713=VERTEX_POINT('',#1516);
#714=VERTEX_POINT('',#1520);
#715=VERTEX_POINT('',#1522);
#716=VERTEX_POINT('',#1523);
#717=VERTEX_POINT('',#1525);
#718=VERTEX_POINT('',#1527);
#719=VERTEX_POINT('',#1529);
#720=VERTEX_POINT('',#1531);
#721=VERTEX_POINT('',#1533);
#722=VERTEX_POINT('',#1535);
#723=VERTEX_POINT('',#1537);
#724=VERTEX_POINT('',#1539);
#725=VERTEX_POINT('',#1541);
#726=VERTEX_POINT('',#1543);
#727=VERTEX_POINT('',#1547);
#728=VERTEX_POINT('',#1548);
#729=VERTEX_POINT('',#1553);
#730=VERTEX_POINT('',#1555);
#731=VERTEX_POINT('',#1558);
#732=VERTEX_POINT('',#1559);
#733=VERTEX_POINT('',#1561);
#734=VERTEX_POINT('',#1563);
#735=VERTEX_POINT('',#1565);
#736=VERTEX_POINT('',#1567);
#737=VERTEX_POINT('',#1569);
#738=VERTEX_POINT('',#1571);
#739=VERTEX_POINT('',#1573);
#740=VERTEX_POINT('',#1575);
#741=VERTEX_POINT('',#1577);
#742=VERTEX_POINT('',#1579);
#743=VERTEX_POINT('',#1582);
#744=VERTEX_POINT('',#1585);
#745=VERTEX_POINT('',#1586);
#746=VERTEX_POINT('',#1594);
#747=VERTEX_POINT('',#1595);
#748=VERTEX_POINT('',#1597);
#749=VERTEX_POINT('',#1599);
#750=VERTEX_POINT('',#1602);
#751=VERTEX_POINT('',#1603);
#752=VERTEX_POINT('',#1605);
#753=VERTEX_POINT('',#1607);
#754=VERTEX_POINT('',#1611);
#755=VERTEX_POINT('',#1613);
#756=VERTEX_POINT('',#1616);
#757=VERTEX_POINT('',#1618);
#758=VERTEX_POINT('',#1620);
#759=VERTEX_POINT('',#1622);
#760=VERTEX_POINT('',#1624);
#761=VERTEX_POINT('',#1626);
#762=VERTEX_POINT('',#1628);
#763=VERTEX_POINT('',#1632);
#764=VERTEX_POINT('',#1634);
#765=VERTEX_POINT('',#1636);
#766=VERTEX_POINT('',#1638);
#767=VERTEX_POINT('',#1640);
#768=VERTEX_POINT('',#1642);
#769=VERTEX_POINT('',#1645);
#770=VERTEX_POINT('',#1648);
#771=VERTEX_POINT('',#1649);
#772=VERTEX_POINT('',#1651);
#773=VERTEX_POINT('',#1656);
#774=VERTEX_POINT('',#1658);
#775=VERTEX_POINT('',#1660);
#776=VERTEX_POINT('',#1667);
#777=VERTEX_POINT('',#1672);
#778=VERTEX_POINT('',#1676);
#779=VERTEX_POINT('',#1680);
#780=VERTEX_POINT('',#1682);
#781=VERTEX_POINT('',#1684);
#782=VERTEX_POINT('',#1686);
#783=VERTEX_POINT('',#1689);
#784=VERTEX_POINT('',#1691);
#785=VERTEX_POINT('',#1693);
#786=VERTEX_POINT('',#1696);
#787=VERTEX_POINT('',#1699);
#788=VERTEX_POINT('',#1701);
#789=VERTEX_POINT('',#1703);
#790=VERTEX_POINT('',#1705);
#791=VERTEX_POINT('',#1708);
#792=VERTEX_POINT('',#1710);
#793=VERTEX_POINT('',#1712);
#794=VERTEX_POINT('',#1714);
#795=VERTEX_POINT('',#1717);
#796=VERTEX_POINT('',#1722);
#797=VERTEX_POINT('',#1723);
#798=VERTEX_POINT('',#1725);
#799=VERTEX_POINT('',#1727);
#800=VERTEX_POINT('',#1740);
#801=VERTEX_POINT('',#1744);
#802=VERTEX_POINT('',#1746);
#803=VERTEX_POINT('',#1748);
#804=VERTEX_POINT('',#1752);
#805=VERTEX_POINT('',#1756);
#806=VERTEX_POINT('',#1760);
#807=VERTEX_POINT('',#1762);
#808=VERTEX_POINT('',#1764);
#809=VERTEX_POINT('',#1780);
#810=CIRCLE('',#1094,0.005);
#811=CIRCLE('',#1095,0.005);
#812=CIRCLE('',#1097,0.005);
#813=CIRCLE('',#1098,0.005);
#814=CIRCLE('',#1100,0.00255);
#815=CIRCLE('',#1101,0.00025);
#816=CIRCLE('',#1102,0.00025);
#817=CIRCLE('',#1103,0.00500098039215686);
#818=CIRCLE('',#1104,0.00500098039215686);
#819=CIRCLE('',#1106,0.00500098039215686);
#820=CIRCLE('',#1108,0.00405);
#821=CIRCLE('',#1109,0.00405);
#822=CIRCLE('',#1111,0.00500098039215686);
#823=CIRCLE('',#1112,0.00025);
#824=CIRCLE('',#1113,0.00025);
#825=CIRCLE('',#1114,0.00500098039215686);
#826=CIRCLE('',#1115,0.00255);
#827=CIRCLE('',#1117,0.00500098039215686);
#828=CIRCLE('',#1120,0.00405);
#829=CIRCLE('',#1121,0.00405);
#830=CIRCLE('',#1123,0.00255);
#831=CIRCLE('',#1124,0.00500098039215686);
#832=CIRCLE('',#1126,0.00500098039215686);
#833=CIRCLE('',#1127,0.00255);
#834=CIRCLE('',#1132,0.005);
#835=CIRCLE('',#1133,0.005);
#836=CIRCLE('',#1134,0.00025);
#837=CIRCLE('',#1135,0.00025);
#838=CIRCLE('',#1136,0.00025);
#839=CIRCLE('',#1137,0.0035);
#840=CIRCLE('',#1139,0.00025);
#841=CIRCLE('',#1140,0.005);
#842=CIRCLE('',#1141,0.005);
#843=CIRCLE('',#1142,0.00025);
#844=CIRCLE('',#1143,0.00025);
#845=CIRCLE('',#1144,0.0035);
#846=CIRCLE('',#1152,0.005);
#847=CIRCLE('',#1154,0.00025);
#848=CIRCLE('',#1155,0.005);
#849=CIRCLE('',#1157,0.0035);
#850=CIRCLE('',#1160,0.005);
#851=CIRCLE('',#1162,0.005);
#852=CIRCLE('',#1163,0.00025);
#853=CIRCLE('',#1172,0.0035);
#854=EDGE_LOOP('',(#256,#257,#258,#259));
#855=EDGE_LOOP('',(#260,#261,#262,#263));
#856=EDGE_LOOP('',(#264));
#857=EDGE_LOOP('',(#265,#266,#267,#268,#269,#270,#271,#272,#273,#274,#275,
#276));
#858=EDGE_LOOP('',(#277,#278,#279,#280));
#859=EDGE_LOOP('',(#281));
#860=EDGE_LOOP('',(#282));
#861=EDGE_LOOP('',(#283,#284,#285,#286,#287,#288,#289,#290,#291,#292,#293,
#294));
#862=EDGE_LOOP('',(#295));
#863=EDGE_LOOP('',(#296,#297,#298,#299));
#864=EDGE_LOOP('',(#300,#301,#302,#303));
#865=EDGE_LOOP('',(#304,#305,#306,#307));
#866=EDGE_LOOP('',(#308));
#867=EDGE_LOOP('',(#309));
#868=EDGE_LOOP('',(#310));
#869=EDGE_LOOP('',(#311,#312,#313,#314,#315,#316,#317,#318));
#870=EDGE_LOOP('',(#319,#320,#321,#322,#323,#324,#325,#326));
#871=EDGE_LOOP('',(#327));
#872=EDGE_LOOP('',(#328,#329,#330,#331,#332,#333,#334,#335,#336,#337,#338,
#339,#340,#341,#342,#343));
#873=EDGE_LOOP('',(#344,#345,#346,#347,#348,#349,#350,#351,#352,#353,#354,
#355,#356,#357,#358,#359));
#874=EDGE_LOOP('',(#360,#361,#362,#363));
#875=EDGE_LOOP('',(#364,#365,#366,#367,#368,#369,#370,#371,#372,#373,#374,
#375,#376));
#876=EDGE_LOOP('',(#377));
#877=EDGE_LOOP('',(#378,#379,#380,#381,#382,#383,#384,#385,#386,#387,#388,
#389,#390));
#878=EDGE_LOOP('',(#391));
#879=EDGE_LOOP('',(#392,#393,#394,#395));
#880=EDGE_LOOP('',(#396,#397,#398,#399));
#881=EDGE_LOOP('',(#400,#401,#402,#403));
#882=EDGE_LOOP('',(#404,#405,#406,#407));
#883=EDGE_LOOP('',(#408,#409,#410,#411));
#884=EDGE_LOOP('',(#412));
#885=EDGE_LOOP('',(#413));
#886=EDGE_LOOP('',(#414));
#887=EDGE_LOOP('',(#415));
#888=EDGE_LOOP('',(#416,#417,#418,#419));
#889=EDGE_LOOP('',(#420,#421,#422,#423,#424,#425,#426,#427,#428));
#890=EDGE_LOOP('',(#429));
#891=EDGE_LOOP('',(#430));
#892=EDGE_LOOP('',(#431));
#893=EDGE_LOOP('',(#432));
#894=EDGE_LOOP('',(#433));
#895=EDGE_LOOP('',(#434,#435,#436,#437));
#896=EDGE_LOOP('',(#438,#439,#440,#441,#442,#443,#444,#445,#446));
#897=EDGE_LOOP('',(#447));
#898=EDGE_LOOP('',(#448,#449,#450,#451));
#899=EDGE_LOOP('',(#452,#453,#454,#455));
#900=EDGE_LOOP('',(#456,#457,#458,#459));
#901=EDGE_LOOP('',(#460,#461,#462,#463));
#902=EDGE_LOOP('',(#464,#465,#466,#467));
#903=EDGE_LOOP('',(#468,#469,#470,#471));
#904=EDGE_LOOP('',(#472,#473,#474,#475));
#905=EDGE_LOOP('',(#476));
#906=EDGE_LOOP('',(#477));
#907=EDGE_LOOP('',(#478));
#908=EDGE_LOOP('',(#479));
#909=EDGE_LOOP('',(#480,#481,#482,#483));
#910=EDGE_LOOP('',(#484,#485,#486,#487));
#911=EDGE_LOOP('',(#488,#489,#490,#491));
#912=EDGE_LOOP('',(#492,#493,#494,#495));
#913=EDGE_LOOP('',(#496,#497,#498,#499));
#914=EDGE_LOOP('',(#500,#501,#502,#503));
#915=EDGE_LOOP('',(#504,#505,#506,#507));
#916=EDGE_LOOP('',(#508,#509,#510,#511));
#917=EDGE_LOOP('',(#512,#513,#514,#515));
#918=EDGE_LOOP('',(#516,#517,#518,#519));
#919=EDGE_LOOP('',(#520,#521,#522,#523));
#920=EDGE_LOOP('',(#524,#525,#526,#527));
#921=EDGE_LOOP('',(#528,#529,#530,#531));
#922=EDGE_LOOP('',(#532,#533,#534,#535));
#923=EDGE_LOOP('',(#536,#537,#538,#539));
#924=EDGE_LOOP('',(#540,#541,#542,#543));
#925=EDGE_LOOP('',(#544,#545,#546,#547));
#926=EDGE_LOOP('',(#548,#549,#550,#551));
#927=EDGE_LOOP('',(#552,#553,#554,#555));
#928=FACE_BOUND('',#854,.T.);
#929=FACE_BOUND('',#855,.T.);
#930=FACE_BOUND('',#856,.T.);
#931=FACE_BOUND('',#857,.T.);
#932=FACE_BOUND('',#858,.T.);
#933=FACE_BOUND('',#859,.T.);
#934=FACE_BOUND('',#860,.T.);
#935=FACE_BOUND('',#861,.T.);
#936=FACE_BOUND('',#862,.T.);
#937=FACE_BOUND('',#863,.T.);
#938=FACE_BOUND('',#864,.T.);
#939=FACE_BOUND('',#865,.T.);
#940=FACE_BOUND('',#866,.T.);
#941=FACE_BOUND('',#867,.T.);
#942=FACE_BOUND('',#868,.T.);
#943=FACE_BOUND('',#869,.T.);
#944=FACE_BOUND('',#870,.T.);
#945=FACE_BOUND('',#871,.T.);
#946=FACE_BOUND('',#872,.T.);
#947=FACE_BOUND('',#873,.T.);
#948=FACE_BOUND('',#874,.T.);
#949=FACE_BOUND('',#875,.T.);
#950=FACE_BOUND('',#876,.T.);
#951=FACE_BOUND('',#877,.T.);
#952=FACE_BOUND('',#878,.T.);
#953=FACE_BOUND('',#879,.T.);
#954=FACE_BOUND('',#880,.T.);
#955=FACE_BOUND('',#881,.T.);
#956=FACE_BOUND('',#882,.T.);
#957=FACE_BOUND('',#883,.T.);
#958=FACE_BOUND('',#884,.T.);
#959=FACE_BOUND('',#885,.T.);
#960=FACE_BOUND('',#886,.T.);
#961=FACE_BOUND('',#887,.T.);
#962=FACE_BOUND('',#888,.T.);
#963=FACE_BOUND('',#889,.T.);
#964=FACE_BOUND('',#890,.T.);
#965=FACE_BOUND('',#891,.T.);
#966=FACE_BOUND('',#892,.T.);
#967=FACE_BOUND('',#893,.T.);
#968=FACE_BOUND('',#894,.T.);
#969=FACE_BOUND('',#895,.T.);
#970=FACE_BOUND('',#896,.T.);
#971=FACE_BOUND('',#897,.T.);
#972=FACE_BOUND('',#898,.T.);
#973=FACE_BOUND('',#899,.T.);
#974=FACE_BOUND('',#900,.T.);
#975=FACE_BOUND('',#901,.T.);
#976=FACE_BOUND('',#902,.T.);
#977=FACE_BOUND('',#903,.T.);
#978=FACE_BOUND('',#904,.T.);
#979=FACE_BOUND('',#905,.T.);
#980=FACE_BOUND('',#906,.T.);
#981=FACE_BOUND('',#907,.T.);
#982=FACE_BOUND('',#908,.T.);
#983=FACE_BOUND('',#909,.T.);
#984=FACE_BOUND('',#910,.T.);
#985=FACE_BOUND('',#911,.T.);
#986=FACE_BOUND('',#912,.T.);
#987=FACE_BOUND('',#913,.T.);
#988=FACE_BOUND('',#914,.T.);
#989=FACE_BOUND('',#915,.T.);
#990=FACE_BOUND('',#916,.T.);
#991=FACE_BOUND('',#917,.T.);
#992=FACE_BOUND('',#918,.T.);
#993=FACE_BOUND('',#919,.T.);
#994=FACE_BOUND('',#920,.T.);
#995=FACE_BOUND('',#921,.T.);
#996=FACE_BOUND('',#922,.T.);
#997=FACE_BOUND('',#923,.T.);
#998=FACE_BOUND('',#924,.T.);
#999=FACE_BOUND('',#925,.T.);
#1000=FACE_BOUND('',#926,.T.);
#1001=FACE_BOUND('',#927,.T.);
#1002=CYLINDRICAL_SURFACE('',#1093,0.005);
#1003=CYLINDRICAL_SURFACE('',#1096,0.005);
#1004=CYLINDRICAL_SURFACE('',#1105,0.00500098039215686);
#1005=CYLINDRICAL_SURFACE('',#1107,0.00405);
#1006=CYLINDRICAL_SURFACE('',#1116,0.00500098039215686);
#1007=CYLINDRICAL_SURFACE('',#1119,0.00405);
#1008=CYLINDRICAL_SURFACE('',#1147,0.00500098039215686);
#1009=CYLINDRICAL_SURFACE('',#1148,0.00500098039215686);
#1010=CYLINDRICAL_SURFACE('',#1149,0.00255);
#1011=CYLINDRICAL_SURFACE('',#1150,0.00255);
#1012=CYLINDRICAL_SURFACE('',#1151,0.005);
#1013=CYLINDRICAL_SURFACE('',#1156,0.0035);
#1014=CYLINDRICAL_SURFACE('',#1159,0.005);
#1015=CYLINDRICAL_SURFACE('',#1169,0.00025);
#1016=CYLINDRICAL_SURFACE('',#1170,0.00025);
#1017=CYLINDRICAL_SURFACE('',#1171,0.0035);
#1018=CYLINDRICAL_SURFACE('',#1179,0.00025);
#1019=CYLINDRICAL_SURFACE('',#1180,0.00025);
#1020=CYLINDRICAL_SURFACE('',#1183,0.005);
#1021=CYLINDRICAL_SURFACE('',#1184,0.00025);
#1022=CYLINDRICAL_SURFACE('',#1187,0.005);
#1023=CYLINDRICAL_SURFACE('',#1188,0.00025);
#1024=ADVANCED_FACE('',(#928),#1002,.T.);
#1025=ADVANCED_FACE('',(#929),#1003,.T.);
#1026=ADVANCED_FACE('',(#930,#931),#14,.F.);
#1027=ADVANCED_FACE('',(#932),#1004,.T.);
#1028=ADVANCED_FACE('',(#933,#934),#1005,.F.);
#1029=ADVANCED_FACE('',(#935,#936),#15,.T.);
#1030=ADVANCED_FACE('',(#937),#1006,.T.);
#1031=ADVANCED_FACE('',(#938,#939),#16,.F.);
#1032=ADVANCED_FACE('',(#940,#941),#1007,.F.);
#1033=ADVANCED_FACE('',(#942,#943),#17,.F.);
#1034=ADVANCED_FACE('',(#944,#945),#18,.T.);
#1035=ADVANCED_FACE('',(#946),#19,.F.);
#1036=ADVANCED_FACE('',(#947),#20,.T.);
#1037=ADVANCED_FACE('',(#948),#21,.T.);
#1038=ADVANCED_FACE('',(#949,#950),#22,.F.);
#1039=ADVANCED_FACE('',(#951,#952),#23,.T.);
#1040=ADVANCED_FACE('',(#953),#24,.F.);
#1041=ADVANCED_FACE('',(#954,#955),#25,.F.);
#1042=ADVANCED_FACE('',(#956),#1008,.T.);
#1043=ADVANCED_FACE('',(#957),#1009,.T.);
#1044=ADVANCED_FACE('',(#958,#959),#1010,.F.);
#1045=ADVANCED_FACE('',(#960,#961),#1011,.F.);
#1046=ADVANCED_FACE('',(#962),#1012,.T.);
#1047=ADVANCED_FACE('',(#963,#964),#26,.F.);
#1048=ADVANCED_FACE('',(#965,#966),#1013,.F.);
#1049=ADVANCED_FACE('',(#967,#968),#27,.F.);
#1050=ADVANCED_FACE('',(#969),#1014,.T.);
#1051=ADVANCED_FACE('',(#970,#971),#28,.F.);
#1052=ADVANCED_FACE('',(#972),#29,.T.);
#1053=ADVANCED_FACE('',(#973),#30,.T.);
#1054=ADVANCED_FACE('',(#974),#31,.T.);
#1055=ADVANCED_FACE('',(#975),#32,.F.);
#1056=ADVANCED_FACE('',(#976),#33,.T.);
#1057=ADVANCED_FACE('',(#977),#1015,.T.);
#1058=ADVANCED_FACE('',(#978),#1016,.T.);
#1059=ADVANCED_FACE('',(#979,#980),#1017,.F.);
#1060=ADVANCED_FACE('',(#981,#982),#34,.F.);
#1061=ADVANCED_FACE('',(#983),#35,.T.);
#1062=ADVANCED_FACE('',(#984),#36,.T.);
#1063=ADVANCED_FACE('',(#985),#37,.T.);
#1064=ADVANCED_FACE('',(#986),#38,.T.);
#1065=ADVANCED_FACE('',(#987),#39,.F.);
#1066=ADVANCED_FACE('',(#988),#1018,.T.);
#1067=ADVANCED_FACE('',(#989),#1019,.T.);
#1068=ADVANCED_FACE('',(#990),#40,.F.);
#1069=ADVANCED_FACE('',(#991),#41,.F.);
#1070=ADVANCED_FACE('',(#992),#1020,.T.);
#1071=ADVANCED_FACE('',(#993),#1021,.T.);
#1072=ADVANCED_FACE('',(#994),#42,.F.);
#1073=ADVANCED_FACE('',(#995),#43,.F.);
#1074=ADVANCED_FACE('',(#996),#1022,.T.);
#1075=ADVANCED_FACE('',(#997),#1023,.T.);
#1076=ADVANCED_FACE('',(#998),#44,.F.);
#1077=ADVANCED_FACE('',(#999),#45,.F.);
#1078=ADVANCED_FACE('',(#1000),#46,.F.);
#1079=ADVANCED_FACE('',(#1001),#47,.F.);
#1080=CLOSED_SHELL('',(#1024,#1025,#1026,#1027,#1028,#1029,#1030,#1031,
#1032,#1033,#1034,#1035,#1036,#1037,#1038,#1039,#1040,#1041,#1042,#1043,
#1044,#1045,#1046,#1047,#1048,#1049,#1050,#1051,#1052,#1053,#1054,#1055,
#1056,#1057,#1058,#1059,#1060,#1061,#1062,#1063,#1064,#1065,#1066,#1067,
#1068,#1069,#1070,#1071,#1072,#1073,#1074,#1075,#1076,#1077,#1078,#1079));
#1081=STYLED_ITEM('',(#1082),#1089);
#1082=PRESENTATION_STYLE_ASSIGNMENT((#1083));
#1083=SURFACE_STYLE_USAGE(.BOTH.,#1084);
#1084=SURFACE_SIDE_STYLE('',(#1085));
#1085=SURFACE_STYLE_FILL_AREA(#1086);
#1086=FILL_AREA_STYLE('',(#1087));
#1087=FILL_AREA_STYLE_COLOUR('',#1088);
#1088=COLOUR_RGB('',0.647058823529412,0.647058823529412,0.647058823529412);
#1089=MANIFOLD_SOLID_BREP('Middle_Segment',#1080);
#1090=SHAPE_DEFINITION_REPRESENTATION(#1822,#1091);
#1091=SHAPE_REPRESENTATION('Middle_Segment',(#1092),#1817);
#1092=AXIS2_PLACEMENT_3D('',#1499,#1193,#1194);
#1093=AXIS2_PLACEMENT_3D('',#1500,#1195,#1196);
#1094=AXIS2_PLACEMENT_3D('',#1501,#1197,#1198);
#1095=AXIS2_PLACEMENT_3D('',#1506,#1200,#1201);
#1096=AXIS2_PLACEMENT_3D('',#1509,#1203,#1204);
#1097=AXIS2_PLACEMENT_3D('',#1513,#1206,#1207);
#1098=AXIS2_PLACEMENT_3D('',#1517,#1209,#1210);
#1099=AXIS2_PLACEMENT_3D('',#1518,#1211,#1212);
#1100=AXIS2_PLACEMENT_3D('',#1519,#1213,#1214);
#1101=AXIS2_PLACEMENT_3D('',#1524,#1216,#1217);
#1102=AXIS2_PLACEMENT_3D('',#1528,#1219,#1220);
#1103=AXIS2_PLACEMENT_3D('',#1532,#1222,#1223);
#1104=AXIS2_PLACEMENT_3D('',#1540,#1227,#1228);
#1105=AXIS2_PLACEMENT_3D('',#1545,#1231,#1232);
#1106=AXIS2_PLACEMENT_3D('',#1546,#1233,#1234);
#1107=AXIS2_PLACEMENT_3D('',#1551,#1237,#1238);
#1108=AXIS2_PLACEMENT_3D('',#1552,#1239,#1240);
#1109=AXIS2_PLACEMENT_3D('',#1554,#1241,#1242);
#1110=AXIS2_PLACEMENT_3D('',#1556,#1243,#1244);
#1111=AXIS2_PLACEMENT_3D('',#1560,#1246,#1247);
#1112=AXIS2_PLACEMENT_3D('',#1564,#1249,#1250);
#1113=AXIS2_PLACEMENT_3D('',#1568,#1252,#1253);
#1114=AXIS2_PLACEMENT_3D('',#1576,#1257,#1258);
#1115=AXIS2_PLACEMENT_3D('',#1581,#1261,#1262);
#1116=AXIS2_PLACEMENT_3D('',#1583,#1263,#1264);
#1117=AXIS2_PLACEMENT_3D('',#1584,#1265,#1266);
#1118=AXIS2_PLACEMENT_3D('',#1592,#1268,#1269);
#1119=AXIS2_PLACEMENT_3D('',#1609,#1278,#1279);
#1120=AXIS2_PLACEMENT_3D('',#1610,#1280,#1281);
#1121=AXIS2_PLACEMENT_3D('',#1612,#1282,#1283);
#1122=AXIS2_PLACEMENT_3D('',#1614,#1284,#1285);
#1123=AXIS2_PLACEMENT_3D('',#1615,#1286,#1287);
#1124=AXIS2_PLACEMENT_3D('',#1623,#1291,#1292);
#1125=AXIS2_PLACEMENT_3D('',#1630,#1296,#1297);
#1126=AXIS2_PLACEMENT_3D('',#1639,#1302,#1303);
#1127=AXIS2_PLACEMENT_3D('',#1644,#1306,#1307);
#1128=AXIS2_PLACEMENT_3D('',#1646,#1308,#1309);
#1129=AXIS2_PLACEMENT_3D('',#1663,#1320,#1321);
#1130=AXIS2_PLACEMENT_3D('',#1674,#1330,#1331);
#1131=AXIS2_PLACEMENT_3D('',#1678,#1334,#1335);
#1132=AXIS2_PLACEMENT_3D('',#1679,#1336,#1337);
#1133=AXIS2_PLACEMENT_3D('',#1681,#1338,#1339);
#1134=AXIS2_PLACEMENT_3D('',#1685,#1341,#1342);
#1135=AXIS2_PLACEMENT_3D('',#1690,#1345,#1346);
#1136=AXIS2_PLACEMENT_3D('',#1694,#1348,#1349);
#1137=AXIS2_PLACEMENT_3D('',#1695,#1350,#1351);
#1138=AXIS2_PLACEMENT_3D('',#1697,#1352,#1353);
#1139=AXIS2_PLACEMENT_3D('',#1700,#1355,#1356);
#1140=AXIS2_PLACEMENT_3D('',#1704,#1358,#1359);
#1141=AXIS2_PLACEMENT_3D('',#1706,#1360,#1361);
#1142=AXIS2_PLACEMENT_3D('',#1707,#1362,#1363);
#1143=AXIS2_PLACEMENT_3D('',#1711,#1365,#1366);
#1144=AXIS2_PLACEMENT_3D('',#1716,#1369,#1370);
#1145=AXIS2_PLACEMENT_3D('',#1718,#1371,#1372);
#1146=AXIS2_PLACEMENT_3D('',#1720,#1374,#1375);
#1147=AXIS2_PLACEMENT_3D('',#1729,#1380,#1381);
#1148=AXIS2_PLACEMENT_3D('',#1731,#1383,#1384);
#1149=AXIS2_PLACEMENT_3D('',#1736,#1385,#1386);
#1150=AXIS2_PLACEMENT_3D('',#1737,#1387,#1388);
#1151=AXIS2_PLACEMENT_3D('',#1738,#1389,#1390);
#1152=AXIS2_PLACEMENT_3D('',#1741,#1392,#1393);
#1153=AXIS2_PLACEMENT_3D('',#1742,#1394,#1395);
#1154=AXIS2_PLACEMENT_3D('',#1745,#1397,#1398);
#1155=AXIS2_PLACEMENT_3D('',#1749,#1400,#1401);
#1156=AXIS2_PLACEMENT_3D('',#1750,#1402,#1403);
#1157=AXIS2_PLACEMENT_3D('',#1751,#1404,#1405);
#1158=AXIS2_PLACEMENT_3D('',#1753,#1406,#1407);
#1159=AXIS2_PLACEMENT_3D('',#1754,#1408,#1409);
#1160=AXIS2_PLACEMENT_3D('',#1757,#1411,#1412);
#1161=AXIS2_PLACEMENT_3D('',#1758,#1413,#1414);
#1162=AXIS2_PLACEMENT_3D('',#1759,#1415,#1416);
#1163=AXIS2_PLACEMENT_3D('',#1763,#1418,#1419);
#1164=AXIS2_PLACEMENT_3D('',#1766,#1421,#1422);
#1165=AXIS2_PLACEMENT_3D('',#1768,#1424,#1425);
#1166=AXIS2_PLACEMENT_3D('',#1770,#1427,#1428);
#1167=AXIS2_PLACEMENT_3D('',#1771,#1429,#1430);
#1168=AXIS2_PLACEMENT_3D('',#1774,#1433,#1434);
#1169=AXIS2_PLACEMENT_3D('',#1776,#1436,#1437);
#1170=AXIS2_PLACEMENT_3D('',#1777,#1438,#1439);
#1171=AXIS2_PLACEMENT_3D('',#1778,#1440,#1441);
#1172=AXIS2_PLACEMENT_3D('',#1779,#1442,#1443);
#1173=AXIS2_PLACEMENT_3D('',#1781,#1444,#1445);
#1174=AXIS2_PLACEMENT_3D('',#1782,#1446,#1447);
#1175=AXIS2_PLACEMENT_3D('',#1785,#1450,#1451);
#1176=AXIS2_PLACEMENT_3D('',#1786,#1452,#1453);
#1177=AXIS2_PLACEMENT_3D('',#1787,#1454,#1455);
#1178=AXIS2_PLACEMENT_3D('',#1789,#1457,#1458);
#1179=AXIS2_PLACEMENT_3D('',#1792,#1461,#1462);
#1180=AXIS2_PLACEMENT_3D('',#1793,#1463,#1464);
#1181=AXIS2_PLACEMENT_3D('',#1794,#1465,#1466);
#1182=AXIS2_PLACEMENT_3D('',#1796,#1468,#1469);
#1183=AXIS2_PLACEMENT_3D('',#1799,#1472,#1473);
#1184=AXIS2_PLACEMENT_3D('',#1800,#1474,#1475);
#1185=AXIS2_PLACEMENT_3D('',#1801,#1476,#1477);
#1186=AXIS2_PLACEMENT_3D('',#1803,#1479,#1480);
#1187=AXIS2_PLACEMENT_3D('',#1806,#1483,#1484);
#1188=AXIS2_PLACEMENT_3D('',#1807,#1485,#1486);
#1189=AXIS2_PLACEMENT_3D('',#1808,#1487,#1488);
#1190=AXIS2_PLACEMENT_3D('',#1811,#1491,#1492);
#1191=AXIS2_PLACEMENT_3D('',#1813,#1494,#1495);
#1192=AXIS2_PLACEMENT_3D('',#1815,#1497,#1498);
#1193=DIRECTION('',(0.,0.,1.));
#1194=DIRECTION('',(1.,0.,0.));
#1195=DIRECTION('',(-1.,0.,-1.38777878078145E-16));
#1196=DIRECTION('',(-1.38777878078145E-16,0.,1.));
#1197=DIRECTION('',(-1.,0.,-1.38777878078145E-16));
#1198=DIRECTION('',(-1.38777878078145E-16,0.,1.));
#1199=DIRECTION('',(1.,0.,7.65319180578004E-16));
#1200=DIRECTION('',(-1.,0.,-1.38777878078145E-16));
#1201=DIRECTION('',(-1.38777878078145E-16,0.,1.));
#1202=DIRECTION('',(-1.,0.,-1.38777878078145E-16));
#1203=DIRECTION('',(1.,0.,-1.38777878078145E-16));
#1204=DIRECTION('',(-1.38777878078145E-16,0.,-1.));
#1205=DIRECTION('',(-1.,0.,7.65319180578004E-16));
#1206=DIRECTION('',(-1.,0.,1.38777878078145E-16));
#1207=DIRECTION('',(1.38777878078145E-16,0.,1.));
#1208=DIRECTION('',(1.,0.,-1.38777878078145E-16));
#1209=DIRECTION('',(-1.,0.,1.38777878078145E-16));
#1210=DIRECTION('',(1.38777878078145E-16,0.,1.));
#1211=DIRECTION('',(-1.,0.,-2.55106393526001E-16));
#1212=DIRECTION('',(-2.55106393526001E-16,0.,1.));
#1213=DIRECTION('',(-1.,0.,-2.55106393526001E-16));
#1214=DIRECTION('',(-2.55106393526001E-16,0.,1.));
#1215=DIRECTION('',(0.,-0.371390676354103,-0.928476690885259));
#1216=DIRECTION('',(-1.,0.,0.));
#1217=DIRECTION('',(0.,0.,1.));
#1218=DIRECTION('',(0.,1.,0.));
#1219=DIRECTION('',(-1.,0.,0.));
#1220=DIRECTION('',(0.,0.,1.));
#1221=DIRECTION('',(-2.55106393526001E-16,0.,1.));
#1222=DIRECTION('',(-1.,0.,-2.55106393526001E-16));
#1223=DIRECTION('',(-2.55106393526001E-16,0.,1.));
#1224=DIRECTION('',(0.,1.,0.));
#1225=DIRECTION('',(0.,0.819152044288992,0.573576436351046));
#1226=DIRECTION('',(0.,0.,1.));
#1227=DIRECTION('',(-1.,0.,-2.55106393526001E-16));
#1228=DIRECTION('',(-2.55106393526001E-16,0.,1.));
#1229=DIRECTION('',(-2.55106393526001E-16,0.,1.));
#1230=DIRECTION('',(0.,1.,0.));
#1231=DIRECTION('',(-1.,0.,0.));
#1232=DIRECTION('',(0.,0.,1.));
#1233=DIRECTION('',(1.,0.,1.70070929017334E-16));
#1234=DIRECTION('',(1.70070929017334E-16,0.,-1.));
#1235=DIRECTION('',(1.,0.,0.));
#1236=DIRECTION('',(-1.,0.,0.));
#1237=DIRECTION('',(1.,0.,-1.38777878078145E-16));
#1238=DIRECTION('',(-1.38777878078145E-16,0.,-1.));
#1239=DIRECTION('',(-1.,0.,1.38777878078145E-16));
#1240=DIRECTION('',(1.38777878078145E-16,0.,1.));
#1241=DIRECTION('',(-1.,0.,1.38777878078145E-16));
#1242=DIRECTION('',(1.38777878078145E-16,0.,1.));
#1243=DIRECTION('',(-1.,0.,0.));
#1244=DIRECTION('',(0.,0.,1.));
#1245=DIRECTION('',(0.,1.,0.));
#1246=DIRECTION('',(-1.,0.,0.));
#1247=DIRECTION('',(0.,0.,1.));
#1248=DIRECTION('',(0.,0.,1.));
#1249=DIRECTION('',(-1.,0.,0.));
#1250=DIRECTION('',(0.,0.,1.));
#1251=DIRECTION('',(0.,1.,0.));
#1252=DIRECTION('',(-1.,0.,0.));
#1253=DIRECTION('',(0.,0.,1.));
#1254=DIRECTION('',(0.,-0.371390676354103,-0.928476690885259));
#1255=DIRECTION('',(0.,1.,0.));
#1256=DIRECTION('',(0.,0.,1.));
#1257=DIRECTION('',(-1.,0.,0.));
#1258=DIRECTION('',(0.,0.,1.));
#1259=DIRECTION('',(0.,0.,1.));
#1260=DIRECTION('',(0.,0.819152044288992,0.573576436351046));
#1261=DIRECTION('',(-1.,0.,0.));
#1262=DIRECTION('',(0.,0.,1.));
#1263=DIRECTION('',(-1.,0.,0.));
#1264=DIRECTION('',(0.,0.,1.));
#1265=DIRECTION('',(1.,0.,4.25177322543335E-17));
#1266=DIRECTION('',(4.25177322543335E-17,0.,-1.));
#1267=DIRECTION('',(-1.,0.,0.));
#1268=DIRECTION('',(0.,0.,1.));
#1269=DIRECTION('',(1.,0.,0.));
#1270=DIRECTION('',(0.,-1.,0.));
#1271=DIRECTION('',(1.,0.,0.));
#1272=DIRECTION('',(0.,1.,0.));
#1273=DIRECTION('',(-1.,0.,0.));
#1274=DIRECTION('',(0.,1.,0.));
#1275=DIRECTION('',(1.,0.,0.));
#1276=DIRECTION('',(0.,1.,0.));
#1277=DIRECTION('',(1.,0.,0.));
#1278=DIRECTION('',(-1.,0.,-1.38777878078145E-16));
#1279=DIRECTION('',(-1.38777878078145E-16,0.,1.));
#1280=DIRECTION('',(-1.,0.,-1.38777878078145E-16));
#1281=DIRECTION('',(-1.38777878078145E-16,0.,1.));
#1282=DIRECTION('',(-1.,0.,-1.38777878078145E-16));
#1283=DIRECTION('',(-1.38777878078145E-16,0.,1.));
#1284=DIRECTION('',(1.,0.,1.70070929017334E-16));
#1285=DIRECTION('',(1.70070929017334E-16,0.,-1.));
#1286=DIRECTION('',(1.,0.,1.70070929017334E-16));
#1287=DIRECTION('',(1.70070929017334E-16,0.,-1.));
#1288=DIRECTION('',(1.70070929017334E-16,0.,-1.));
#1289=DIRECTION('',(0.,1.,0.));
#1290=DIRECTION('',(1.70070929017334E-16,0.,-1.));
#1291=DIRECTION('',(1.,0.,1.70070929017334E-16));
#1292=DIRECTION('',(1.70070929017334E-16,0.,-1.));
#1293=DIRECTION('',(4.25177322543335E-17,0.,1.));
#1294=DIRECTION('',(2.43871693481685E-17,0.819152044288992,0.573576436351046));
#1295=DIRECTION('',(0.,1.,0.));
#1296=DIRECTION('',(1.,0.,4.25177322543335E-17));
#1297=DIRECTION('',(4.25177322543335E-17,0.,-1.));
#1298=DIRECTION('',(-4.25177322543335E-17,0.,1.));
#1299=DIRECTION('',(4.25177322543335E-17,0.,-1.));
#1300=DIRECTION('',(0.,1.,0.));
#1301=DIRECTION('',(4.25177322543335E-17,0.,-1.));
#1302=DIRECTION('',(1.,0.,4.25177322543335E-17));
#1303=DIRECTION('',(4.25177322543335E-17,0.,-1.));
#1304=DIRECTION('',(0.,1.,0.));
#1305=DIRECTION('',(-2.43871693481685E-17,0.819152044288992,0.573576436351046));
#1306=DIRECTION('',(1.,0.,4.25177322543335E-17));
#1307=DIRECTION('',(4.25177322543335E-17,0.,-1.));
#1308=DIRECTION('',(0.,-1.,0.));
#1309=DIRECTION('',(1.,0.,0.));
#1310=DIRECTION('',(-1.,0.,-1.38777878078145E-16));
#1311=DIRECTION('',(1.38777878078145E-16,0.,-1.));
#1312=DIRECTION('',(1.,0.,0.));
#1313=DIRECTION('',(-1.,0.,0.));
#1314=DIRECTION('',(-1.,0.,0.));
#1315=DIRECTION('',(-1.,0.,0.));
#1316=DIRECTION('',(-1.38777878078145E-16,0.,-1.));
#1317=DIRECTION('',(1.,0.,-1.38777878078145E-16));
#1318=DIRECTION('',(-1.38777878078145E-16,0.,-1.));
#1319=DIRECTION('',(1.38777878078145E-16,0.,-1.));
#1320=DIRECTION('',(0.,-1.,0.));
#1321=DIRECTION('',(1.,0.,0.));
#1322=DIRECTION('',(-1.,0.,0.));
#1323=DIRECTION('',(-1.,0.,0.));
#1324=DIRECTION('',(1.,0.,0.));
#1325=DIRECTION('',(1.38777878078145E-16,0.,-1.));
#1326=DIRECTION('',(1.38777878078145E-16,0.,-1.));
#1327=DIRECTION('',(-1.38777878078145E-16,0.,-1.));
#1328=DIRECTION('',(-1.38777878078145E-16,0.,-1.));
#1329=DIRECTION('',(-1.,0.,0.));
#1330=DIRECTION('',(0.,0.,1.));
#1331=DIRECTION('',(1.,0.,0.));
#1332=DIRECTION('',(1.,0.,0.));
#1333=DIRECTION('',(0.,1.,0.));
#1334=DIRECTION('',(1.,0.,1.38777878078145E-16));
#1335=DIRECTION('',(1.38777878078145E-16,0.,-1.));
#1336=DIRECTION('',(-1.,0.,-1.38777878078145E-16));
#1337=DIRECTION('',(-1.38777878078145E-16,0.,1.));
#1338=DIRECTION('',(1.,0.,1.38777878078145E-16));
#1339=DIRECTION('',(1.38777878078145E-16,0.,-1.));
#1340=DIRECTION('',(-1.38777878078145E-16,0.,1.));
#1341=DIRECTION('',(1.,0.,1.38777878078145E-16));
#1342=DIRECTION('',(1.38777878078145E-16,0.,-1.));
#1343=DIRECTION('',(0.,1.,0.));
#1344=DIRECTION('',(-1.28852025006074E-16,0.371390676354103,0.928476690885259));
#1345=DIRECTION('',(1.,0.,1.38777878078145E-16));
#1346=DIRECTION('',(1.38777878078145E-16,0.,-1.));
#1347=DIRECTION('',(0.,-1.,0.));
#1348=DIRECTION('',(1.,0.,1.38777878078145E-16));
#1349=DIRECTION('',(1.38777878078145E-16,0.,-1.));
#1350=DIRECTION('',(-1.,0.,-1.38777878078145E-16));
#1351=DIRECTION('',(-1.38777878078145E-16,0.,1.));
#1352=DIRECTION('',(1.,0.,-1.38777878078145E-16));
#1353=DIRECTION('',(-1.38777878078145E-16,0.,-1.));
#1354=DIRECTION('',(0.,1.,0.));
#1355=DIRECTION('',(1.,0.,-1.38777878078145E-16));
#1356=DIRECTION('',(-1.38777878078145E-16,0.,-1.));
#1357=DIRECTION('',(1.38777878078145E-16,0.,1.));
#1358=DIRECTION('',(1.,0.,-1.38777878078145E-16));
#1359=DIRECTION('',(-1.38777878078145E-16,0.,-1.));
#1360=DIRECTION('',(-1.,0.,1.38777878078145E-16));
#1361=DIRECTION('',(1.38777878078145E-16,0.,1.));
#1362=DIRECTION('',(1.,0.,-1.38777878078145E-16));
#1363=DIRECTION('',(-1.38777878078145E-16,0.,-1.));
#1364=DIRECTION('',(0.,-1.,0.));
#1365=DIRECTION('',(1.,0.,-1.38777878078145E-16));
#1366=DIRECTION('',(-1.38777878078145E-16,0.,-1.));
#1367=DIRECTION('',(1.28852025006074E-16,0.371390676354103,0.928476690885259));
#1368=DIRECTION('',(0.,1.,0.));
#1369=DIRECTION('',(-1.,0.,1.38777878078145E-16));
#1370=DIRECTION('',(1.38777878078145E-16,0.,1.));
#1371=DIRECTION('',(0.,0.,-1.));
#1372=DIRECTION('',(-1.,0.,0.));
#1373=DIRECTION('',(-1.,0.,0.));
#1374=DIRECTION('',(0.,0.,-1.));
#1375=DIRECTION('',(-1.,0.,0.));
#1376=DIRECTION('',(0.,-1.,0.));
#1377=DIRECTION('',(-1.,0.,0.));
#1378=DIRECTION('',(0.,1.,0.));
#1379=DIRECTION('',(1.,0.,0.));
#1380=DIRECTION('',(-1.,0.,0.));
#1381=DIRECTION('',(0.,0.,1.));
#1382=DIRECTION('',(-1.,0.,0.));
#1383=DIRECTION('',(-1.,0.,0.));
#1384=DIRECTION('',(0.,0.,1.));
#1385=DIRECTION('',(-1.,0.,0.));
#1386=DIRECTION('',(0.,0.,1.));
#1387=DIRECTION('',(-1.,0.,0.));
#1388=DIRECTION('',(0.,0.,1.));
#1389=DIRECTION('',(-1.,0.,-1.38777878078145E-16));
#1390=DIRECTION('',(-1.38777878078145E-16,0.,1.));
#1391=DIRECTION('',(1.,0.,7.65319180578004E-16));
#1392=DIRECTION('',(-1.,0.,-1.38777878078145E-16));
#1393=DIRECTION('',(-1.38777878078145E-16,0.,1.));
#1394=DIRECTION('',(-1.,0.,-1.38777878078145E-16));
#1395=DIRECTION('',(0.,-1.,0.));
#1396=DIRECTION('',(0.,1.,0.));
#1397=DIRECTION('',(1.,0.,1.38777878078145E-16));
#1398=DIRECTION('',(1.38777878078145E-16,0.,-1.));
#1399=DIRECTION('',(-7.65319180578004E-16,0.,1.));
#1400=DIRECTION('',(-1.,0.,-7.65319180578004E-16));
#1401=DIRECTION('',(-7.65319180578004E-16,0.,1.));
#1402=DIRECTION('',(-1.,0.,-1.38777878078145E-16));
#1403=DIRECTION('',(-1.38777878078145E-16,0.,1.));
#1404=DIRECTION('',(-1.,0.,-1.38777878078145E-16));
#1405=DIRECTION('',(-1.38777878078145E-16,0.,1.));
#1406=DIRECTION('',(-1.,0.,-1.38777878078145E-16));
#1407=DIRECTION('',(0.,-1.,0.));
#1408=DIRECTION('',(1.,0.,-1.38777878078145E-16));
#1409=DIRECTION('',(-1.38777878078145E-16,0.,-1.));
#1410=DIRECTION('',(-1.,0.,7.65319180578004E-16));
#1411=DIRECTION('',(-1.,0.,1.38777878078145E-16));
#1412=DIRECTION('',(1.38777878078145E-16,0.,1.));
#1413=DIRECTION('',(1.,0.,-1.38777878078145E-16));
#1414=DIRECTION('',(0.,-1.,0.));
#1415=DIRECTION('',(-1.,0.,7.65319180578004E-16));
#1416=DIRECTION('',(7.65319180578004E-16,0.,1.));
#1417=DIRECTION('',(7.65319180578004E-16,0.,1.));
#1418=DIRECTION('',(1.,0.,-1.38777878078145E-16));
#1419=DIRECTION('',(-1.38777878078145E-16,0.,-1.));
#1420=DIRECTION('',(0.,1.,0.));
#1421=DIRECTION('',(0.,-1.,0.));
#1422=DIRECTION('',(0.,0.,-1.));
#1423=DIRECTION('',(-1.,0.,0.));
#1424=DIRECTION('',(0.,-0.573576436351046,0.819152044288992));
#1425=DIRECTION('',(0.,-0.819152044288992,-0.573576436351046));
#1426=DIRECTION('',(-1.,0.,0.));
#1427=DIRECTION('',(0.,0.,1.));
#1428=DIRECTION('',(1.,0.,0.));
#1429=DIRECTION('',(0.,0.,-1.));
#1430=DIRECTION('',(-1.,0.,0.));
#1431=DIRECTION('',(1.,0.,0.));
#1432=DIRECTION('',(1.,0.,0.));
#1433=DIRECTION('',(0.,-0.928476690885259,0.371390676354103));
#1434=DIRECTION('',(0.,-0.371390676354103,-0.928476690885259));
#1435=DIRECTION('',(1.,0.,0.));
#1436=DIRECTION('',(-1.,0.,0.));
#1437=DIRECTION('',(0.,0.,1.));
#1438=DIRECTION('',(1.,0.,0.));
#1439=DIRECTION('',(0.,0.,-1.));
#1440=DIRECTION('',(1.,0.,-1.38777878078145E-16));
#1441=DIRECTION('',(1.38777878078145E-16,0.,1.));
#1442=DIRECTION('',(-1.,0.,1.38777878078145E-16));
#1443=DIRECTION('',(1.38777878078145E-16,0.,1.));
#1444=DIRECTION('',(1.,0.,-1.38777878078145E-16));
#1445=DIRECTION('',(0.,-1.,0.));
#1446=DIRECTION('',(0.,-0.573576436351046,0.819152044288992));
#1447=DIRECTION('',(0.,-0.819152044288992,-0.573576436351046));
#1448=DIRECTION('',(1.,0.,0.));
#1449=DIRECTION('',(1.,0.,0.));
#1450=DIRECTION('',(0.,0.,1.));
#1451=DIRECTION('',(-1.,0.,0.));
#1452=DIRECTION('',(0.,-1.,0.));
#1453=DIRECTION('',(0.,0.,-1.));
#1454=DIRECTION('',(0.,-0.928476690885259,0.371390676354103));
#1455=DIRECTION('',(0.,-0.371390676354103,-0.928476690885259));
#1456=DIRECTION('',(-1.,0.,0.));
#1457=DIRECTION('',(0.,0.,-1.));
#1458=DIRECTION('',(1.,0.,0.));
#1459=DIRECTION('',(-1.,0.,0.));
#1460=DIRECTION('',(-1.,0.,0.));
#1461=DIRECTION('',(1.,0.,0.));
#1462=DIRECTION('',(0.,0.,1.));
#1463=DIRECTION('',(-1.,0.,0.));
#1464=DIRECTION('',(0.,0.,-1.));
#1465=DIRECTION('',(7.65319180578004E-16,0.,1.));
#1466=DIRECTION('',(1.,0.,-7.65319180578004E-16));
#1467=DIRECTION('',(-1.,0.,7.65319180578004E-16));
#1468=DIRECTION('',(0.,-1.,0.));
#1469=DIRECTION('',(0.,0.,-1.));
#1470=DIRECTION('',(-1.,0.,7.65319180578004E-16));
#1471=DIRECTION('',(-1.,0.,7.65319180578004E-16));
#1472=DIRECTION('',(-1.,0.,7.65319180578004E-16));
#1473=DIRECTION('',(7.65319180578004E-16,0.,1.));
#1474=DIRECTION('',(-1.,0.,7.65319180578004E-16));
#1475=DIRECTION('',(7.65319180578004E-16,0.,1.));
#1476=DIRECTION('',(-7.65319180578004E-16,0.,1.));
#1477=DIRECTION('',(-1.,0.,-7.65319180578004E-16));
#1478=DIRECTION('',(1.,0.,7.65319180578004E-16));
#1479=DIRECTION('',(0.,-1.,0.));
#1480=DIRECTION('',(0.,0.,-1.));
#1481=DIRECTION('',(1.,0.,7.65319180578004E-16));
#1482=DIRECTION('',(1.,0.,7.65319180578004E-16));
#1483=DIRECTION('',(1.,0.,7.65319180578004E-16));
#1484=DIRECTION('',(-7.65319180578004E-16,0.,1.));
#1485=DIRECTION('',(1.,0.,7.65319180578004E-16));
#1486=DIRECTION('',(-7.65319180578004E-16,0.,1.));
#1487=DIRECTION('',(0.,-1.,0.));
#1488=DIRECTION('',(0.,0.,-1.));
#1489=DIRECTION('',(0.,0.,1.));
#1490=DIRECTION('',(0.,0.,1.));
#1491=DIRECTION('',(1.,0.,0.));
#1492=DIRECTION('',(0.,0.,-1.));
#1493=DIRECTION('',(0.,0.,1.));
#1494=DIRECTION('',(0.,1.,0.));
#1495=DIRECTION('',(0.,0.,1.));
#1496=DIRECTION('',(0.,0.,1.));
#1497=DIRECTION('',(-1.,0.,0.));
#1498=DIRECTION('',(0.,0.,1.));
#1499=CARTESIAN_POINT('',(0.,0.,0.));
#1500=CARTESIAN_POINT('',(-0.0045,-0.005,-0.0505));
#1501=CARTESIAN_POINT('',(-0.0075,-0.005,-0.0505));
#1502=CARTESIAN_POINT('',(-0.0075,-0.001,-0.0535));
#1503=CARTESIAN_POINT('',(-0.0075,-0.01,-0.0505));
#1504=CARTESIAN_POINT('',(-0.007502,-0.001,-0.0535));
#1505=CARTESIAN_POINT('',(-0.0045,-0.001,-0.0535));
#1506=CARTESIAN_POINT('',(-0.0045,-0.005,-0.0505));
#1507=CARTESIAN_POINT('',(-0.0045,-0.01,-0.0505));
#1508=CARTESIAN_POINT('',(-0.0045,-0.01,-0.0505));
#1509=CARTESIAN_POINT('',(0.0045,-0.005,-0.0505));
#1510=CARTESIAN_POINT('',(0.007502,-0.001,-0.0535));
#1511=CARTESIAN_POINT('',(0.0075,-0.001,-0.0535));
#1512=CARTESIAN_POINT('',(0.0045,-0.001,-0.0535));
#1513=CARTESIAN_POINT('',(0.0075,-0.005,-0.0505));
#1514=CARTESIAN_POINT('',(0.0075,-0.01,-0.0505));
#1515=CARTESIAN_POINT('',(0.0045,-0.01,-0.0505));
#1516=CARTESIAN_POINT('',(0.0045,-0.01,-0.0505));
#1517=CARTESIAN_POINT('',(0.0045,-0.005,-0.0505));
#1518=CARTESIAN_POINT('',(0.0042,-0.010002,-0.0154));
#1519=CARTESIAN_POINT('',(0.0042,-0.005,-0.015));
#1520=CARTESIAN_POINT('',(0.0042,-0.005,-0.01245));
#1521=CARTESIAN_POINT('',(0.0042,-0.0015,-0.01925));
#1522=CARTESIAN_POINT('',(0.0042,-0.00106286093236459,-0.0181571523309115));
#1523=CARTESIAN_POINT('',(0.0042,-0.002,-0.0205));
#1524=CARTESIAN_POINT('',(0.0042,-0.000830741759643274,-0.01825));
#1525=CARTESIAN_POINT('',(0.0042,-0.000830741759643274,-0.018));
#1526=CARTESIAN_POINT('',(0.0042,-0.0005,-0.018));
#1527=CARTESIAN_POINT('',(0.0042,-0.00025,-0.018));
#1528=CARTESIAN_POINT('',(0.0042,-0.00025,-0.01825));
#1529=CARTESIAN_POINT('',(0.0042,0.,-0.01825));
#1530=CARTESIAN_POINT('',(0.0042,0.,-0.0154));
#1531=CARTESIAN_POINT('',(0.0042,0.,-0.0152019607843136));
#1532=CARTESIAN_POINT('',(0.0042,-0.005,-0.0153009803921568));
#1533=CARTESIAN_POINT('',(0.0042,-0.00846710567739634,-0.0116969572090317));
#1534=CARTESIAN_POINT('',(0.0042,-0.00873355283869813,-0.0116969572090317));
#1535=CARTESIAN_POINT('',(0.0042,-0.009,-0.0116969572090317));
#1536=CARTESIAN_POINT('',(0.0042,-0.0095,-0.0120470609781365));
#1537=CARTESIAN_POINT('',(0.0042,-0.01,-0.0123971647472414));
#1538=CARTESIAN_POINT('',(0.0042,-0.01,-0.0136985823736207));
#1539=CARTESIAN_POINT('',(0.0042,-0.00999265855851455,-0.0150007631944033));
#1540=CARTESIAN_POINT('',(0.0042,-0.005,-0.0153009803921568));
#1541=CARTESIAN_POINT('',(0.0042,-0.01,-0.0152019607843137));
#1542=CARTESIAN_POINT('',(0.0042,-0.01,-0.0154));
#1543=CARTESIAN_POINT('',(0.0042,-0.01,-0.0205));
#1544=CARTESIAN_POINT('',(0.0042,-0.010002,-0.0205));
#1545=CARTESIAN_POINT('',(0.0613386197016235,-0.005,-0.0153009803921568));
#1546=CARTESIAN_POINT('',(0.002,-0.005,-0.0153009803921568));
#1547=CARTESIAN_POINT('',(0.002,0.,-0.0152019607843136));
#1548=CARTESIAN_POINT('',(0.002,-0.00846710567739634,-0.0116969572090317));
#1549=CARTESIAN_POINT('',(0.00199174787495017,-0.00846710567739634,-0.0116969572090317));
#1550=CARTESIAN_POINT('',(0.0613386197016235,0.,-0.0152019607843136));
#1551=CARTESIAN_POINT('',(0.0045,-0.005,-0.0505));
#1552=CARTESIAN_POINT('',(0.0045,-0.005,-0.0505));
#1553=CARTESIAN_POINT('',(0.0045,-0.005,-0.04645));
#1554=CARTESIAN_POINT('',(0.007,-0.005,-0.0505));
#1555=CARTESIAN_POINT('',(0.007,-0.005,-0.04645));
#1556=CARTESIAN_POINT('',(-0.0042,-0.010002,-0.0154));
#1557=CARTESIAN_POINT('',(-0.0042,-0.00873355283869813,-0.0116969572090317));
#1558=CARTESIAN_POINT('',(-0.0042,-0.009,-0.0116969572090317));
#1559=CARTESIAN_POINT('',(-0.0042,-0.00846710567739634,-0.0116969572090317));
#1560=CARTESIAN_POINT('',(-0.0042,-0.005,-0.0153009803921568));
#1561=CARTESIAN_POINT('',(-0.0042,0.,-0.0152019607843136));
#1562=CARTESIAN_POINT('',(-0.0042,0.,-0.0154));
#1563=CARTESIAN_POINT('',(-0.0042,0.,-0.01825));
#1564=CARTESIAN_POINT('',(-0.0042,-0.00025,-0.01825));
#1565=CARTESIAN_POINT('',(-0.0042,-0.00025,-0.018));
#1566=CARTESIAN_POINT('',(-0.0042,-0.0005,-0.018));
#1567=CARTESIAN_POINT('',(-0.0042,-0.000830741759643274,-0.018));
#1568=CARTESIAN_POINT('',(-0.0042,-0.000830741759643274,-0.01825));
#1569=CARTESIAN_POINT('',(-0.0042,-0.00106286093236459,-0.0181571523309115));
#1570=CARTESIAN_POINT('',(-0.0042,-0.0015,-0.01925));
#1571=CARTESIAN_POINT('',(-0.0042,-0.002,-0.0205));
#1572=CARTESIAN_POINT('',(-0.0042,-0.010002,-0.0205));
#1573=CARTESIAN_POINT('',(-0.0042,-0.01,-0.0205));
#1574=CARTESIAN_POINT('',(-0.0042,-0.01,-0.0154));
#1575=CARTESIAN_POINT('',(-0.0042,-0.01,-0.0152019607843137));
#1576=CARTESIAN_POINT('',(-0.0042,-0.005,-0.0153009803921568));
#1577=CARTESIAN_POINT('',(-0.0042,-0.00999396726168979,-0.015000605463346));
#1578=CARTESIAN_POINT('',(-0.0042,-0.01,-0.0136985823736207));
#1579=CARTESIAN_POINT('',(-0.0042,-0.01,-0.0123971647472414));
#1580=CARTESIAN_POINT('',(-0.0042,-0.0095,-0.0120470609781365));
#1581=CARTESIAN_POINT('',(-0.0042,-0.005,-0.015));
#1582=CARTESIAN_POINT('',(-0.0042,-0.005,-0.01245));
#1583=CARTESIAN_POINT('',(0.0613386197016235,-0.005,-0.0153009803921568));
#1584=CARTESIAN_POINT('',(-0.002,-0.005,-0.0153009803921568));
#1585=CARTESIAN_POINT('',(-0.001999476459397,-0.00999295443992678,-0.0150007000182693));
#1586=CARTESIAN_POINT('',(-0.002,-0.01,-0.0152019607843137));
#1587=CARTESIAN_POINT('',(-0.00199174787495017,-0.01,-0.0150004846573763));
#1588=CARTESIAN_POINT('',(-0.00272783191663345,-0.01,-0.0150004846573763));
#1589=CARTESIAN_POINT('',(-0.00346391595831673,-0.01,-0.0150004846573763));
#1590=CARTESIAN_POINT('',(-0.0042,-0.01,-0.0150004846573763));
#1591=CARTESIAN_POINT('',(0.0613386197016235,-0.01,-0.0152019607843137));
#1592=CARTESIAN_POINT('',(-0.00375,-0.010002,-0.0455));
#1593=CARTESIAN_POINT('',(-0.0015,-0.010002,-0.0455));
#1594=CARTESIAN_POINT('',(-0.0015,-0.002,-0.0455));
#1595=CARTESIAN_POINT('',(-0.0015,-0.008,-0.0455));
#1596=CARTESIAN_POINT('',(-0.00375,-0.008,-0.0455));
#1597=CARTESIAN_POINT('',(0.0015,-0.008,-0.0455));
#1598=CARTESIAN_POINT('',(0.0015,-0.010002,-0.0455));
#1599=CARTESIAN_POINT('',(0.0015,-0.002,-0.0455));
#1600=CARTESIAN_POINT('',(-0.00375,-0.002,-0.0455));
#1601=CARTESIAN_POINT('',(0.0045,-0.010002,-0.0455));
#1602=CARTESIAN_POINT('',(0.0045,-0.01,-0.0455));
#1603=CARTESIAN_POINT('',(0.0045,0.,-0.0455));
#1604=CARTESIAN_POINT('',(-0.00375,-0.01,-0.0455));
#1605=CARTESIAN_POINT('',(-0.0045,-0.01,-0.0455));
#1606=CARTESIAN_POINT('',(-0.0045,-0.010002,-0.0455));
#1607=CARTESIAN_POINT('',(-0.0045,0.,-0.0455));
#1608=CARTESIAN_POINT('',(-0.00375,0.,-0.0455));
#1609=CARTESIAN_POINT('',(-0.0045,-0.005,-0.0505));
#1610=CARTESIAN_POINT('',(-0.0045,-0.005,-0.0505));
#1611=CARTESIAN_POINT('',(-0.0045,-0.005,-0.04645));
#1612=CARTESIAN_POINT('',(-0.007,-0.005,-0.0505));
#1613=CARTESIAN_POINT('',(-0.007,-0.005,-0.04645));
#1614=CARTESIAN_POINT('',(0.002,-0.010002,-0.0154));
#1615=CARTESIAN_POINT('',(0.002,-0.005,-0.015));
#1616=CARTESIAN_POINT('',(0.002,-0.005,-0.01755));
#1617=CARTESIAN_POINT('',(0.002,0.,-0.0154));
#1618=CARTESIAN_POINT('',(0.002,0.,-0.0205));
#1619=CARTESIAN_POINT('',(0.002,-0.010002,-0.0205));
#1620=CARTESIAN_POINT('',(0.002,-0.01,-0.0205));
#1621=CARTESIAN_POINT('',(0.002,-0.01,-0.0154));
#1622=CARTESIAN_POINT('',(0.002,-0.01,-0.0152019607843137));
#1623=CARTESIAN_POINT('',(0.002,-0.005,-0.0153009803921568));
#1624=CARTESIAN_POINT('',(0.00199976359164598,-0.00999241271086722,-0.0150007865906414));
#1625=CARTESIAN_POINT('',(0.002,-0.01,-0.0136985823736207));
#1626=CARTESIAN_POINT('',(0.002,-0.01,-0.0123971647472414));
#1627=CARTESIAN_POINT('',(0.002,-0.0095,-0.0120470609781365));
#1628=CARTESIAN_POINT('',(0.002,-0.009,-0.0116969572090317));
#1629=CARTESIAN_POINT('',(0.002,-0.00873355283869813,-0.0116969572090317));
#1630=CARTESIAN_POINT('',(-0.002,-0.010002,-0.0154));
#1631=CARTESIAN_POINT('',(-0.002,-0.01,-0.0136985823736207));
#1632=CARTESIAN_POINT('',(-0.002,-0.01,-0.0123971647472414));
#1633=CARTESIAN_POINT('',(-0.002,-0.01,-0.0154));
#1634=CARTESIAN_POINT('',(-0.002,-0.01,-0.0205));
#1635=CARTESIAN_POINT('',(-0.002,-0.010002,-0.0205));
#1636=CARTESIAN_POINT('',(-0.002,0.,-0.0205));
#1637=CARTESIAN_POINT('',(-0.002,0.,-0.0154));
#1638=CARTESIAN_POINT('',(-0.002,0.,-0.0152019607843136));
#1639=CARTESIAN_POINT('',(-0.002,-0.005,-0.0153009803921568));
#1640=CARTESIAN_POINT('',(-0.002,-0.00846710567739634,-0.0116969572090317));
#1641=CARTESIAN_POINT('',(-0.002,-0.00873355283869813,-0.0116969572090317));
#1642=CARTESIAN_POINT('',(-0.002,-0.009,-0.0116969572090317));
#1643=CARTESIAN_POINT('',(-0.002,-0.0095,-0.0120470609781365));
#1644=CARTESIAN_POINT('',(-0.002,-0.005,-0.015));
#1645=CARTESIAN_POINT('',(-0.002,-0.005,-0.01755));
#1646=CARTESIAN_POINT('',(0.,0.,-0.02));
#1647=CARTESIAN_POINT('',(-0.0045,0.,-0.0505));
#1648=CARTESIAN_POINT('',(-0.0045,0.,-0.0505));
#1649=CARTESIAN_POINT('',(-0.0075,0.,-0.0505));
#1650=CARTESIAN_POINT('',(-0.0075,0.,-0.033));
#1651=CARTESIAN_POINT('',(-0.0075,0.,-0.01825));
#1652=CARTESIAN_POINT('',(0.,0.,-0.01825));
#1653=CARTESIAN_POINT('',(0.0613386197016235,0.,-0.0152019607843136));
#1654=CARTESIAN_POINT('',(0.001,0.,-0.0205));
#1655=CARTESIAN_POINT('',(0.,0.,-0.01825));
#1656=CARTESIAN_POINT('',(0.0075,0.,-0.01825));
#1657=CARTESIAN_POINT('',(0.0075,0.,-0.033));
#1658=CARTESIAN_POINT('',(0.0075,0.,-0.0505));
#1659=CARTESIAN_POINT('',(0.0045,0.,-0.0505));
#1660=CARTESIAN_POINT('',(0.0045,0.,-0.0505));
#1661=CARTESIAN_POINT('',(0.0045,0.,-0.048));
#1662=CARTESIAN_POINT('',(-0.0045,0.,-0.048));
#1663=CARTESIAN_POINT('',(0.,-0.01,0.00375));
#1664=CARTESIAN_POINT('',(0.0613386197016235,-0.01,-0.0152019607843137));
#1665=CARTESIAN_POINT('',(0.001,-0.01,-0.0205));
#1666=CARTESIAN_POINT('',(-0.00585,-0.01,-0.0205));
#1667=CARTESIAN_POINT('',(-0.0075,-0.01,-0.0205));
#1668=CARTESIAN_POINT('',(-0.0075,-0.01,-0.033));
#1669=CARTESIAN_POINT('',(-0.0045,-0.01,-0.048));
#1670=CARTESIAN_POINT('',(0.0045,-0.01,-0.048));
#1671=CARTESIAN_POINT('',(0.0075,-0.01,-0.033));
#1672=CARTESIAN_POINT('',(0.0075,-0.01,-0.0205));
#1673=CARTESIAN_POINT('',(0.00585,-0.01,-0.0205));
#1674=CARTESIAN_POINT('',(-0.00585,-0.010002,-0.0205));
#1675=CARTESIAN_POINT('',(-0.007502,-0.002,-0.0205));
#1676=CARTESIAN_POINT('',(-0.0075,-0.002,-0.0205));
#1677=CARTESIAN_POINT('',(-0.0075,-0.010002,-0.0205));
#1678=CARTESIAN_POINT('',(-0.0075,-0.010002,-0.033));
#1679=CARTESIAN_POINT('',(-0.0075,-0.005,-0.0505));
#1680=CARTESIAN_POINT('',(-0.0075,-4.00160128127998E-6,-0.0507));
#1681=CARTESIAN_POINT('',(-0.0075,-0.005,-0.0509));
#1682=CARTESIAN_POINT('',(-0.0075,0.,-0.0509));
#1683=CARTESIAN_POINT('',(-0.0075,0.,-0.0509));
#1684=CARTESIAN_POINT('',(-0.0075,0.,-0.05325));
#1685=CARTESIAN_POINT('',(-0.0075,-0.00025,-0.05325));
#1686=CARTESIAN_POINT('',(-0.0075,-0.00025,-0.0535));
#1687=CARTESIAN_POINT('',(-0.0075,-0.0005,-0.0535));
#1688=CARTESIAN_POINT('',(-0.0075,-0.0015,-0.01925));
#1689=CARTESIAN_POINT('',(-0.0075,-0.00106286093236459,-0.0181571523309115));
#1690=CARTESIAN_POINT('',(-0.0075,-0.000830741759643274,-0.01825));
#1691=CARTESIAN_POINT('',(-0.0075,-0.000830741759643274,-0.018));
#1692=CARTESIAN_POINT('',(-0.0075,-0.0005,-0.018));
#1693=CARTESIAN_POINT('',(-0.0075,-0.00025,-0.018));
#1694=CARTESIAN_POINT('',(-0.0075,-0.00025,-0.01825));
#1695=CARTESIAN_POINT('',(-0.0075,-0.005,-0.0505));
#1696=CARTESIAN_POINT('',(-0.0075,-0.005,-0.047));
#1697=CARTESIAN_POINT('',(0.0075,-0.010002,-0.033));
#1698=CARTESIAN_POINT('',(0.0075,-0.0005,-0.0535));
#1699=CARTESIAN_POINT('',(0.0075,-0.00025,-0.0535));
#1700=CARTESIAN_POINT('',(0.0075,-0.00025,-0.05325));
#1701=CARTESIAN_POINT('',(0.0075,0.,-0.05325));
#1702=CARTESIAN_POINT('',(0.0075,0.,-0.0509));
#1703=CARTESIAN_POINT('',(0.0075,0.,-0.0509));
#1704=CARTESIAN_POINT('',(0.0075,-0.005,-0.0509));
#1705=CARTESIAN_POINT('',(0.0075,-4.00160128128085E-6,-0.0507));
#1706=CARTESIAN_POINT('',(0.0075,-0.005,-0.0505));
#1707=CARTESIAN_POINT('',(0.0075,-0.00025,-0.01825));
#1708=CARTESIAN_POINT('',(0.0075,-0.00025,-0.018));
#1709=CARTESIAN_POINT('',(0.0075,-0.0005,-0.018));
#1710=CARTESIAN_POINT('',(0.0075,-0.000830741759643274,-0.018));
#1711=CARTESIAN_POINT('',(0.0075,-0.000830741759643274,-0.01825));
#1712=CARTESIAN_POINT('',(0.0075,-0.00106286093236459,-0.0181571523309115));
#1713=CARTESIAN_POINT('',(0.0075,-0.0015,-0.01925));
#1714=CARTESIAN_POINT('',(0.0075,-0.002,-0.0205));
#1715=CARTESIAN_POINT('',(0.0075,-0.010002,-0.0205));
#1716=CARTESIAN_POINT('',(0.0075,-0.005,-0.0505));
#1717=CARTESIAN_POINT('',(0.0075,-0.005,-0.047));
#1718=CARTESIAN_POINT('',(0.00585,-0.010002,-0.0205));
#1719=CARTESIAN_POINT('',(0.007502,-0.002,-0.0205));
#1720=CARTESIAN_POINT('',(0.001,-0.010002,-0.0205));
#1721=CARTESIAN_POINT('',(0.0015,-0.010002,-0.0205));
#1722=CARTESIAN_POINT('',(0.0015,-0.002,-0.0205));
#1723=CARTESIAN_POINT('',(0.0015,-0.008,-0.0205));
#1724=CARTESIAN_POINT('',(0.001,-0.008,-0.0205));
#1725=CARTESIAN_POINT('',(-0.0015,-0.008,-0.0205));
#1726=CARTESIAN_POINT('',(-0.0015,-0.010002,-0.0205));
#1727=CARTESIAN_POINT('',(-0.0015,-0.002,-0.0205));
#1728=CARTESIAN_POINT('',(0.001,-0.002,-0.0205));
#1729=CARTESIAN_POINT('',(0.0613386197016235,-0.005,-0.0153009803921568));
#1730=CARTESIAN_POINT('',(-0.00199174787495017,-0.00846710567739634,-0.0116969572090317));
#1731=CARTESIAN_POINT('',(0.0613386197016235,-0.005,-0.0153009803921568));
#1732=CARTESIAN_POINT('',(0.00199976359164598,-0.01,-0.0150004846573763));
#1733=CARTESIAN_POINT('',(0.00273317572776399,-0.01,-0.0150004846573763));
#1734=CARTESIAN_POINT('',(0.003466587863882,-0.01,-0.0150004846573763));
#1735=CARTESIAN_POINT('',(0.0042,-0.01,-0.0150004846573763));
#1736=CARTESIAN_POINT('',(0.0613386197016235,-0.005,-0.015));
#1737=CARTESIAN_POINT('',(0.0613386197016235,-0.005,-0.015));
#1738=CARTESIAN_POINT('',(-0.0045,-0.005,-0.0505));
#1739=CARTESIAN_POINT('',(-0.007502,-4.00160128128085E-6,-0.0507));
#1740=CARTESIAN_POINT('',(-0.0045,-4.00160128128085E-6,-0.0507));
#1741=CARTESIAN_POINT('',(-0.0045,-0.005,-0.0505));
#1742=CARTESIAN_POINT('',(-0.0045,-0.005,-0.038));
#1743=CARTESIAN_POINT('',(-0.0045,-0.0005,-0.0535));
#1744=CARTESIAN_POINT('',(-0.0045,-0.00025,-0.0535));
#1745=CARTESIAN_POINT('',(-0.0045,-0.00025,-0.05325));
#1746=CARTESIAN_POINT('',(-0.0045,0.,-0.05325));
#1747=CARTESIAN_POINT('',(-0.0045,0.,-0.0509));
#1748=CARTESIAN_POINT('',(-0.0045,0.,-0.0509));
#1749=CARTESIAN_POINT('',(-0.0045,-0.005,-0.0509));
#1750=CARTESIAN_POINT('',(-0.007,-0.005,-0.0505));
#1751=CARTESIAN_POINT('',(-0.007,-0.005,-0.0505));
#1752=CARTESIAN_POINT('',(-0.007,-0.005,-0.047));
#1753=CARTESIAN_POINT('',(-0.007,-0.005,-0.038));
#1754=CARTESIAN_POINT('',(0.0045,-0.005,-0.0505));
#1755=CARTESIAN_POINT('',(0.007502,-4.00160128128085E-6,-0.0507));
#1756=CARTESIAN_POINT('',(0.0045,-4.00160128128085E-6,-0.0507));
#1757=CARTESIAN_POINT('',(0.0045,-0.005,-0.0505));
#1758=CARTESIAN_POINT('',(0.0045,-0.005,-0.038));
#1759=CARTESIAN_POINT('',(0.0045,-0.005,-0.0509));
#1760=CARTESIAN_POINT('',(0.0045,0.,-0.0509));
#1761=CARTESIAN_POINT('',(0.0045,0.,-0.0509));
#1762=CARTESIAN_POINT('',(0.0045,0.,-0.05325));
#1763=CARTESIAN_POINT('',(0.0045,-0.00025,-0.05325));
#1764=CARTESIAN_POINT('',(0.0045,-0.00025,-0.0535));
#1765=CARTESIAN_POINT('',(0.0045,-0.0005,-0.0535));
#1766=CARTESIAN_POINT('',(-0.00199174787495017,-0.01,-0.0136985823736207));
#1767=CARTESIAN_POINT('',(-0.00199174787495017,-0.01,-0.0123971647472414));
#1768=CARTESIAN_POINT('',(-0.00199174787495017,-0.0095,-0.0120470609781365));
#1769=CARTESIAN_POINT('',(-0.00199174787495017,-0.009,-0.0116969572090317));
#1770=CARTESIAN_POINT('',(-0.00199174787495017,-0.00873355283869813,-0.0116969572090317));
#1771=CARTESIAN_POINT('',(-0.007502,-0.0005,-0.018));
#1772=CARTESIAN_POINT('',(-0.0042,-0.000830741759643274,-0.018));
#1773=CARTESIAN_POINT('',(-0.007502,-0.00025,-0.018));
#1774=CARTESIAN_POINT('',(-0.007502,-0.0015,-0.01925));
#1775=CARTESIAN_POINT('',(-0.0075,-0.00106286093236459,-0.0181571523309115));
#1776=CARTESIAN_POINT('',(-0.007502,-0.000830741759643274,-0.01825));
#1777=CARTESIAN_POINT('',(0.,-0.00025,-0.01825));
#1778=CARTESIAN_POINT('',(0.007,-0.005,-0.0505));
#1779=CARTESIAN_POINT('',(0.007,-0.005,-0.0505));
#1780=CARTESIAN_POINT('',(0.007,-0.005,-0.047));
#1781=CARTESIAN_POINT('',(0.007,-0.005,-0.038));
#1782=CARTESIAN_POINT('',(0.00199174787495017,-0.0095,-0.0120470609781365));
#1783=CARTESIAN_POINT('',(0.00199174787495017,-0.01,-0.0123971647472414));
#1784=CARTESIAN_POINT('',(0.00199174787495017,-0.009,-0.0116969572090317));
#1785=CARTESIAN_POINT('',(0.00199174787495017,-0.00873355283869813,-0.0116969572090317));
#1786=CARTESIAN_POINT('',(0.00199174787495017,-0.01,-0.0136985823736207));
#1787=CARTESIAN_POINT('',(0.007502,-0.0015,-0.01925));
#1788=CARTESIAN_POINT('',(0.0075,-0.00106286093236459,-0.0181571523309115));
#1789=CARTESIAN_POINT('',(0.007502,-0.0005,-0.018));
#1790=CARTESIAN_POINT('',(0.007502,-0.00025,-0.018));
#1791=CARTESIAN_POINT('',(0.0042,-0.000830741759643274,-0.018));
#1792=CARTESIAN_POINT('',(0.007502,-0.000830741759643274,-0.01825));
#1793=CARTESIAN_POINT('',(0.,-0.00025,-0.01825));
#1794=CARTESIAN_POINT('',(0.007502,-0.0005,-0.0535));
#1795=CARTESIAN_POINT('',(0.007502,-0.00025,-0.0535));
#1796=CARTESIAN_POINT('',(0.007502,0.,-0.0509));
#1797=CARTESIAN_POINT('',(0.007502,0.,-0.05325));
#1798=CARTESIAN_POINT('',(0.007502,0.,-0.0509));
#1799=CARTESIAN_POINT('',(0.007502,-0.005,-0.0509));
#1800=CARTESIAN_POINT('',(0.007502,-0.00025,-0.05325));
#1801=CARTESIAN_POINT('',(-0.007502,-0.0005,-0.0535));
#1802=CARTESIAN_POINT('',(-0.007502,-0.00025,-0.0535));
#1803=CARTESIAN_POINT('',(-0.007502,0.,-0.0509));
#1804=CARTESIAN_POINT('',(-0.007502,0.,-0.0509));
#1805=CARTESIAN_POINT('',(-0.007502,0.,-0.05325));
#1806=CARTESIAN_POINT('',(-0.007502,-0.005,-0.0509));
#1807=CARTESIAN_POINT('',(-0.007502,-0.00025,-0.05325));
#1808=CARTESIAN_POINT('',(-1.3010426069826E-18,-0.008,-0.130511877077904));
#1809=CARTESIAN_POINT('',(-0.0015,-0.008,-0.130511877077904));
#1810=CARTESIAN_POINT('',(0.0015,-0.008,-0.130511877077904));
#1811=CARTESIAN_POINT('',(0.0015,-0.005,-0.130511877077904));
#1812=CARTESIAN_POINT('',(0.0015,-0.002,-0.130511877077904));
#1813=CARTESIAN_POINT('',(-1.3010426069826E-18,-0.002,-0.130511877077904));
#1814=CARTESIAN_POINT('',(-0.0015,-0.002,-0.130511877077904));
#1815=CARTESIAN_POINT('',(-0.0015,-0.005,-0.130511877077904));
#1816=MECHANICAL_DESIGN_GEOMETRIC_PRESENTATION_REPRESENTATION('',(#1081),
#1817);
#1817=(
GEOMETRIC_REPRESENTATION_CONTEXT(3)
GLOBAL_UNCERTAINTY_ASSIGNED_CONTEXT((#1818))
GLOBAL_UNIT_ASSIGNED_CONTEXT((#1821,#1820,#1819))
REPRESENTATION_CONTEXT('Middle_Segment','TOP_LEVEL_ASSEMBLY_PART')
);
#1818=UNCERTAINTY_MEASURE_WITH_UNIT(LENGTH_MEASURE(2.86051531149484E-5),
#1821,'DISTANCE_ACCURACY_VALUE','Maximum Tolerance applied to model');
#1819=(
NAMED_UNIT(*)
SI_UNIT($,.STERADIAN.)
SOLID_ANGLE_UNIT()
);
#1820=(
NAMED_UNIT(*)
PLANE_ANGLE_UNIT()
SI_UNIT($,.RADIAN.)
);
#1821=(
LENGTH_UNIT()
NAMED_UNIT(*)
SI_UNIT($,.METRE.)
);
#1822=PRODUCT_DEFINITION_SHAPE('','',#1823);
#1823=PRODUCT_DEFINITION('','',#1825,#1824);
#1824=PRODUCT_DEFINITION_CONTEXT('',#1831,'design');
#1825=PRODUCT_DEFINITION_FORMATION_WITH_SPECIFIED_SOURCE('','',#1827,
 .NOT_KNOWN.);
#1826=PRODUCT_RELATED_PRODUCT_CATEGORY('','',(#1827));
#1827=PRODUCT('Middle_Segment','Middle_Segment','Middle_Segment',(#1829));
#1828=PRODUCT_CATEGORY('','');
#1829=PRODUCT_CONTEXT('',#1831,'mechanical');
#1830=APPLICATION_PROTOCOL_DEFINITION('international standard',
'ap242_managed_model_based_3d_engineering',2020,#1831);
#1831=APPLICATION_CONTEXT('managed model based 3d engineering');
ENDSEC;
END-ISO-10303-21;
