ISO-10303-21;
HEADER;
/* Generated by software containing ST-Developer
 * from STEP Tools, Inc. (www.steptools.com) 
 */
/* OPTION: using custom renumber hook */

FILE_DESCRIPTION(
/* description */ ('STEP AP242 Edition 2',
'CAx-IF Rec.Pracs.---Representation and Presentation of Product Manufa
cturing Information (PMI)---4.0---2014-10-13',
'CAx-IF Rec.Pracs.---3D Tessellated Geometry---0.4---2014-09-14','2;1',
'CAx-IF Rec.Pracs.---User Defined Attributes---1.5---2016-08-15'),
/* implementation_level */ '2;1');

FILE_NAME(
/* name */ 'Hand Assembly Left - Top_Segment',
/* time_stamp */ '2026-06-30T02:49:47Z',
/* author */ (''),
/* organization */ (''),
/* preprocessor_version */ 'ST-DEVELOPER v20',
/* originating_system */ 'ONSHAPE BY PTC INC, 1.217',
/* authorisation */ '  ');

FILE_SCHEMA (('AP242_MANAGED_MODEL_BASED_3D_ENGINEERING_MIM_LF { 1 0 10303 442 3 1 4 }'));
ENDSEC;

DATA;
#10=SHAPE_REPRESENTATION_RELATIONSHIP('','',#669,#11);
#11=ADVANCED_BREP_SHAPE_REPRESENTATION('',(#667),#1129);
#12=PLANE('',#680);
#13=PLANE('',#684);
#14=PLANE('',#693);
#15=PLANE('',#699);
#16=PLANE('',#701);
#17=PLANE('',#705);
#18=PLANE('',#710);
#19=PLANE('',#713);
#20=PLANE('',#718);
#21=PLANE('',#719);
#22=PLANE('',#721);
#23=PLANE('',#723);
#24=PLANE('',#725);
#25=PLANE('',#727);
#26=PLANE('',#728);
#27=PLANE('',#732);
#28=PLANE('',#733);
#29=PLANE('',#737);
#30=CIRCLE('',#672,0.005);
#31=CIRCLE('',#673,0.005);
#32=CIRCLE('',#675,0.005);
#33=CIRCLE('',#676,0.005);
#34=CIRCLE('',#678,0.00405);
#35=CIRCLE('',#679,0.00405);
#36=CIRCLE('',#682,0.00405);
#37=CIRCLE('',#683,0.00405);
#38=CIRCLE('',#685,0.0015);
#39=CIRCLE('',#686,0.00025);
#40=CIRCLE('',#687,0.00500098039215686);
#41=CIRCLE('',#688,0.005);
#42=CIRCLE('',#689,0.0035);
#43=CIRCLE('',#691,0.0075);
#44=CIRCLE('',#692,0.0075);
#45=CIRCLE('',#694,0.0015);
#46=CIRCLE('',#695,0.005);
#47=CIRCLE('',#696,0.00500098039215686);
#48=CIRCLE('',#697,0.00025);
#49=CIRCLE('',#698,0.0035);
#50=CIRCLE('',#700,0.00125);
#51=CIRCLE('',#702,0.00125);
#52=CIRCLE('',#704,0.005);
#53=CIRCLE('',#706,0.00500098039215686);
#54=CIRCLE('',#707,0.00025);
#55=CIRCLE('',#709,0.0035);
#56=CIRCLE('',#712,0.005);
#57=CIRCLE('',#714,0.00500098039215686);
#58=CIRCLE('',#715,0.00025);
#59=CIRCLE('',#717,0.0035);
#60=CIRCLE('',#729,0.0015);
#61=CIRCLE('',#730,0.002);
#62=CIRCLE('',#731,0.002);
#63=CIRCLE('',#734,0.0015);
#64=CIRCLE('',#735,0.002);
#65=CIRCLE('',#736,0.002);
#66=ORIENTED_EDGE('',*,*,#242,.F.);
#67=ORIENTED_EDGE('',*,*,#243,.T.);
#68=ORIENTED_EDGE('',*,*,#244,.F.);
#69=ORIENTED_EDGE('',*,*,#245,.F.);
#70=ORIENTED_EDGE('',*,*,#246,.F.);
#71=ORIENTED_EDGE('',*,*,#247,.T.);
#72=ORIENTED_EDGE('',*,*,#248,.T.);
#73=ORIENTED_EDGE('',*,*,#249,.T.);
#74=ORIENTED_EDGE('',*,*,#250,.T.);
#75=ORIENTED_EDGE('',*,*,#251,.F.);
#76=ORIENTED_EDGE('',*,*,#252,.T.);
#77=ORIENTED_EDGE('',*,*,#253,.T.);
#78=ORIENTED_EDGE('',*,*,#254,.T.);
#79=ORIENTED_EDGE('',*,*,#255,.T.);
#80=ORIENTED_EDGE('',*,*,#256,.F.);
#81=ORIENTED_EDGE('',*,*,#257,.F.);
#82=ORIENTED_EDGE('',*,*,#258,.T.);
#83=ORIENTED_EDGE('',*,*,#259,.T.);
#84=ORIENTED_EDGE('',*,*,#260,.F.);
#85=ORIENTED_EDGE('',*,*,#261,.F.);
#86=ORIENTED_EDGE('',*,*,#262,.F.);
#87=ORIENTED_EDGE('',*,*,#263,.T.);
#88=ORIENTED_EDGE('',*,*,#264,.F.);
#89=ORIENTED_EDGE('',*,*,#265,.T.);
#90=ORIENTED_EDGE('',*,*,#243,.F.);
#91=ORIENTED_EDGE('',*,*,#266,.F.);
#92=ORIENTED_EDGE('',*,*,#267,.F.);
#93=ORIENTED_EDGE('',*,*,#268,.F.);
#94=ORIENTED_EDGE('',*,*,#269,.T.);
#95=ORIENTED_EDGE('',*,*,#270,.F.);
#96=ORIENTED_EDGE('',*,*,#271,.F.);
#97=ORIENTED_EDGE('',*,*,#272,.T.);
#98=ORIENTED_EDGE('',*,*,#273,.T.);
#99=ORIENTED_EDGE('',*,*,#274,.F.);
#100=ORIENTED_EDGE('',*,*,#275,.F.);
#101=ORIENTED_EDGE('',*,*,#276,.F.);
#102=ORIENTED_EDGE('',*,*,#264,.T.);
#103=ORIENTED_EDGE('',*,*,#262,.T.);
#104=ORIENTED_EDGE('',*,*,#275,.T.);
#105=ORIENTED_EDGE('',*,*,#277,.F.);
#106=ORIENTED_EDGE('',*,*,#274,.T.);
#107=ORIENTED_EDGE('',*,*,#278,.T.);
#108=ORIENTED_EDGE('',*,*,#279,.T.);
#109=ORIENTED_EDGE('',*,*,#280,.F.);
#110=ORIENTED_EDGE('',*,*,#281,.T.);
#111=ORIENTED_EDGE('',*,*,#282,.T.);
#112=ORIENTED_EDGE('',*,*,#283,.T.);
#113=ORIENTED_EDGE('',*,*,#246,.T.);
#114=ORIENTED_EDGE('',*,*,#284,.F.);
#115=ORIENTED_EDGE('',*,*,#285,.F.);
#116=ORIENTED_EDGE('',*,*,#286,.T.);
#117=ORIENTED_EDGE('',*,*,#265,.F.);
#118=ORIENTED_EDGE('',*,*,#276,.T.);
#119=ORIENTED_EDGE('',*,*,#284,.T.);
#120=ORIENTED_EDGE('',*,*,#249,.F.);
#121=ORIENTED_EDGE('',*,*,#287,.F.);
#122=ORIENTED_EDGE('',*,*,#257,.T.);
#123=ORIENTED_EDGE('',*,*,#288,.T.);
#124=ORIENTED_EDGE('',*,*,#244,.T.);
#125=ORIENTED_EDGE('',*,*,#289,.F.);
#126=ORIENTED_EDGE('',*,*,#271,.T.);
#127=ORIENTED_EDGE('',*,*,#290,.F.);
#128=ORIENTED_EDGE('',*,*,#291,.F.);
#129=ORIENTED_EDGE('',*,*,#259,.F.);
#130=ORIENTED_EDGE('',*,*,#292,.T.);
#131=ORIENTED_EDGE('',*,*,#293,.T.);
#132=ORIENTED_EDGE('',*,*,#278,.F.);
#133=ORIENTED_EDGE('',*,*,#273,.F.);
#134=ORIENTED_EDGE('',*,*,#294,.F.);
#135=ORIENTED_EDGE('',*,*,#279,.F.);
#136=ORIENTED_EDGE('',*,*,#293,.F.);
#137=ORIENTED_EDGE('',*,*,#295,.T.);
#138=ORIENTED_EDGE('',*,*,#296,.T.);
#139=ORIENTED_EDGE('',*,*,#297,.F.);
#140=ORIENTED_EDGE('',*,*,#295,.F.);
#141=ORIENTED_EDGE('',*,*,#292,.F.);
#142=ORIENTED_EDGE('',*,*,#258,.F.);
#143=ORIENTED_EDGE('',*,*,#287,.T.);
#144=ORIENTED_EDGE('',*,*,#248,.F.);
#145=ORIENTED_EDGE('',*,*,#298,.T.);
#146=ORIENTED_EDGE('',*,*,#299,.T.);
#147=ORIENTED_EDGE('',*,*,#260,.T.);
#148=ORIENTED_EDGE('',*,*,#300,.F.);
#149=ORIENTED_EDGE('',*,*,#285,.T.);
#150=ORIENTED_EDGE('',*,*,#261,.T.);
#151=ORIENTED_EDGE('',*,*,#300,.T.);
#152=ORIENTED_EDGE('',*,*,#270,.T.);
#153=ORIENTED_EDGE('',*,*,#301,.T.);
#154=ORIENTED_EDGE('',*,*,#302,.F.);
#155=ORIENTED_EDGE('',*,*,#290,.T.);
#156=ORIENTED_EDGE('',*,*,#302,.T.);
#157=ORIENTED_EDGE('',*,*,#303,.T.);
#158=ORIENTED_EDGE('',*,*,#304,.F.);
#159=ORIENTED_EDGE('',*,*,#305,.F.);
#160=ORIENTED_EDGE('',*,*,#306,.F.);
#161=ORIENTED_EDGE('',*,*,#245,.T.);
#162=ORIENTED_EDGE('',*,*,#288,.F.);
#163=ORIENTED_EDGE('',*,*,#256,.T.);
#164=ORIENTED_EDGE('',*,*,#291,.T.);
#165=ORIENTED_EDGE('',*,*,#250,.F.);
#166=ORIENTED_EDGE('',*,*,#307,.T.);
#167=ORIENTED_EDGE('',*,*,#272,.F.);
#168=ORIENTED_EDGE('',*,*,#251,.T.);
#169=ORIENTED_EDGE('',*,*,#307,.F.);
#170=ORIENTED_EDGE('',*,*,#296,.F.);
#171=ORIENTED_EDGE('',*,*,#308,.T.);
#172=ORIENTED_EDGE('',*,*,#281,.F.);
#173=ORIENTED_EDGE('',*,*,#309,.T.);
#174=ORIENTED_EDGE('',*,*,#309,.F.);
#175=ORIENTED_EDGE('',*,*,#280,.T.);
#176=ORIENTED_EDGE('',*,*,#294,.T.);
#177=ORIENTED_EDGE('',*,*,#297,.T.);
#178=ORIENTED_EDGE('',*,*,#283,.F.);
#179=ORIENTED_EDGE('',*,*,#310,.T.);
#180=ORIENTED_EDGE('',*,*,#298,.F.);
#181=ORIENTED_EDGE('',*,*,#247,.F.);
#182=ORIENTED_EDGE('',*,*,#282,.F.);
#183=ORIENTED_EDGE('',*,*,#308,.F.);
#184=ORIENTED_EDGE('',*,*,#299,.F.);
#185=ORIENTED_EDGE('',*,*,#310,.F.);
#186=ORIENTED_EDGE('',*,*,#266,.T.);
#187=ORIENTED_EDGE('',*,*,#242,.T.);
#188=ORIENTED_EDGE('',*,*,#306,.T.);
#189=ORIENTED_EDGE('',*,*,#311,.F.);
#190=ORIENTED_EDGE('',*,*,#312,.T.);
#191=ORIENTED_EDGE('',*,*,#303,.F.);
#192=ORIENTED_EDGE('',*,*,#301,.F.);
#193=ORIENTED_EDGE('',*,*,#269,.F.);
#194=ORIENTED_EDGE('',*,*,#304,.T.);
#195=ORIENTED_EDGE('',*,*,#312,.F.);
#196=ORIENTED_EDGE('',*,*,#268,.T.);
#197=ORIENTED_EDGE('',*,*,#313,.F.);
#198=ORIENTED_EDGE('',*,*,#267,.T.);
#199=ORIENTED_EDGE('',*,*,#311,.T.);
#200=ORIENTED_EDGE('',*,*,#305,.T.);
#201=ORIENTED_EDGE('',*,*,#313,.T.);
#202=ORIENTED_EDGE('',*,*,#314,.T.);
#203=ORIENTED_EDGE('',*,*,#315,.T.);
#204=ORIENTED_EDGE('',*,*,#316,.F.);
#205=ORIENTED_EDGE('',*,*,#253,.F.);
#206=ORIENTED_EDGE('',*,*,#317,.T.);
#207=ORIENTED_EDGE('',*,*,#318,.T.);
#208=ORIENTED_EDGE('',*,*,#319,.T.);
#209=ORIENTED_EDGE('',*,*,#320,.F.);
#210=ORIENTED_EDGE('',*,*,#254,.F.);
#211=ORIENTED_EDGE('',*,*,#316,.T.);
#212=ORIENTED_EDGE('',*,*,#321,.T.);
#213=ORIENTED_EDGE('',*,*,#320,.T.);
#214=ORIENTED_EDGE('',*,*,#322,.T.);
#215=ORIENTED_EDGE('',*,*,#323,.F.);
#216=ORIENTED_EDGE('',*,*,#255,.F.);
#217=ORIENTED_EDGE('',*,*,#324,.T.);
#218=ORIENTED_EDGE('',*,*,#323,.T.);
#219=ORIENTED_EDGE('',*,*,#325,.T.);
#220=ORIENTED_EDGE('',*,*,#326,.T.);
#221=ORIENTED_EDGE('',*,*,#327,.T.);
#222=ORIENTED_EDGE('',*,*,#314,.F.);
#223=ORIENTED_EDGE('',*,*,#252,.F.);
#224=ORIENTED_EDGE('',*,*,#326,.F.);
#225=ORIENTED_EDGE('',*,*,#328,.T.);
#226=ORIENTED_EDGE('',*,*,#318,.F.);
#227=ORIENTED_EDGE('',*,*,#329,.T.);
#228=ORIENTED_EDGE('',*,*,#319,.F.);
#229=ORIENTED_EDGE('',*,*,#328,.F.);
#230=ORIENTED_EDGE('',*,*,#325,.F.);
#231=ORIENTED_EDGE('',*,*,#322,.F.);
#232=ORIENTED_EDGE('',*,*,#327,.F.);
#233=ORIENTED_EDGE('',*,*,#329,.F.);
#234=ORIENTED_EDGE('',*,*,#321,.F.);
#235=ORIENTED_EDGE('',*,*,#315,.F.);
#236=ORIENTED_EDGE('',*,*,#277,.T.);
#237=ORIENTED_EDGE('',*,*,#324,.F.);
#238=ORIENTED_EDGE('',*,*,#263,.F.);
#239=ORIENTED_EDGE('',*,*,#317,.F.);
#240=ORIENTED_EDGE('',*,*,#286,.F.);
#241=ORIENTED_EDGE('',*,*,#289,.T.);
#242=EDGE_CURVE('',#330,#331,#392,.T.);
#243=EDGE_CURVE('',#330,#332,#30,.T.);
#244=EDGE_CURVE('',#333,#332,#393,.T.);
#245=EDGE_CURVE('',#331,#333,#31,.T.);
#246=EDGE_CURVE('',#334,#335,#32,.T.);
#247=EDGE_CURVE('',#334,#336,#394,.T.);
#248=EDGE_CURVE('',#336,#337,#33,.T.);
#249=EDGE_CURVE('',#337,#335,#395,.T.);
#250=EDGE_CURVE('',#338,#338,#34,.T.);
#251=EDGE_CURVE('',#339,#339,#35,.T.);
#252=EDGE_CURVE('',#340,#341,#396,.T.);
#253=EDGE_CURVE('',#341,#342,#397,.T.);
#254=EDGE_CURVE('',#342,#343,#398,.T.);
#255=EDGE_CURVE('',#343,#340,#399,.T.);
#256=EDGE_CURVE('',#344,#345,#400,.T.);
#257=EDGE_CURVE('',#346,#344,#401,.T.);
#258=EDGE_CURVE('',#346,#347,#402,.T.);
#259=EDGE_CURVE('',#347,#345,#403,.T.);
#260=EDGE_CURVE('',#348,#348,#36,.T.);
#261=EDGE_CURVE('',#349,#349,#37,.F.);
#262=EDGE_CURVE('',#350,#351,#404,.T.);
#263=EDGE_CURVE('',#350,#350,#38,.F.);
#264=EDGE_CURVE('',#352,#350,#405,.T.);
#265=EDGE_CURVE('',#352,#332,#406,.T.);
#266=EDGE_CURVE('',#353,#330,#407,.T.);
#267=EDGE_CURVE('',#354,#353,#39,.F.);
#268=EDGE_CURVE('',#355,#354,#408,.T.);
#269=EDGE_CURVE('',#355,#356,#40,.T.);
#270=EDGE_CURVE('',#357,#356,#41,.T.);
#271=EDGE_CURVE('',#351,#357,#409,.T.);
#272=EDGE_CURVE('',#358,#358,#42,.T.);
#273=EDGE_CURVE('',#351,#359,#43,.T.);
#274=EDGE_CURVE('',#360,#359,#410,.T.);
#275=EDGE_CURVE('',#361,#360,#411,.T.);
#276=EDGE_CURVE('',#352,#361,#44,.T.);
#277=EDGE_CURVE('',#360,#360,#45,.T.);
#278=EDGE_CURVE('',#359,#362,#412,.T.);
#279=EDGE_CURVE('',#362,#363,#46,.T.);
#280=EDGE_CURVE('',#364,#363,#47,.T.);
#281=EDGE_CURVE('',#364,#365,#413,.T.);
#282=EDGE_CURVE('',#365,#366,#48,.F.);
#283=EDGE_CURVE('',#366,#334,#414,.T.);
#284=EDGE_CURVE('',#361,#335,#415,.T.);
#285=EDGE_CURVE('',#367,#367,#49,.T.);
#286=EDGE_CURVE('',#368,#368,#50,.T.);
#287=EDGE_CURVE('',#346,#337,#416,.T.);
#288=EDGE_CURVE('',#344,#333,#417,.T.);
#289=EDGE_CURVE('',#369,#369,#51,.T.);
#290=EDGE_CURVE('',#370,#357,#418,.T.);
#291=EDGE_CURVE('',#345,#370,#419,.T.);
#292=EDGE_CURVE('',#347,#371,#420,.T.);
#293=EDGE_CURVE('',#371,#362,#421,.T.);
#294=EDGE_CURVE('',#363,#372,#422,.T.);
#295=EDGE_CURVE('',#371,#372,#52,.T.);
#296=EDGE_CURVE('',#373,#374,#423,.T.);
#297=EDGE_CURVE('',#372,#374,#53,.T.);
#298=EDGE_CURVE('',#336,#375,#424,.T.);
#299=EDGE_CURVE('',#375,#373,#54,.F.);
#300=EDGE_CURVE('',#376,#376,#55,.T.);
#301=EDGE_CURVE('',#356,#377,#425,.T.);
#302=EDGE_CURVE('',#370,#377,#56,.T.);
#303=EDGE_CURVE('',#377,#378,#57,.T.);
#304=EDGE_CURVE('',#379,#378,#426,.T.);
#305=EDGE_CURVE('',#380,#379,#58,.F.);
#306=EDGE_CURVE('',#331,#380,#427,.T.);
#307=EDGE_CURVE('',#381,#381,#59,.T.);
#308=EDGE_CURVE('',#373,#365,#428,.F.);
#309=EDGE_CURVE('',#364,#374,#429,.T.);
#310=EDGE_CURVE('',#366,#375,#430,.T.);
#311=EDGE_CURVE('',#353,#380,#431,.T.);
#312=EDGE_CURVE('',#355,#378,#432,.T.);
#313=EDGE_CURVE('',#379,#354,#433,.F.);
#314=EDGE_CURVE('',#341,#382,#434,.T.);
#315=EDGE_CURVE('',#382,#383,#435,.T.);
#316=EDGE_CURVE('',#342,#383,#436,.T.);
#317=EDGE_CURVE('',#384,#384,#60,.T.);
#318=EDGE_CURVE('',#385,#386,#437,.T.);
#319=EDGE_CURVE('',#386,#387,#61,.F.);
#320=EDGE_CURVE('',#343,#387,#438,.T.);
#321=EDGE_CURVE('',#383,#385,#62,.F.);
#322=EDGE_CURVE('',#387,#388,#439,.T.);
#323=EDGE_CURVE('',#340,#388,#440,.T.);
#324=EDGE_CURVE('',#389,#389,#63,.T.);
#325=EDGE_CURVE('',#388,#390,#64,.F.);
#326=EDGE_CURVE('',#390,#391,#441,.T.);
#327=EDGE_CURVE('',#391,#382,#65,.F.);
#328=EDGE_CURVE('',#390,#386,#442,.F.);
#329=EDGE_CURVE('',#385,#391,#443,.F.);
#330=VERTEX_POINT('',#944);
#331=VERTEX_POINT('',#945);
#332=VERTEX_POINT('',#947);
#333=VERTEX_POINT('',#949);
#334=VERTEX_POINT('',#953);
#335=VERTEX_POINT('',#954);
#336=VERTEX_POINT('',#956);
#337=VERTEX_POINT('',#958);
#338=VERTEX_POINT('',#962);
#339=VERTEX_POINT('',#964);
#340=VERTEX_POINT('',#967);
#341=VERTEX_POINT('',#968);
#342=VERTEX_POINT('',#970);
#343=VERTEX_POINT('',#972);
#344=VERTEX_POINT('',#975);
#345=VERTEX_POINT('',#976);
#346=VERTEX_POINT('',#978);
#347=VERTEX_POINT('',#980);
#348=VERTEX_POINT('',#984);
#349=VERTEX_POINT('',#986);
#350=VERTEX_POINT('',#989);
#351=VERTEX_POINT('',#990);
#352=VERTEX_POINT('',#993);
#353=VERTEX_POINT('',#996);
#354=VERTEX_POINT('',#998);
#355=VERTEX_POINT('',#1000);
#356=VERTEX_POINT('',#1002);
#357=VERTEX_POINT('',#1004);
#358=VERTEX_POINT('',#1007);
#359=VERTEX_POINT('',#1010);
#360=VERTEX_POINT('',#1012);
#361=VERTEX_POINT('',#1014);
#362=VERTEX_POINT('',#1019);
#363=VERTEX_POINT('',#1021);
#364=VERTEX_POINT('',#1023);
#365=VERTEX_POINT('',#1025);
#366=VERTEX_POINT('',#1027);
#367=VERTEX_POINT('',#1031);
#368=VERTEX_POINT('',#1034);
#369=VERTEX_POINT('',#1039);
#370=VERTEX_POINT('',#1041);
#371=VERTEX_POINT('',#1044);
#372=VERTEX_POINT('',#1048);
#373=VERTEX_POINT('',#1052);
#374=VERTEX_POINT('',#1053);
#375=VERTEX_POINT('',#1056);
#376=VERTEX_POINT('',#1060);
#377=VERTEX_POINT('',#1064);
#378=VERTEX_POINT('',#1068);
#379=VERTEX_POINT('',#1070);
#380=VERTEX_POINT('',#1072);
#381=VERTEX_POINT('',#1076);
#382=VERTEX_POINT('',#1094);
#383=VERTEX_POINT('',#1096);
#384=VERTEX_POINT('',#1100);
#385=VERTEX_POINT('',#1102);
#386=VERTEX_POINT('',#1103);
#387=VERTEX_POINT('',#1105);
#388=VERTEX_POINT('',#1110);
#389=VERTEX_POINT('',#1114);
#390=VERTEX_POINT('',#1116);
#391=VERTEX_POINT('',#1118);
#392=LINE('',#943,#444);
#393=LINE('',#948,#445);
#394=LINE('',#955,#446);
#395=LINE('',#959,#447);
#396=LINE('',#966,#448);
#397=LINE('',#969,#449);
#398=LINE('',#971,#450);
#399=LINE('',#973,#451);
#400=LINE('',#974,#452);
#401=LINE('',#977,#453);
#402=LINE('',#979,#454);
#403=LINE('',#981,#455);
#404=LINE('',#988,#456);
#405=LINE('',#992,#457);
#406=LINE('',#994,#458);
#407=LINE('',#995,#459);
#408=LINE('',#999,#460);
#409=LINE('',#1005,#461);
#410=LINE('',#1011,#462);
#411=LINE('',#1013,#463);
#412=LINE('',#1018,#464);
#413=LINE('',#1024,#465);
#414=LINE('',#1028,#466);
#415=LINE('',#1029,#467);
#416=LINE('',#1035,#468);
#417=LINE('',#1036,#469);
#418=LINE('',#1040,#470);
#419=LINE('',#1042,#471);
#420=LINE('',#1043,#472);
#421=LINE('',#1045,#473);
#422=LINE('',#1047,#474);
#423=LINE('',#1051,#475);
#424=LINE('',#1055,#476);
#425=LINE('',#1063,#477);
#426=LINE('',#1069,#478);
#427=LINE('',#1073,#479);
#428=LINE('',#1079,#480);
#429=LINE('',#1080,#481);
#430=LINE('',#1083,#482);
#431=LINE('',#1086,#483);
#432=LINE('',#1088,#484);
#433=LINE('',#1090,#485);
#434=LINE('',#1093,#486);
#435=LINE('',#1095,#487);
#436=LINE('',#1097,#488);
#437=LINE('',#1101,#489);
#438=LINE('',#1106,#490);
#439=LINE('',#1109,#491);
#440=LINE('',#1111,#492);
#441=LINE('',#1117,#493);
#442=LINE('',#1121,#494);
#443=LINE('',#1122,#495);
#444=VECTOR('',#747,1.);
#445=VECTOR('',#750,1.);
#446=VECTOR('',#757,1.);
#447=VECTOR('',#760,1.);
#448=VECTOR('',#769,1.);
#449=VECTOR('',#770,1.);
#450=VECTOR('',#771,1.);
#451=VECTOR('',#772,1.);
#452=VECTOR('',#773,1.);
#453=VECTOR('',#774,1.);
#454=VECTOR('',#775,1.);
#455=VECTOR('',#776,1.);
#456=VECTOR('',#785,1.);
#457=VECTOR('',#788,1.);
#458=VECTOR('',#789,1.);
#459=VECTOR('',#790,1.);
#460=VECTOR('',#793,1.);
#461=VECTOR('',#798,1.);
#462=VECTOR('',#805,1.);
#463=VECTOR('',#806,1.);
#464=VECTOR('',#813,1.);
#465=VECTOR('',#818,1.);
#466=VECTOR('',#821,1.);
#467=VECTOR('',#822,1.);
#468=VECTOR('',#829,1.);
#469=VECTOR('',#830,1.);
#470=VECTOR('',#835,1.);
#471=VECTOR('',#836,1.);
#472=VECTOR('',#837,1.);
#473=VECTOR('',#838,1.);
#474=VECTOR('',#841,1.);
#475=VECTOR('',#846,1.);
#476=VECTOR('',#849,1.);
#477=VECTOR('',#860,1.);
#478=VECTOR('',#867,1.);
#479=VECTOR('',#870,1.);
#480=VECTOR('',#879,1.);
#481=VECTOR('',#880,1.);
#482=VECTOR('',#885,1.);
#483=VECTOR('',#890,1.);
#484=VECTOR('',#893,1.);
#485=VECTOR('',#896,1.);
#486=VECTOR('',#901,1.);
#487=VECTOR('',#902,1.);
#488=VECTOR('',#903,1.);
#489=VECTOR('',#908,1.);
#490=VECTOR('',#911,1.);
#491=VECTOR('',#916,1.);
#492=VECTOR('',#917,1.);
#493=VECTOR('',#924,1.);
#494=VECTOR('',#929,1.);
#495=VECTOR('',#930,1.);
#496=EDGE_LOOP('',(#66,#67,#68,#69));
#497=EDGE_LOOP('',(#70,#71,#72,#73));
#498=EDGE_LOOP('',(#74));
#499=EDGE_LOOP('',(#75));
#500=EDGE_LOOP('',(#76,#77,#78,#79));
#501=EDGE_LOOP('',(#80,#81,#82,#83));
#502=EDGE_LOOP('',(#84));
#503=EDGE_LOOP('',(#85));
#504=EDGE_LOOP('',(#86,#87,#88,#89,#90,#91,#92,#93,#94,#95,#96));
#505=EDGE_LOOP('',(#97));
#506=EDGE_LOOP('',(#98,#99,#100,#101,#102,#103));
#507=EDGE_LOOP('',(#104,#105,#106,#107,#108,#109,#110,#111,#112,#113,#114));
#508=EDGE_LOOP('',(#115));
#509=EDGE_LOOP('',(#116));
#510=EDGE_LOOP('',(#117,#118,#119,#120,#121,#122,#123,#124));
#511=EDGE_LOOP('',(#125));
#512=EDGE_LOOP('',(#126,#127,#128,#129,#130,#131,#132,#133));
#513=EDGE_LOOP('',(#134,#135,#136,#137));
#514=EDGE_LOOP('',(#138,#139,#140,#141,#142,#143,#144,#145,#146));
#515=EDGE_LOOP('',(#147));
#516=EDGE_LOOP('',(#148));
#517=EDGE_LOOP('',(#149));
#518=EDGE_LOOP('',(#150));
#519=EDGE_LOOP('',(#151));
#520=EDGE_LOOP('',(#152,#153,#154,#155));
#521=EDGE_LOOP('',(#156,#157,#158,#159,#160,#161,#162,#163,#164));
#522=EDGE_LOOP('',(#165));
#523=EDGE_LOOP('',(#166));
#524=EDGE_LOOP('',(#167));
#525=EDGE_LOOP('',(#168));
#526=EDGE_LOOP('',(#169));
#527=EDGE_LOOP('',(#170,#171,#172,#173));
#528=EDGE_LOOP('',(#174,#175,#176,#177));
#529=EDGE_LOOP('',(#178,#179,#180,#181));
#530=EDGE_LOOP('',(#182,#183,#184,#185));
#531=EDGE_LOOP('',(#186,#187,#188,#189));
#532=EDGE_LOOP('',(#190,#191,#192,#193));
#533=EDGE_LOOP('',(#194,#195,#196,#197));
#534=EDGE_LOOP('',(#198,#199,#200,#201));
#535=EDGE_LOOP('',(#202,#203,#204,#205));
#536=EDGE_LOOP('',(#206));
#537=EDGE_LOOP('',(#207,#208,#209,#210,#211,#212));
#538=EDGE_LOOP('',(#213,#214,#215,#216));
#539=EDGE_LOOP('',(#217));
#540=EDGE_LOOP('',(#218,#219,#220,#221,#222,#223));
#541=EDGE_LOOP('',(#224,#225,#226,#227));
#542=EDGE_LOOP('',(#228,#229,#230,#231));
#543=EDGE_LOOP('',(#232,#233,#234,#235));
#544=EDGE_LOOP('',(#236));
#545=EDGE_LOOP('',(#237));
#546=EDGE_LOOP('',(#238));
#547=EDGE_LOOP('',(#239));
#548=EDGE_LOOP('',(#240));
#549=EDGE_LOOP('',(#241));
#550=FACE_BOUND('',#496,.T.);
#551=FACE_BOUND('',#497,.T.);
#552=FACE_BOUND('',#498,.T.);
#553=FACE_BOUND('',#499,.T.);
#554=FACE_BOUND('',#500,.T.);
#555=FACE_BOUND('',#501,.T.);
#556=FACE_BOUND('',#502,.T.);
#557=FACE_BOUND('',#503,.T.);
#558=FACE_BOUND('',#504,.T.);
#559=FACE_BOUND('',#505,.T.);
#560=FACE_BOUND('',#506,.T.);
#561=FACE_BOUND('',#507,.T.);
#562=FACE_BOUND('',#508,.T.);
#563=FACE_BOUND('',#509,.T.);
#564=FACE_BOUND('',#510,.T.);
#565=FACE_BOUND('',#511,.T.);
#566=FACE_BOUND('',#512,.T.);
#567=FACE_BOUND('',#513,.T.);
#568=FACE_BOUND('',#514,.T.);
#569=FACE_BOUND('',#515,.T.);
#570=FACE_BOUND('',#516,.T.);
#571=FACE_BOUND('',#517,.T.);
#572=FACE_BOUND('',#518,.T.);
#573=FACE_BOUND('',#519,.T.);
#574=FACE_BOUND('',#520,.T.);
#575=FACE_BOUND('',#521,.T.);
#576=FACE_BOUND('',#522,.T.);
#577=FACE_BOUND('',#523,.T.);
#578=FACE_BOUND('',#524,.T.);
#579=FACE_BOUND('',#525,.T.);
#580=FACE_BOUND('',#526,.T.);
#581=FACE_BOUND('',#527,.T.);
#582=FACE_BOUND('',#528,.T.);
#583=FACE_BOUND('',#529,.T.);
#584=FACE_BOUND('',#530,.T.);
#585=FACE_BOUND('',#531,.T.);
#586=FACE_BOUND('',#532,.T.);
#587=FACE_BOUND('',#533,.T.);
#588=FACE_BOUND('',#534,.T.);
#589=FACE_BOUND('',#535,.T.);
#590=FACE_BOUND('',#536,.T.);
#591=FACE_BOUND('',#537,.T.);
#592=FACE_BOUND('',#538,.T.);
#593=FACE_BOUND('',#539,.T.);
#594=FACE_BOUND('',#540,.T.);
#595=FACE_BOUND('',#541,.T.);
#596=FACE_BOUND('',#542,.T.);
#597=FACE_BOUND('',#543,.T.);
#598=FACE_BOUND('',#544,.T.);
#599=FACE_BOUND('',#545,.T.);
#600=FACE_BOUND('',#546,.T.);
#601=FACE_BOUND('',#547,.T.);
#602=FACE_BOUND('',#548,.T.);
#603=FACE_BOUND('',#549,.T.);
#604=CYLINDRICAL_SURFACE('',#671,0.005);
#605=CYLINDRICAL_SURFACE('',#674,0.005);
#606=CYLINDRICAL_SURFACE('',#677,0.00405);
#607=CYLINDRICAL_SURFACE('',#681,0.00405);
#608=CYLINDRICAL_SURFACE('',#690,0.0075);
#609=CYLINDRICAL_SURFACE('',#703,0.005);
#610=CYLINDRICAL_SURFACE('',#708,0.0035);
#611=CYLINDRICAL_SURFACE('',#711,0.005);
#612=CYLINDRICAL_SURFACE('',#716,0.0035);
#613=CYLINDRICAL_SURFACE('',#720,0.00500098039215686);
#614=CYLINDRICAL_SURFACE('',#722,0.00025);
#615=CYLINDRICAL_SURFACE('',#724,0.00500098039215686);
#616=CYLINDRICAL_SURFACE('',#726,0.00025);
#617=CYLINDRICAL_SURFACE('',#738,0.002);
#618=CYLINDRICAL_SURFACE('',#739,0.002);
#619=CYLINDRICAL_SURFACE('',#740,0.0015);
#620=CYLINDRICAL_SURFACE('',#741,0.0015);
#621=CYLINDRICAL_SURFACE('',#742,0.00125);
#622=ADVANCED_FACE('',(#550),#604,.T.);
#623=ADVANCED_FACE('',(#551),#605,.T.);
#624=ADVANCED_FACE('',(#552,#553),#606,.F.);
#625=ADVANCED_FACE('',(#554,#555),#12,.F.);
#626=ADVANCED_FACE('',(#556,#557),#607,.F.);
#627=ADVANCED_FACE('',(#558,#559),#13,.T.);
#628=ADVANCED_FACE('',(#560),#608,.T.);
#629=ADVANCED_FACE('',(#561,#562),#14,.F.);
#630=ADVANCED_FACE('',(#563,#564),#15,.T.);
#631=ADVANCED_FACE('',(#565,#566),#16,.F.);
#632=ADVANCED_FACE('',(#567),#609,.T.);
#633=ADVANCED_FACE('',(#568,#569),#17,.F.);
#634=ADVANCED_FACE('',(#570,#571),#610,.F.);
#635=ADVANCED_FACE('',(#572,#573),#18,.F.);
#636=ADVANCED_FACE('',(#574),#611,.T.);
#637=ADVANCED_FACE('',(#575,#576),#19,.F.);
#638=ADVANCED_FACE('',(#577,#578),#612,.F.);
#639=ADVANCED_FACE('',(#579,#580),#20,.F.);
#640=ADVANCED_FACE('',(#581),#21,.T.);
#641=ADVANCED_FACE('',(#582),#613,.T.);
#642=ADVANCED_FACE('',(#583),#22,.T.);
#643=ADVANCED_FACE('',(#584),#614,.T.);
#644=ADVANCED_FACE('',(#585),#23,.T.);
#645=ADVANCED_FACE('',(#586),#615,.T.);
#646=ADVANCED_FACE('',(#587),#24,.T.);
#647=ADVANCED_FACE('',(#588),#616,.T.);
#648=ADVANCED_FACE('',(#589),#25,.F.);
#649=ADVANCED_FACE('',(#590,#591),#26,.F.);
#650=ADVANCED_FACE('',(#592),#27,.F.);
#651=ADVANCED_FACE('',(#593,#594),#28,.F.);
#652=ADVANCED_FACE('',(#595),#29,.F.);
#653=ADVANCED_FACE('',(#596),#617,.F.);
#654=ADVANCED_FACE('',(#597),#618,.F.);
#655=ADVANCED_FACE('',(#598,#599),#619,.F.);
#656=ADVANCED_FACE('',(#600,#601),#620,.F.);
#657=ADVANCED_FACE('',(#602,#603),#621,.F.);
#658=CLOSED_SHELL('',(#622,#623,#624,#625,#626,#627,#628,#629,#630,#631,
#632,#633,#634,#635,#636,#637,#638,#639,#640,#641,#642,#643,#644,#645,#646,
#647,#648,#649,#650,#651,#652,#653,#654,#655,#656,#657));
#659=STYLED_ITEM('',(#660),#667);
#660=PRESENTATION_STYLE_ASSIGNMENT((#661));
#661=SURFACE_STYLE_USAGE(.BOTH.,#662);
#662=SURFACE_SIDE_STYLE('',(#663));
#663=SURFACE_STYLE_FILL_AREA(#664);
#664=FILL_AREA_STYLE('',(#665));
#665=FILL_AREA_STYLE_COLOUR('',#666);
#666=COLOUR_RGB('',0.615686274509804,0.811764705882353,0.929411764705882);
#667=MANIFOLD_SOLID_BREP('Top_Segment',#658);
#668=SHAPE_DEFINITION_REPRESENTATION(#1134,#669);
#669=SHAPE_REPRESENTATION('Top_Segment',(#670),#1129);
#670=AXIS2_PLACEMENT_3D('',#941,#743,#744);
#671=AXIS2_PLACEMENT_3D('',#942,#745,#746);
#672=AXIS2_PLACEMENT_3D('',#946,#748,#749);
#673=AXIS2_PLACEMENT_3D('',#950,#751,#752);
#674=AXIS2_PLACEMENT_3D('',#951,#753,#754);
#675=AXIS2_PLACEMENT_3D('',#952,#755,#756);
#676=AXIS2_PLACEMENT_3D('',#957,#758,#759);
#677=AXIS2_PLACEMENT_3D('',#960,#761,#762);
#678=AXIS2_PLACEMENT_3D('',#961,#763,#764);
#679=AXIS2_PLACEMENT_3D('',#963,#765,#766);
#680=AXIS2_PLACEMENT_3D('',#965,#767,#768);
#681=AXIS2_PLACEMENT_3D('',#982,#777,#778);
#682=AXIS2_PLACEMENT_3D('',#983,#779,#780);
#683=AXIS2_PLACEMENT_3D('',#985,#781,#782);
#684=AXIS2_PLACEMENT_3D('',#987,#783,#784);
#685=AXIS2_PLACEMENT_3D('',#991,#786,#787);
#686=AXIS2_PLACEMENT_3D('',#997,#791,#792);
#687=AXIS2_PLACEMENT_3D('',#1001,#794,#795);
#688=AXIS2_PLACEMENT_3D('',#1003,#796,#797);
#689=AXIS2_PLACEMENT_3D('',#1006,#799,#800);
#690=AXIS2_PLACEMENT_3D('',#1008,#801,#802);
#691=AXIS2_PLACEMENT_3D('',#1009,#803,#804);
#692=AXIS2_PLACEMENT_3D('',#1015,#807,#808);
#693=AXIS2_PLACEMENT_3D('',#1016,#809,#810);
#694=AXIS2_PLACEMENT_3D('',#1017,#811,#812);
#695=AXIS2_PLACEMENT_3D('',#1020,#814,#815);
#696=AXIS2_PLACEMENT_3D('',#1022,#816,#817);
#697=AXIS2_PLACEMENT_3D('',#1026,#819,#820);
#698=AXIS2_PLACEMENT_3D('',#1030,#823,#824);
#699=AXIS2_PLACEMENT_3D('',#1032,#825,#826);
#700=AXIS2_PLACEMENT_3D('',#1033,#827,#828);
#701=AXIS2_PLACEMENT_3D('',#1037,#831,#832);
#702=AXIS2_PLACEMENT_3D('',#1038,#833,#834);
#703=AXIS2_PLACEMENT_3D('',#1046,#839,#840);
#704=AXIS2_PLACEMENT_3D('',#1049,#842,#843);
#705=AXIS2_PLACEMENT_3D('',#1050,#844,#845);
#706=AXIS2_PLACEMENT_3D('',#1054,#847,#848);
#707=AXIS2_PLACEMENT_3D('',#1057,#850,#851);
#708=AXIS2_PLACEMENT_3D('',#1058,#852,#853);
#709=AXIS2_PLACEMENT_3D('',#1059,#854,#855);
#710=AXIS2_PLACEMENT_3D('',#1061,#856,#857);
#711=AXIS2_PLACEMENT_3D('',#1062,#858,#859);
#712=AXIS2_PLACEMENT_3D('',#1065,#861,#862);
#713=AXIS2_PLACEMENT_3D('',#1066,#863,#864);
#714=AXIS2_PLACEMENT_3D('',#1067,#865,#866);
#715=AXIS2_PLACEMENT_3D('',#1071,#868,#869);
#716=AXIS2_PLACEMENT_3D('',#1074,#871,#872);
#717=AXIS2_PLACEMENT_3D('',#1075,#873,#874);
#718=AXIS2_PLACEMENT_3D('',#1077,#875,#876);
#719=AXIS2_PLACEMENT_3D('',#1078,#877,#878);
#720=AXIS2_PLACEMENT_3D('',#1081,#881,#882);
#721=AXIS2_PLACEMENT_3D('',#1082,#883,#884);
#722=AXIS2_PLACEMENT_3D('',#1084,#886,#887);
#723=AXIS2_PLACEMENT_3D('',#1085,#888,#889);
#724=AXIS2_PLACEMENT_3D('',#1087,#891,#892);
#725=AXIS2_PLACEMENT_3D('',#1089,#894,#895);
#726=AXIS2_PLACEMENT_3D('',#1091,#897,#898);
#727=AXIS2_PLACEMENT_3D('',#1092,#899,#900);
#728=AXIS2_PLACEMENT_3D('',#1098,#904,#905);
#729=AXIS2_PLACEMENT_3D('',#1099,#906,#907);
#730=AXIS2_PLACEMENT_3D('',#1104,#909,#910);
#731=AXIS2_PLACEMENT_3D('',#1107,#912,#913);
#732=AXIS2_PLACEMENT_3D('',#1108,#914,#915);
#733=AXIS2_PLACEMENT_3D('',#1112,#918,#919);
#734=AXIS2_PLACEMENT_3D('',#1113,#920,#921);
#735=AXIS2_PLACEMENT_3D('',#1115,#922,#923);
#736=AXIS2_PLACEMENT_3D('',#1119,#925,#926);
#737=AXIS2_PLACEMENT_3D('',#1120,#927,#928);
#738=AXIS2_PLACEMENT_3D('',#1123,#931,#932);
#739=AXIS2_PLACEMENT_3D('',#1124,#933,#934);
#740=AXIS2_PLACEMENT_3D('',#1125,#935,#936);
#741=AXIS2_PLACEMENT_3D('',#1126,#937,#938);
#742=AXIS2_PLACEMENT_3D('',#1127,#939,#940);
#743=DIRECTION('',(0.,0.,1.));
#744=DIRECTION('',(1.,0.,0.));
#745=DIRECTION('',(1.,0.,1.7347234759768E-16));
#746=DIRECTION('',(1.7347234759768E-16,0.,-1.));
#747=DIRECTION('',(-1.,0.,0.));
#748=DIRECTION('',(-1.,0.,-1.7347234759768E-16));
#749=DIRECTION('',(-1.7347234759768E-16,0.,1.));
#750=DIRECTION('',(1.,0.,1.7347234759768E-16));
#751=DIRECTION('',(-1.,0.,-1.7347234759768E-16));
#752=DIRECTION('',(-1.7347234759768E-16,0.,1.));
#753=DIRECTION('',(-1.,0.,1.7347234759768E-16));
#754=DIRECTION('',(1.7347234759768E-16,0.,1.));
#755=DIRECTION('',(-1.,0.,1.7347234759768E-16));
#756=DIRECTION('',(1.7347234759768E-16,0.,1.));
#757=DIRECTION('',(1.,0.,0.));
#758=DIRECTION('',(-1.,0.,1.7347234759768E-16));
#759=DIRECTION('',(1.7347234759768E-16,0.,1.));
#760=DIRECTION('',(-1.,0.,1.7347234759768E-16));
#761=DIRECTION('',(1.,0.,1.7347234759768E-16));
#762=DIRECTION('',(1.7347234759768E-16,0.,-1.));
#763=DIRECTION('',(-1.,0.,-1.7347234759768E-16));
#764=DIRECTION('',(-1.7347234759768E-16,0.,1.));
#765=DIRECTION('',(-1.,0.,-1.7347234759768E-16));
#766=DIRECTION('',(-1.7347234759768E-16,0.,1.));
#767=DIRECTION('',(0.,0.,1.));
#768=DIRECTION('',(1.,0.,0.));
#769=DIRECTION('',(0.,-1.,0.));
#770=DIRECTION('',(1.,0.,0.));
#771=DIRECTION('',(0.,1.,0.));
#772=DIRECTION('',(-1.,0.,0.));
#773=DIRECTION('',(0.,1.,0.));
#774=DIRECTION('',(1.,0.,0.));
#775=DIRECTION('',(0.,1.,0.));
#776=DIRECTION('',(1.,0.,0.));
#777=DIRECTION('',(-1.,0.,1.7347234759768E-16));
#778=DIRECTION('',(1.7347234759768E-16,0.,1.));
#779=DIRECTION('',(-1.,0.,1.7347234759768E-16));
#780=DIRECTION('',(1.7347234759768E-16,0.,1.));
#781=DIRECTION('',(-1.,0.,1.7347234759768E-16));
#782=DIRECTION('',(1.7347234759768E-16,0.,1.));
#783=DIRECTION('',(1.,0.,-1.7347234759768E-16));
#784=DIRECTION('',(-1.7347234759768E-16,0.,-1.));
#785=DIRECTION('',(0.,1.,0.));
#786=DIRECTION('',(1.,0.,-1.7347234759768E-16));
#787=DIRECTION('',(-1.7347234759768E-16,0.,-1.));
#788=DIRECTION('',(0.,1.,0.));
#789=DIRECTION('',(-1.7347234759768E-16,0.,-1.));
#790=DIRECTION('',(0.,-1.,0.));
#791=DIRECTION('',(1.,0.,1.7347234759768E-16));
#792=DIRECTION('',(1.7347234759768E-16,0.,-1.));
#793=DIRECTION('',(1.7347234759768E-16,0.,-1.));
#794=DIRECTION('',(1.,0.,1.7347234759768E-16));
#795=DIRECTION('',(1.7347234759768E-16,0.,-1.));
#796=DIRECTION('',(-1.,0.,-1.7347234759768E-16));
#797=DIRECTION('',(-1.7347234759768E-16,0.,1.));
#798=DIRECTION('',(-1.7347234759768E-16,0.,-1.));
#799=DIRECTION('',(-1.,0.,-1.7347234759768E-16));
#800=DIRECTION('',(-1.7347234759768E-16,0.,1.));
#801=DIRECTION('',(0.,1.,0.));
#802=DIRECTION('',(0.,0.,1.));
#803=DIRECTION('',(0.,-1.,0.));
#804=DIRECTION('',(0.,0.,-1.));
#805=DIRECTION('',(0.,1.,0.));
#806=DIRECTION('',(0.,1.,0.));
#807=DIRECTION('',(0.,-1.,0.));
#808=DIRECTION('',(0.,0.,-1.));
#809=DIRECTION('',(1.,0.,-1.7347234759768E-16));
#810=DIRECTION('',(-1.7347234759768E-16,0.,-1.));
#811=DIRECTION('',(-1.,0.,1.7347234759768E-16));
#812=DIRECTION('',(1.7347234759768E-16,0.,1.));
#813=DIRECTION('',(-1.7347234759768E-16,0.,-1.));
#814=DIRECTION('',(-1.,0.,1.7347234759768E-16));
#815=DIRECTION('',(1.7347234759768E-16,0.,1.));
#816=DIRECTION('',(1.,0.,-1.7347234759768E-16));
#817=DIRECTION('',(-1.7347234759768E-16,0.,-1.));
#818=DIRECTION('',(-1.7347234759768E-16,0.,-1.));
#819=DIRECTION('',(1.,0.,-1.7347234759768E-16));
#820=DIRECTION('',(-1.7347234759768E-16,0.,-1.));
#821=DIRECTION('',(0.,-1.,0.));
#822=DIRECTION('',(-1.7347234759768E-16,0.,-1.));
#823=DIRECTION('',(-1.,0.,1.7347234759768E-16));
#824=DIRECTION('',(1.7347234759768E-16,0.,1.));
#825=DIRECTION('',(0.,-1.,0.));
#826=DIRECTION('',(1.,0.,0.));
#827=DIRECTION('',(0.,1.,0.));
#828=DIRECTION('',(0.,0.,1.));
#829=DIRECTION('',(-1.7347234759768E-16,0.,-1.));
#830=DIRECTION('',(1.7347234759768E-16,0.,-1.));
#831=DIRECTION('',(0.,-1.,0.));
#832=DIRECTION('',(1.,0.,0.));
#833=DIRECTION('',(0.,1.,0.));
#834=DIRECTION('',(0.,0.,1.));
#835=DIRECTION('',(1.,0.,1.7347234759768E-16));
#836=DIRECTION('',(1.7347234759768E-16,0.,-1.));
#837=DIRECTION('',(-1.7347234759768E-16,0.,-1.));
#838=DIRECTION('',(-1.,0.,1.7347234759768E-16));
#839=DIRECTION('',(-1.,0.,1.7347234759768E-16));
#840=DIRECTION('',(1.7347234759768E-16,0.,1.));
#841=DIRECTION('',(1.,0.,0.));
#842=DIRECTION('',(-1.,0.,1.7347234759768E-16));
#843=DIRECTION('',(1.7347234759768E-16,0.,1.));
#844=DIRECTION('',(-1.,0.,1.7347234759768E-16));
#845=DIRECTION('',(0.,-1.,0.));
#846=DIRECTION('',(0.,0.,1.));
#847=DIRECTION('',(-1.,0.,0.));
#848=DIRECTION('',(0.,0.,1.));
#849=DIRECTION('',(0.,1.,0.));
#850=DIRECTION('',(-1.,0.,1.7347234759768E-16));
#851=DIRECTION('',(1.7347234759768E-16,0.,1.));
#852=DIRECTION('',(-1.,0.,1.7347234759768E-16));
#853=DIRECTION('',(1.7347234759768E-16,0.,1.));
#854=DIRECTION('',(-1.,0.,1.7347234759768E-16));
#855=DIRECTION('',(1.7347234759768E-16,0.,1.));
#856=DIRECTION('',(-1.,0.,1.7347234759768E-16));
#857=DIRECTION('',(0.,-1.,0.));
#858=DIRECTION('',(1.,0.,1.7347234759768E-16));
#859=DIRECTION('',(1.7347234759768E-16,0.,-1.));
#860=DIRECTION('',(-1.,0.,0.));
#861=DIRECTION('',(-1.,0.,-1.7347234759768E-16));
#862=DIRECTION('',(-1.7347234759768E-16,0.,1.));
#863=DIRECTION('',(1.,0.,1.7347234759768E-16));
#864=DIRECTION('',(0.,-1.,0.));
#865=DIRECTION('',(-1.,0.,0.));
#866=DIRECTION('',(0.,0.,1.));
#867=DIRECTION('',(0.,0.,1.));
#868=DIRECTION('',(-1.,0.,-1.7347234759768E-16));
#869=DIRECTION('',(-1.7347234759768E-16,0.,1.));
#870=DIRECTION('',(0.,1.,0.));
#871=DIRECTION('',(1.,0.,1.7347234759768E-16));
#872=DIRECTION('',(1.7347234759768E-16,0.,-1.));
#873=DIRECTION('',(-1.,0.,-1.7347234759768E-16));
#874=DIRECTION('',(-1.7347234759768E-16,0.,1.));
#875=DIRECTION('',(1.,0.,1.7347234759768E-16));
#876=DIRECTION('',(0.,-1.,0.));
#877=DIRECTION('',(0.,1.,0.));
#878=DIRECTION('',(0.,0.,1.));
#879=DIRECTION('',(1.,0.,0.));
#880=DIRECTION('',(1.,0.,0.));
#881=DIRECTION('',(1.,0.,0.));
#882=DIRECTION('',(0.,0.,-1.));
#883=DIRECTION('',(0.,0.,-1.));
#884=DIRECTION('',(-1.,0.,0.));
#885=DIRECTION('',(1.,0.,0.));
#886=DIRECTION('',(1.,0.,0.));
#887=DIRECTION('',(0.,0.,-1.));
#888=DIRECTION('',(0.,0.,-1.));
#889=DIRECTION('',(1.,0.,0.));
#890=DIRECTION('',(-1.,0.,0.));
#891=DIRECTION('',(-1.,0.,0.));
#892=DIRECTION('',(0.,0.,-1.));
#893=DIRECTION('',(-1.,0.,0.));
#894=DIRECTION('',(0.,1.,0.));
#895=DIRECTION('',(0.,0.,1.));
#896=DIRECTION('',(-1.,0.,0.));
#897=DIRECTION('',(-1.,0.,0.));
#898=DIRECTION('',(0.,0.,-1.));
#899=DIRECTION('',(0.,-1.,0.));
#900=DIRECTION('',(0.,0.,-1.));
#901=DIRECTION('',(0.,0.,1.));
#902=DIRECTION('',(1.,0.,0.));
#903=DIRECTION('',(0.,0.,1.));
#904=DIRECTION('',(1.,0.,0.));
#905=DIRECTION('',(0.,0.,-1.));
#906=DIRECTION('',(1.,0.,0.));
#907=DIRECTION('',(0.,0.,-1.));
#908=DIRECTION('',(0.,1.,0.));
#909=DIRECTION('',(1.,0.,0.));
#910=DIRECTION('',(0.,0.,-1.));
#911=DIRECTION('',(0.,0.,1.));
#912=DIRECTION('',(1.,0.,0.));
#913=DIRECTION('',(0.,0.,-1.));
#914=DIRECTION('',(0.,1.,0.));
#915=DIRECTION('',(0.,0.,1.));
#916=DIRECTION('',(-1.,0.,0.));
#917=DIRECTION('',(0.,0.,1.));
#918=DIRECTION('',(-1.,0.,0.));
#919=DIRECTION('',(0.,0.,1.));
#920=DIRECTION('',(-1.,0.,0.));
#921=DIRECTION('',(0.,0.,1.));
#922=DIRECTION('',(-1.,0.,0.));
#923=DIRECTION('',(0.,0.,1.));
#924=DIRECTION('',(0.,-1.,0.));
#925=DIRECTION('',(-1.,0.,0.));
#926=DIRECTION('',(0.,0.,1.));
#927=DIRECTION('',(0.,0.,1.));
#928=DIRECTION('',(1.,0.,0.));
#929=DIRECTION('',(-1.,0.,0.));
#930=DIRECTION('',(1.,0.,0.));
#931=DIRECTION('',(1.,0.,0.));
#932=DIRECTION('',(0.,0.,-1.));
#933=DIRECTION('',(-1.,0.,0.));
#934=DIRECTION('',(0.,0.,1.));
#935=DIRECTION('',(-1.,0.,1.7347234759768E-16));
#936=DIRECTION('',(1.7347234759768E-16,0.,1.));
#937=DIRECTION('',(-1.,0.,1.7347234759768E-16));
#938=DIRECTION('',(1.7347234759768E-16,0.,1.));
#939=DIRECTION('',(0.,1.,0.));
#940=DIRECTION('',(0.,0.,1.));
#941=CARTESIAN_POINT('',(0.,0.,0.));
#942=CARTESIAN_POINT('',(0.0045,-0.005,-0.015));
#943=CARTESIAN_POINT('',(0.007502,-0.001,-0.018));
#944=CARTESIAN_POINT('',(0.0075,-0.001,-0.018));
#945=CARTESIAN_POINT('',(0.0045,-0.001,-0.018));
#946=CARTESIAN_POINT('',(0.0075,-0.005,-0.015));
#947=CARTESIAN_POINT('',(0.0075,-0.01,-0.015));
#948=CARTESIAN_POINT('',(0.0045,-0.01,-0.015));
#949=CARTESIAN_POINT('',(0.0045,-0.01,-0.015));
#950=CARTESIAN_POINT('',(0.0045,-0.005,-0.015));
#951=CARTESIAN_POINT('',(-0.0045,-0.005,-0.015));
#952=CARTESIAN_POINT('',(-0.0075,-0.005,-0.015));
#953=CARTESIAN_POINT('',(-0.0075,-0.000999016355165376,-0.018));
#954=CARTESIAN_POINT('',(-0.0075,-0.01,-0.015));
#955=CARTESIAN_POINT('',(-0.007502,-0.001,-0.018));
#956=CARTESIAN_POINT('',(-0.0045,-0.000998981631416184,-0.018));
#957=CARTESIAN_POINT('',(-0.0045,-0.005,-0.015));
#958=CARTESIAN_POINT('',(-0.0045,-0.01,-0.015));
#959=CARTESIAN_POINT('',(-0.0045,-0.01,-0.015));
#960=CARTESIAN_POINT('',(0.0045,-0.005,-0.015));
#961=CARTESIAN_POINT('',(0.0045,-0.005,-0.015));
#962=CARTESIAN_POINT('',(0.0045,-0.005,-0.01095));
#963=CARTESIAN_POINT('',(0.007,-0.005,-0.015));
#964=CARTESIAN_POINT('',(0.007,-0.005,-0.01095));
#965=CARTESIAN_POINT('',(-2.60208521396521E-18,-0.01,-0.01));
#966=CARTESIAN_POINT('',(-0.0015,-0.01,-0.01));
#967=CARTESIAN_POINT('',(-0.0015,-0.002,-0.01));
#968=CARTESIAN_POINT('',(-0.0015,-0.008,-0.01));
#969=CARTESIAN_POINT('',(-2.60208521396521E-18,-0.008,-0.01));
#970=CARTESIAN_POINT('',(0.0015,-0.008,-0.01));
#971=CARTESIAN_POINT('',(0.0015,-0.01,-0.01));
#972=CARTESIAN_POINT('',(0.0015,-0.002,-0.01));
#973=CARTESIAN_POINT('',(-2.60208521396521E-18,-0.002,-0.01));
#974=CARTESIAN_POINT('',(0.0045,-0.01,-0.01));
#975=CARTESIAN_POINT('',(0.0045,-0.01,-0.01));
#976=CARTESIAN_POINT('',(0.0045,0.,-0.01));
#977=CARTESIAN_POINT('',(-2.60208521396521E-18,-0.01,-0.01));
#978=CARTESIAN_POINT('',(-0.0045,-0.01,-0.01));
#979=CARTESIAN_POINT('',(-0.0045,-0.01,-0.01));
#980=CARTESIAN_POINT('',(-0.0045,0.,-0.01));
#981=CARTESIAN_POINT('',(-2.60208521396521E-18,0.,-0.01));
#982=CARTESIAN_POINT('',(-0.0045,-0.005,-0.015));
#983=CARTESIAN_POINT('',(-0.0045,-0.005,-0.015));
#984=CARTESIAN_POINT('',(-0.0045,-0.005,-0.01095));
#985=CARTESIAN_POINT('',(-0.007,-0.005,-0.015));
#986=CARTESIAN_POINT('',(-0.007,-0.005,-0.01095));
#987=CARTESIAN_POINT('',(0.0075,-0.01,1.7347234759768E-18));
#988=CARTESIAN_POINT('',(0.0075,-0.01,0.01));
#989=CARTESIAN_POINT('',(0.0075,-0.005,0.01));
#990=CARTESIAN_POINT('',(0.0075,0.,0.01));
#991=CARTESIAN_POINT('',(0.0075,-0.005,0.0085));
#992=CARTESIAN_POINT('',(0.0075,-0.01,0.01));
#993=CARTESIAN_POINT('',(0.0075,-0.01,0.01));
#994=CARTESIAN_POINT('',(0.0075,-0.01,1.7347234759768E-18));
#995=CARTESIAN_POINT('',(0.0075,-0.0005,-0.018));
#996=CARTESIAN_POINT('',(0.0075,-0.00025,-0.018));
#997=CARTESIAN_POINT('',(0.0075,-0.00025,-0.01775));
#998=CARTESIAN_POINT('',(0.0075,0.,-0.01775));
#999=CARTESIAN_POINT('',(0.0075,0.,-0.0154));
#1000=CARTESIAN_POINT('',(0.0075,0.,-0.0152019607843136));
#1001=CARTESIAN_POINT('',(0.0075,-0.005,-0.0153009803921568));
#1002=CARTESIAN_POINT('',(0.0075,-1.80134093932631E-6,-0.0151342019543974));
#1003=CARTESIAN_POINT('',(0.0075,-0.005,-0.015));
#1004=CARTESIAN_POINT('',(0.0075,0.,-0.015));
#1005=CARTESIAN_POINT('',(0.0075,0.,1.7347234759768E-18));
#1006=CARTESIAN_POINT('',(0.0075,-0.005,-0.015));
#1007=CARTESIAN_POINT('',(0.0075,-0.005,-0.0115));
#1008=CARTESIAN_POINT('',(1.7347234759768E-18,-0.01,0.01));
#1009=CARTESIAN_POINT('',(1.7347234759768E-18,0.,0.01));
#1010=CARTESIAN_POINT('',(-0.0075,0.,0.01));
#1011=CARTESIAN_POINT('',(-0.0075,-0.01,0.01));
#1012=CARTESIAN_POINT('',(-0.0075,-0.005,0.01));
#1013=CARTESIAN_POINT('',(-0.0075,-0.01,0.01));
#1014=CARTESIAN_POINT('',(-0.0075,-0.01,0.01));
#1015=CARTESIAN_POINT('',(1.7347234759768E-18,-0.01,0.01));
#1016=CARTESIAN_POINT('',(-0.0075,-0.01,1.7347234759768E-18));
#1017=CARTESIAN_POINT('',(-0.0075,-0.005,0.0085));
#1018=CARTESIAN_POINT('',(-0.0075,0.,1.7347234759768E-18));
#1019=CARTESIAN_POINT('',(-0.0075,0.,-0.015));
#1020=CARTESIAN_POINT('',(-0.0075,-0.005,-0.015));
#1021=CARTESIAN_POINT('',(-0.0075,-1.80134093932457E-6,-0.0151342019543974));
#1022=CARTESIAN_POINT('',(-0.0075,-0.005,-0.0153009803921568));
#1023=CARTESIAN_POINT('',(-0.0075,0.,-0.0152019607843136));
#1024=CARTESIAN_POINT('',(-0.0075,0.,-0.0154));
#1025=CARTESIAN_POINT('',(-0.0075,0.,-0.01775));
#1026=CARTESIAN_POINT('',(-0.0075,-0.00025,-0.01775));
#1027=CARTESIAN_POINT('',(-0.0075,-0.00025,-0.018));
#1028=CARTESIAN_POINT('',(-0.0075,-0.0005,-0.018));
#1029=CARTESIAN_POINT('',(-0.0075,-0.01,1.7347234759768E-18));
#1030=CARTESIAN_POINT('',(-0.0075,-0.005,-0.015));
#1031=CARTESIAN_POINT('',(-0.0075,-0.005,-0.0115));
#1032=CARTESIAN_POINT('',(0.,-0.01,0.00375));
#1033=CARTESIAN_POINT('',(0.,-0.01,0.015));
#1034=CARTESIAN_POINT('',(0.,-0.01,0.01625));
#1035=CARTESIAN_POINT('',(-0.0045,-0.01,-0.0125));
#1036=CARTESIAN_POINT('',(0.0045,-0.01,-0.0125));
#1037=CARTESIAN_POINT('',(0.,0.,0.00375));
#1038=CARTESIAN_POINT('',(0.,0.,0.015));
#1039=CARTESIAN_POINT('',(0.,0.,0.01625));
#1040=CARTESIAN_POINT('',(0.0045,0.,-0.015));
#1041=CARTESIAN_POINT('',(0.0045,0.,-0.015));
#1042=CARTESIAN_POINT('',(0.0045,0.,-0.0125));
#1043=CARTESIAN_POINT('',(-0.0045,0.,-0.0125));
#1044=CARTESIAN_POINT('',(-0.0045,0.,-0.015));
#1045=CARTESIAN_POINT('',(-0.0045,0.,-0.015));
#1046=CARTESIAN_POINT('',(-0.0045,-0.005,-0.015));
#1047=CARTESIAN_POINT('',(-0.007502,-1.80134093932717E-6,-0.0151342019543974));
#1048=CARTESIAN_POINT('',(-0.0045,-1.80134093932717E-6,-0.0151342019543974));
#1049=CARTESIAN_POINT('',(-0.0045,-0.005,-0.015));
#1050=CARTESIAN_POINT('',(-0.0045,-0.005,-0.005));
#1051=CARTESIAN_POINT('',(-0.0045,0.,-0.0154));
#1052=CARTESIAN_POINT('',(-0.0045,0.,-0.01775));
#1053=CARTESIAN_POINT('',(-0.0045,0.,-0.0152019607843136));
#1054=CARTESIAN_POINT('',(-0.0045,-0.005,-0.0153009803921568));
#1055=CARTESIAN_POINT('',(-0.0045,-0.0005,-0.018));
#1056=CARTESIAN_POINT('',(-0.0045,-0.00025,-0.018));
#1057=CARTESIAN_POINT('',(-0.0045,-0.00025,-0.01775));
#1058=CARTESIAN_POINT('',(-0.007,-0.005,-0.015));
#1059=CARTESIAN_POINT('',(-0.007,-0.005,-0.015));
#1060=CARTESIAN_POINT('',(-0.007,-0.005,-0.0115));
#1061=CARTESIAN_POINT('',(-0.007,-0.005,-0.005));
#1062=CARTESIAN_POINT('',(0.0045,-0.005,-0.015));
#1063=CARTESIAN_POINT('',(0.007502,-1.80134093932717E-6,-0.0151342019543974));
#1064=CARTESIAN_POINT('',(0.0045,-1.80134093932609E-6,-0.0151342019543974));
#1065=CARTESIAN_POINT('',(0.0045,-0.005,-0.015));
#1066=CARTESIAN_POINT('',(0.0045,-0.005,-0.005));
#1067=CARTESIAN_POINT('',(0.0045,-0.005,-0.0153009803921568));
#1068=CARTESIAN_POINT('',(0.0045,0.,-0.0152019607843136));
#1069=CARTESIAN_POINT('',(0.0045,0.,-0.0154));
#1070=CARTESIAN_POINT('',(0.0045,0.,-0.01775));
#1071=CARTESIAN_POINT('',(0.0045,-0.00025,-0.01775));
#1072=CARTESIAN_POINT('',(0.0045,-0.00025,-0.018));
#1073=CARTESIAN_POINT('',(0.0045,-0.0005,-0.018));
#1074=CARTESIAN_POINT('',(0.007,-0.005,-0.015));
#1075=CARTESIAN_POINT('',(0.007,-0.005,-0.015));
#1076=CARTESIAN_POINT('',(0.007,-0.005,-0.0115));
#1077=CARTESIAN_POINT('',(0.007,-0.005,-0.005));
#1078=CARTESIAN_POINT('',(-0.007502,0.,-0.0154));
#1079=CARTESIAN_POINT('',(-0.007502,0.,-0.01775));
#1080=CARTESIAN_POINT('',(-0.007502,0.,-0.0152019607843136));
#1081=CARTESIAN_POINT('',(-0.007502,-0.005,-0.0153009803921568));
#1082=CARTESIAN_POINT('',(-0.007502,-0.0005,-0.018));
#1083=CARTESIAN_POINT('',(-0.007502,-0.00025,-0.018));
#1084=CARTESIAN_POINT('',(-0.007502,-0.00025,-0.01775));
#1085=CARTESIAN_POINT('',(0.007502,-0.0005,-0.018));
#1086=CARTESIAN_POINT('',(0.007502,-0.00025,-0.018));
#1087=CARTESIAN_POINT('',(0.007502,-0.005,-0.0153009803921568));
#1088=CARTESIAN_POINT('',(0.007502,0.,-0.0152019607843136));
#1089=CARTESIAN_POINT('',(0.007502,0.,-0.0154));
#1090=CARTESIAN_POINT('',(0.007502,0.,-0.01775));
#1091=CARTESIAN_POINT('',(0.007502,-0.00025,-0.01775));
#1092=CARTESIAN_POINT('',(-1.3010426069826E-18,-0.008,-0.123613894013082));
#1093=CARTESIAN_POINT('',(-0.0015,-0.008,-0.123613894013082));
#1094=CARTESIAN_POINT('',(-0.0015,-0.008,0.0105));
#1095=CARTESIAN_POINT('',(0.0015,-0.008,0.0105));
#1096=CARTESIAN_POINT('',(0.0015,-0.008,0.0105));
#1097=CARTESIAN_POINT('',(0.0015,-0.008,-0.123613894013082));
#1098=CARTESIAN_POINT('',(0.0015,-0.005,-0.123613894013082));
#1099=CARTESIAN_POINT('',(0.0015,-0.005,0.0085));
#1100=CARTESIAN_POINT('',(0.0015,-0.005,0.007));
#1101=CARTESIAN_POINT('',(0.0015,-0.005,0.0125));
#1102=CARTESIAN_POINT('',(0.0015,-0.006,0.0125));
#1103=CARTESIAN_POINT('',(0.0015,-0.004,0.0125));
#1104=CARTESIAN_POINT('',(0.0015,-0.004,0.0105));
#1105=CARTESIAN_POINT('',(0.0015,-0.002,0.0105));
#1106=CARTESIAN_POINT('',(0.0015,-0.002,-0.123613894013082));
#1107=CARTESIAN_POINT('',(0.0015,-0.006,0.0105));
#1108=CARTESIAN_POINT('',(-1.3010426069826E-18,-0.002,-0.123613894013082));
#1109=CARTESIAN_POINT('',(-0.0015,-0.002,0.0105));
#1110=CARTESIAN_POINT('',(-0.0015,-0.002,0.0105));
#1111=CARTESIAN_POINT('',(-0.0015,-0.002,-0.123613894013082));
#1112=CARTESIAN_POINT('',(-0.0015,-0.005,-0.123613894013082));
#1113=CARTESIAN_POINT('',(-0.0015,-0.005,0.0085));
#1114=CARTESIAN_POINT('',(-0.0015,-0.005,0.01));
#1115=CARTESIAN_POINT('',(-0.0015,-0.004,0.0105));
#1116=CARTESIAN_POINT('',(-0.0015,-0.004,0.0125));
#1117=CARTESIAN_POINT('',(-0.0015,-0.005,0.0125));
#1118=CARTESIAN_POINT('',(-0.0015,-0.006,0.0125));
#1119=CARTESIAN_POINT('',(-0.0015,-0.006,0.0105));
#1120=CARTESIAN_POINT('',(-1.7347234759768E-18,-0.005,0.0125));
#1121=CARTESIAN_POINT('',(0.0015,-0.004,0.0125));
#1122=CARTESIAN_POINT('',(-0.0015,-0.006,0.0125));
#1123=CARTESIAN_POINT('',(-1.3010426069826E-18,-0.004,0.0105));
#1124=CARTESIAN_POINT('',(-1.3010426069826E-18,-0.006,0.0105));
#1125=CARTESIAN_POINT('',(0.007502,-0.005,0.0085));
#1126=CARTESIAN_POINT('',(0.007502,-0.005,0.0085));
#1127=CARTESIAN_POINT('',(0.,-0.01,0.015));
#1128=MECHANICAL_DESIGN_GEOMETRIC_PRESENTATION_REPRESENTATION('',(#659),
#1129);
#1129=(
GEOMETRIC_REPRESENTATION_CONTEXT(3)
GLOBAL_UNCERTAINTY_ASSIGNED_CONTEXT((#1130))
GLOBAL_UNIT_ASSIGNED_CONTEXT((#1133,#1132,#1131))
REPRESENTATION_CONTEXT('Top_Segment','TOP_LEVEL_ASSEMBLY_PART')
);
#1130=UNCERTAINTY_MEASURE_WITH_UNIT(LENGTH_MEASURE(1.42343816255295E-5),
#1133,'DISTANCE_ACCURACY_VALUE','Maximum Tolerance applied to model');
#1131=(
NAMED_UNIT(*)
SI_UNIT($,.STERADIAN.)
SOLID_ANGLE_UNIT()
);
#1132=(
NAMED_UNIT(*)
PLANE_ANGLE_UNIT()
SI_UNIT($,.RADIAN.)
);
#1133=(
LENGTH_UNIT()
NAMED_UNIT(*)
SI_UNIT($,.METRE.)
);
#1134=PRODUCT_DEFINITION_SHAPE('','',#1135);
#1135=PRODUCT_DEFINITION('','',#1137,#1136);
#1136=PRODUCT_DEFINITION_CONTEXT('',#1143,'design');
#1137=PRODUCT_DEFINITION_FORMATION_WITH_SPECIFIED_SOURCE('','',#1139,
 .NOT_KNOWN.);
#1138=PRODUCT_RELATED_PRODUCT_CATEGORY('','',(#1139));
#1139=PRODUCT('Top_Segment','Top_Segment','Top_Segment',(#1141));
#1140=PRODUCT_CATEGORY('','');
#1141=PRODUCT_CONTEXT('',#1143,'mechanical');
#1142=APPLICATION_PROTOCOL_DEFINITION('international standard',
'ap242_managed_model_based_3d_engineering',2020,#1143);
#1143=APPLICATION_CONTEXT('managed model based 3d engineering');
ENDSEC;
END-ISO-10303-21;
