ISO-10303-21;
HEADER;
/* Generated by software containing ST-Developer
 * from STEP Tools, Inc. (www.steptools.com) 
 */
/* OPTION: using custom renumber hook */

FILE_DESCRIPTION(
/* description */ ('STEP AP242 Edition 2',
'CAx-IF Rec.Pracs.---Representation and Presentation of Product Manufa
cturing Information (PMI)---4.0---2014-10-13',
'CAx-IF Rec.Pracs.---3D Tessellated Geometry---0.4---2014-09-14','2;1',
'CAx-IF Rec.Pracs.---User Defined Attributes---1.5---2016-08-15'),
/* implementation_level */ '2;1');

FILE_NAME(
/* name */ 'Single Finger Mount - Spool',
/* time_stamp */ '2026-06-30T02:54:43Z',
/* author */ (''),
/* organization */ (''),
/* preprocessor_version */ 'ST-DEVELOPER v20',
/* originating_system */ 'ONSHAPE BY PTC INC, 1.217',
/* authorisation */ '  ');

FILE_SCHEMA (('AP242_MANAGED_MODEL_BASED_3D_ENGINEERING_MIM_LF { 1 0 10303 442 3 1 4 }'));
ENDSEC;

DATA;
#10=SHAPE_REPRESENTATION_RELATIONSHIP('','',#224,#11);
#11=ADVANCED_BREP_SHAPE_REPRESENTATION('',(#222),#387);
#12=PLANE('',#232);
#13=PLANE('',#238);
#14=PLANE('',#243);
#15=PLANE('',#246);
#16=PLANE('',#260);
#17=ORIENTED_EDGE('',*,*,#57,.F.);
#18=ORIENTED_EDGE('',*,*,#58,.T.);
#19=ORIENTED_EDGE('',*,*,#59,.F.);
#20=ORIENTED_EDGE('',*,*,#60,.T.);
#21=ORIENTED_EDGE('',*,*,#61,.F.);
#22=ORIENTED_EDGE('',*,*,#62,.F.);
#23=ORIENTED_EDGE('',*,*,#63,.F.);
#24=ORIENTED_EDGE('',*,*,#64,.F.);
#25=ORIENTED_EDGE('',*,*,#65,.F.);
#26=ORIENTED_EDGE('',*,*,#59,.T.);
#27=ORIENTED_EDGE('',*,*,#57,.T.);
#28=ORIENTED_EDGE('',*,*,#66,.T.);
#29=ORIENTED_EDGE('',*,*,#60,.F.);
#30=ORIENTED_EDGE('',*,*,#67,.T.);
#31=ORIENTED_EDGE('',*,*,#68,.F.);
#32=ORIENTED_EDGE('',*,*,#69,.F.);
#33=ORIENTED_EDGE('',*,*,#70,.F.);
#34=ORIENTED_EDGE('',*,*,#67,.F.);
#35=ORIENTED_EDGE('',*,*,#58,.F.);
#36=ORIENTED_EDGE('',*,*,#71,.T.);
#37=ORIENTED_EDGE('',*,*,#68,.T.);
#38=ORIENTED_EDGE('',*,*,#65,.T.);
#39=ORIENTED_EDGE('',*,*,#72,.T.);
#40=ORIENTED_EDGE('',*,*,#64,.T.);
#41=ORIENTED_EDGE('',*,*,#73,.T.);
#42=ORIENTED_EDGE('',*,*,#63,.T.);
#43=ORIENTED_EDGE('',*,*,#74,.T.);
#44=ORIENTED_EDGE('',*,*,#62,.T.);
#45=ORIENTED_EDGE('',*,*,#75,.T.);
#46=ORIENTED_EDGE('',*,*,#69,.T.);
#47=ORIENTED_EDGE('',*,*,#71,.F.);
#48=ORIENTED_EDGE('',*,*,#61,.T.);
#49=ORIENTED_EDGE('',*,*,#66,.F.);
#50=ORIENTED_EDGE('',*,*,#76,.F.);
#51=ORIENTED_EDGE('',*,*,#70,.T.);
#52=ORIENTED_EDGE('',*,*,#75,.F.);
#53=ORIENTED_EDGE('',*,*,#74,.F.);
#54=ORIENTED_EDGE('',*,*,#73,.F.);
#55=ORIENTED_EDGE('',*,*,#72,.F.);
#56=ORIENTED_EDGE('',*,*,#76,.T.);
#57=EDGE_CURVE('',#77,#77,#94,.T.);
#58=EDGE_CURVE('',#78,#78,#95,.T.);
#59=EDGE_CURVE('',#79,#79,#96,.T.);
#60=EDGE_CURVE('',#80,#80,#97,.T.);
#61=EDGE_CURVE('',#81,#81,#98,.T.);
#62=EDGE_CURVE('',#82,#82,#99,.T.);
#63=EDGE_CURVE('',#83,#83,#100,.T.);
#64=EDGE_CURVE('',#84,#84,#101,.T.);
#65=EDGE_CURVE('',#85,#85,#102,.T.);
#66=EDGE_CURVE('',#77,#77,#103,.T.);
#67=EDGE_CURVE('',#86,#86,#104,.T.);
#68=EDGE_CURVE('',#87,#87,#105,.T.);
#69=EDGE_CURVE('',#88,#88,#106,.T.);
#70=EDGE_CURVE('',#88,#88,#107,.T.);
#71=EDGE_CURVE('',#78,#78,#108,.T.);
#72=EDGE_CURVE('',#89,#89,#109,.T.);
#73=EDGE_CURVE('',#90,#90,#110,.T.);
#74=EDGE_CURVE('',#91,#91,#111,.T.);
#75=EDGE_CURVE('',#92,#92,#112,.T.);
#76=EDGE_CURVE('',#93,#93,#113,.T.);
#77=VERTEX_POINT('',#336);
#78=VERTEX_POINT('',#338);
#79=VERTEX_POINT('',#341);
#80=VERTEX_POINT('',#343);
#81=VERTEX_POINT('',#346);
#82=VERTEX_POINT('',#348);
#83=VERTEX_POINT('',#350);
#84=VERTEX_POINT('',#352);
#85=VERTEX_POINT('',#354);
#86=VERTEX_POINT('',#359);
#87=VERTEX_POINT('',#361);
#88=VERTEX_POINT('',#364);
#89=VERTEX_POINT('',#370);
#90=VERTEX_POINT('',#373);
#91=VERTEX_POINT('',#376);
#92=VERTEX_POINT('',#379);
#93=VERTEX_POINT('',#384);
#94=CIRCLE('',#227,0.008);
#95=CIRCLE('',#228,0.008);
#96=CIRCLE('',#230,0.0115);
#97=CIRCLE('',#231,0.0115);
#98=CIRCLE('',#233,0.00125);
#99=CIRCLE('',#234,0.00115);
#100=CIRCLE('',#235,0.00115);
#101=CIRCLE('',#236,0.00115);
#102=CIRCLE('',#237,0.00115);
#103=CIRCLE('',#239,0.00125);
#104=CIRCLE('',#241,0.0115);
#105=CIRCLE('',#242,0.0115);
#106=CIRCLE('',#244,0.00125);
#107=CIRCLE('',#245,0.008);
#108=CIRCLE('',#247,0.00125);
#109=CIRCLE('',#249,0.00115);
#110=CIRCLE('',#251,0.00115);
#111=CIRCLE('',#253,0.00115);
#112=CIRCLE('',#255,0.00115);
#113=CIRCLE('',#259,0.008);
#114=EDGE_LOOP('',(#17));
#115=EDGE_LOOP('',(#18));
#116=EDGE_LOOP('',(#19));
#117=EDGE_LOOP('',(#20));
#118=EDGE_LOOP('',(#21));
#119=EDGE_LOOP('',(#22));
#120=EDGE_LOOP('',(#23));
#121=EDGE_LOOP('',(#24));
#122=EDGE_LOOP('',(#25));
#123=EDGE_LOOP('',(#26));
#124=EDGE_LOOP('',(#27,#28));
#125=EDGE_LOOP('',(#29));
#126=EDGE_LOOP('',(#30));
#127=EDGE_LOOP('',(#31));
#128=EDGE_LOOP('',(#32,#33));
#129=EDGE_LOOP('',(#34));
#130=EDGE_LOOP('',(#35,#36));
#131=EDGE_LOOP('',(#37));
#132=EDGE_LOOP('',(#38));
#133=EDGE_LOOP('',(#39));
#134=EDGE_LOOP('',(#40));
#135=EDGE_LOOP('',(#41));
#136=EDGE_LOOP('',(#42));
#137=EDGE_LOOP('',(#43));
#138=EDGE_LOOP('',(#44));
#139=EDGE_LOOP('',(#45));
#140=EDGE_LOOP('',(#46));
#141=EDGE_LOOP('',(#47));
#142=EDGE_LOOP('',(#48));
#143=EDGE_LOOP('',(#49));
#144=EDGE_LOOP('',(#50));
#145=EDGE_LOOP('',(#51));
#146=EDGE_LOOP('',(#52));
#147=EDGE_LOOP('',(#53));
#148=EDGE_LOOP('',(#54));
#149=EDGE_LOOP('',(#55));
#150=EDGE_LOOP('',(#56));
#151=FACE_BOUND('',#114,.T.);
#152=FACE_BOUND('',#115,.T.);
#153=FACE_BOUND('',#116,.T.);
#154=FACE_BOUND('',#117,.T.);
#155=FACE_BOUND('',#118,.T.);
#156=FACE_BOUND('',#119,.T.);
#157=FACE_BOUND('',#120,.T.);
#158=FACE_BOUND('',#121,.T.);
#159=FACE_BOUND('',#122,.T.);
#160=FACE_BOUND('',#123,.T.);
#161=FACE_BOUND('',#124,.T.);
#162=FACE_BOUND('',#125,.T.);
#163=FACE_BOUND('',#126,.T.);
#164=FACE_BOUND('',#127,.T.);
#165=FACE_BOUND('',#128,.T.);
#166=FACE_BOUND('',#129,.T.);
#167=FACE_BOUND('',#130,.T.);
#168=FACE_BOUND('',#131,.T.);
#169=FACE_BOUND('',#132,.T.);
#170=FACE_BOUND('',#133,.T.);
#171=FACE_BOUND('',#134,.T.);
#172=FACE_BOUND('',#135,.T.);
#173=FACE_BOUND('',#136,.T.);
#174=FACE_BOUND('',#137,.T.);
#175=FACE_BOUND('',#138,.T.);
#176=FACE_BOUND('',#139,.T.);
#177=FACE_BOUND('',#140,.T.);
#178=FACE_BOUND('',#141,.T.);
#179=FACE_BOUND('',#142,.T.);
#180=FACE_BOUND('',#143,.T.);
#181=FACE_BOUND('',#144,.T.);
#182=FACE_BOUND('',#145,.T.);
#183=FACE_BOUND('',#146,.T.);
#184=FACE_BOUND('',#147,.T.);
#185=FACE_BOUND('',#148,.T.);
#186=FACE_BOUND('',#149,.T.);
#187=FACE_BOUND('',#150,.T.);
#188=CYLINDRICAL_SURFACE('',#226,0.008);
#189=CYLINDRICAL_SURFACE('',#229,0.0115);
#190=CYLINDRICAL_SURFACE('',#240,0.0115);
#191=CYLINDRICAL_SURFACE('',#248,0.00115);
#192=CYLINDRICAL_SURFACE('',#250,0.00115);
#193=CYLINDRICAL_SURFACE('',#252,0.00115);
#194=CYLINDRICAL_SURFACE('',#254,0.00115);
#195=CYLINDRICAL_SURFACE('',#256,0.00125);
#196=CYLINDRICAL_SURFACE('',#257,0.00125);
#197=CYLINDRICAL_SURFACE('',#258,0.008);
#198=ADVANCED_FACE('',(#151,#152),#188,.T.);
#199=ADVANCED_FACE('',(#153,#154),#189,.T.);
#200=ADVANCED_FACE('',(#155,#156,#157,#158,#159,#160),#12,.T.);
#201=ADVANCED_FACE('',(#161,#162),#13,.F.);
#202=ADVANCED_FACE('',(#163,#164),#190,.T.);
#203=ADVANCED_FACE('',(#165,#166),#14,.T.);
#204=ADVANCED_FACE('',(#167,#168),#15,.F.);
#205=ADVANCED_FACE('',(#169,#170),#191,.F.);
#206=ADVANCED_FACE('',(#171,#172),#192,.F.);
#207=ADVANCED_FACE('',(#173,#174),#193,.F.);
#208=ADVANCED_FACE('',(#175,#176),#194,.F.);
#209=ADVANCED_FACE('',(#177,#178),#195,.F.);
#210=ADVANCED_FACE('',(#179,#180),#196,.F.);
#211=ADVANCED_FACE('',(#181,#182),#197,.T.);
#212=ADVANCED_FACE('',(#183,#184,#185,#186,#187),#16,.T.);
#213=CLOSED_SHELL('',(#198,#199,#200,#201,#202,#203,#204,#205,#206,#207,
#208,#209,#210,#211,#212));
#214=STYLED_ITEM('',(#215),#222);
#215=PRESENTATION_STYLE_ASSIGNMENT((#216));
#216=SURFACE_STYLE_USAGE(.BOTH.,#217);
#217=SURFACE_SIDE_STYLE('',(#218));
#218=SURFACE_STYLE_FILL_AREA(#219);
#219=FILL_AREA_STYLE('',(#220));
#220=FILL_AREA_STYLE_COLOUR('',#221);
#221=COLOUR_RGB('',0.615686274509804,0.811764705882353,0.929411764705882);
#222=MANIFOLD_SOLID_BREP('Spool',#213);
#223=SHAPE_DEFINITION_REPRESENTATION(#392,#224);
#224=SHAPE_REPRESENTATION('Spool',(#225),#387);
#225=AXIS2_PLACEMENT_3D('',#333,#261,#262);
#226=AXIS2_PLACEMENT_3D('',#334,#263,#264);
#227=AXIS2_PLACEMENT_3D('',#335,#265,#266);
#228=AXIS2_PLACEMENT_3D('',#337,#267,#268);
#229=AXIS2_PLACEMENT_3D('',#339,#269,#270);
#230=AXIS2_PLACEMENT_3D('',#340,#271,#272);
#231=AXIS2_PLACEMENT_3D('',#342,#273,#274);
#232=AXIS2_PLACEMENT_3D('',#344,#275,#276);
#233=AXIS2_PLACEMENT_3D('',#345,#277,#278);
#234=AXIS2_PLACEMENT_3D('',#347,#279,#280);
#235=AXIS2_PLACEMENT_3D('',#349,#281,#282);
#236=AXIS2_PLACEMENT_3D('',#351,#283,#284);
#237=AXIS2_PLACEMENT_3D('',#353,#285,#286);
#238=AXIS2_PLACEMENT_3D('',#355,#287,#288);
#239=AXIS2_PLACEMENT_3D('',#356,#289,#290);
#240=AXIS2_PLACEMENT_3D('',#357,#291,#292);
#241=AXIS2_PLACEMENT_3D('',#358,#293,#294);
#242=AXIS2_PLACEMENT_3D('',#360,#295,#296);
#243=AXIS2_PLACEMENT_3D('',#362,#297,#298);
#244=AXIS2_PLACEMENT_3D('',#363,#299,#300);
#245=AXIS2_PLACEMENT_3D('',#365,#301,#302);
#246=AXIS2_PLACEMENT_3D('',#366,#303,#304);
#247=AXIS2_PLACEMENT_3D('',#367,#305,#306);
#248=AXIS2_PLACEMENT_3D('',#368,#307,#308);
#249=AXIS2_PLACEMENT_3D('',#369,#309,#310);
#250=AXIS2_PLACEMENT_3D('',#371,#311,#312);
#251=AXIS2_PLACEMENT_3D('',#372,#313,#314);
#252=AXIS2_PLACEMENT_3D('',#374,#315,#316);
#253=AXIS2_PLACEMENT_3D('',#375,#317,#318);
#254=AXIS2_PLACEMENT_3D('',#377,#319,#320);
#255=AXIS2_PLACEMENT_3D('',#378,#321,#322);
#256=AXIS2_PLACEMENT_3D('',#380,#323,#324);
#257=AXIS2_PLACEMENT_3D('',#381,#325,#326);
#258=AXIS2_PLACEMENT_3D('',#382,#327,#328);
#259=AXIS2_PLACEMENT_3D('',#383,#329,#330);
#260=AXIS2_PLACEMENT_3D('',#385,#331,#332);
#261=DIRECTION('',(0.,0.,1.));
#262=DIRECTION('',(1.,0.,0.));
#263=DIRECTION('',(0.,1.,0.));
#264=DIRECTION('',(0.,0.,1.));
#265=DIRECTION('',(0.,-1.,0.));
#266=DIRECTION('',(0.,0.,-1.));
#267=DIRECTION('',(0.,-1.,0.));
#268=DIRECTION('',(0.,0.,-1.));
#269=DIRECTION('',(0.,1.,0.));
#270=DIRECTION('',(0.,0.,1.));
#271=DIRECTION('',(0.,-1.,0.));
#272=DIRECTION('',(0.,0.,-1.));
#273=DIRECTION('',(0.,-1.,0.));
#274=DIRECTION('',(0.,0.,-1.));
#275=DIRECTION('',(0.,-1.,0.));
#276=DIRECTION('',(1.,0.,0.));
#277=DIRECTION('',(0.,-1.,0.));
#278=DIRECTION('',(0.,0.,-1.));
#279=DIRECTION('',(0.,-1.,0.));
#280=DIRECTION('',(0.,0.,-1.));
#281=DIRECTION('',(0.,-1.,0.));
#282=DIRECTION('',(0.,0.,-1.));
#283=DIRECTION('',(0.,-1.,0.));
#284=DIRECTION('',(0.,0.,-1.));
#285=DIRECTION('',(0.,-1.,0.));
#286=DIRECTION('',(0.,0.,-1.));
#287=DIRECTION('',(0.,-1.,0.));
#288=DIRECTION('',(1.,0.,0.));
#289=DIRECTION('',(0.,-1.,0.));
#290=DIRECTION('',(0.,0.,-1.));
#291=DIRECTION('',(0.,-1.,0.));
#292=DIRECTION('',(0.,0.,-1.));
#293=DIRECTION('',(0.,-1.,0.));
#294=DIRECTION('',(0.,0.,-1.));
#295=DIRECTION('',(0.,-1.,0.));
#296=DIRECTION('',(0.,0.,-1.));
#297=DIRECTION('',(0.,1.,0.));
#298=DIRECTION('',(1.,0.,0.));
#299=DIRECTION('',(0.,1.,0.));
#300=DIRECTION('',(0.,0.,1.));
#301=DIRECTION('',(0.,1.,0.));
#302=DIRECTION('',(0.,0.,1.));
#303=DIRECTION('',(0.,1.,0.));
#304=DIRECTION('',(1.,0.,0.));
#305=DIRECTION('',(0.,1.,0.));
#306=DIRECTION('',(0.,0.,1.));
#307=DIRECTION('',(0.,1.,0.));
#308=DIRECTION('',(0.,0.,1.));
#309=DIRECTION('',(0.,1.,0.));
#310=DIRECTION('',(0.,0.,1.));
#311=DIRECTION('',(0.,1.,0.));
#312=DIRECTION('',(0.,0.,1.));
#313=DIRECTION('',(0.,1.,0.));
#314=DIRECTION('',(0.,0.,1.));
#315=DIRECTION('',(0.,1.,0.));
#316=DIRECTION('',(0.,0.,1.));
#317=DIRECTION('',(0.,1.,0.));
#318=DIRECTION('',(0.,0.,1.));
#319=DIRECTION('',(0.,1.,0.));
#320=DIRECTION('',(0.,0.,1.));
#321=DIRECTION('',(0.,1.,0.));
#322=DIRECTION('',(0.,0.,1.));
#323=DIRECTION('',(0.,-1.,0.));
#324=DIRECTION('',(0.,0.,-1.));
#325=DIRECTION('',(0.,-1.,0.));
#326=DIRECTION('',(0.,0.,-1.));
#327=DIRECTION('',(0.,-1.,0.));
#328=DIRECTION('',(0.,0.,-1.));
#329=DIRECTION('',(0.,1.,0.));
#330=DIRECTION('',(0.,0.,1.));
#331=DIRECTION('',(0.,1.,0.));
#332=DIRECTION('',(-1.,0.,0.));
#333=CARTESIAN_POINT('',(0.,0.,0.));
#334=CARTESIAN_POINT('',(1.19262238973405E-18,-0.0025,-0.03));
#335=CARTESIAN_POINT('',(1.19262238973405E-18,-0.0025,-0.03));
#336=CARTESIAN_POINT('',(-0.008,-0.0025,-0.03));
#337=CARTESIAN_POINT('',(1.19262238973405E-18,0.0025,-0.03));
#338=CARTESIAN_POINT('',(-0.008,0.0025,-0.03));
#339=CARTESIAN_POINT('',(1.7347234759768E-18,-0.0035,-0.03));
#340=CARTESIAN_POINT('',(1.7347234759768E-18,-0.0035,-0.03));
#341=CARTESIAN_POINT('',(1.7347234759768E-18,-0.0035,-0.0415));
#342=CARTESIAN_POINT('',(1.7347234759768E-18,-0.0025,-0.03));
#343=CARTESIAN_POINT('',(1.7347234759768E-18,-0.0025,-0.0415));
#344=CARTESIAN_POINT('',(3.46944695195361E-18,-0.0035,-0.03));
#345=CARTESIAN_POINT('',(-0.00925,-0.0035,-0.03));
#346=CARTESIAN_POINT('',(-0.00925,-0.0035,-0.03125));
#347=CARTESIAN_POINT('',(1.7347234759768E-18,-0.0035,-0.024));
#348=CARTESIAN_POINT('',(1.7347234759768E-18,-0.0035,-0.02515));
#349=CARTESIAN_POINT('',(-0.006,-0.0035,-0.03));
#350=CARTESIAN_POINT('',(-0.006,-0.0035,-0.03115));
#351=CARTESIAN_POINT('',(1.7347234759768E-18,-0.0035,-0.036));
#352=CARTESIAN_POINT('',(1.7347234759768E-18,-0.0035,-0.03715));
#353=CARTESIAN_POINT('',(0.006,-0.0035,-0.03));
#354=CARTESIAN_POINT('',(0.006,-0.0035,-0.03115));
#355=CARTESIAN_POINT('',(3.46944695195361E-18,-0.0025,-0.03));
#356=CARTESIAN_POINT('',(-0.00925,-0.0025,-0.03));
#357=CARTESIAN_POINT('',(1.7347234759768E-18,0.0035,-0.03));
#358=CARTESIAN_POINT('',(1.7347234759768E-18,0.0035,-0.03));
#359=CARTESIAN_POINT('',(1.7347234759768E-18,0.0035,-0.0415));
#360=CARTESIAN_POINT('',(1.7347234759768E-18,0.0025,-0.03));
#361=CARTESIAN_POINT('',(1.7347234759768E-18,0.0025,-0.0415));
#362=CARTESIAN_POINT('',(3.46944695195361E-18,0.0035,-0.03));
#363=CARTESIAN_POINT('',(-0.00925,0.0035,-0.03));
#364=CARTESIAN_POINT('',(-0.008,0.0035,-0.03));
#365=CARTESIAN_POINT('',(1.7347234759768E-18,0.0035,-0.03));
#366=CARTESIAN_POINT('',(3.46944695195361E-18,0.0025,-0.03));
#367=CARTESIAN_POINT('',(-0.00925,0.0025,-0.03));
#368=CARTESIAN_POINT('',(0.006,-0.0215,-0.03));
#369=CARTESIAN_POINT('',(0.006,0.0045,-0.03));
#370=CARTESIAN_POINT('',(0.006,0.0045,-0.02885));
#371=CARTESIAN_POINT('',(1.7347234759768E-18,-0.0215,-0.036));
#372=CARTESIAN_POINT('',(1.7347234759768E-18,0.0045,-0.036));
#373=CARTESIAN_POINT('',(1.7347234759768E-18,0.0045,-0.03485));
#374=CARTESIAN_POINT('',(-0.006,-0.0215,-0.03));
#375=CARTESIAN_POINT('',(-0.006,0.0045,-0.03));
#376=CARTESIAN_POINT('',(-0.006,0.0045,-0.02885));
#377=CARTESIAN_POINT('',(1.7347234759768E-18,-0.0215,-0.024));
#378=CARTESIAN_POINT('',(1.7347234759768E-18,0.0045,-0.024));
#379=CARTESIAN_POINT('',(1.7347234759768E-18,0.0045,-0.02285));
#380=CARTESIAN_POINT('',(-0.00925,0.0297816095192283,-0.03));
#381=CARTESIAN_POINT('',(-0.00925,0.0297816095192283,-0.03));
#382=CARTESIAN_POINT('',(1.7347234759768E-18,0.0045,-0.03));
#383=CARTESIAN_POINT('',(1.7347234759768E-18,0.0045,-0.03));
#384=CARTESIAN_POINT('',(1.7347234759768E-18,0.0045,-0.022));
#385=CARTESIAN_POINT('',(3.46944695195361E-18,0.0045,-0.03));
#386=MECHANICAL_DESIGN_GEOMETRIC_PRESENTATION_REPRESENTATION('',(#214),
#387);
#387=(
GEOMETRIC_REPRESENTATION_CONTEXT(3)
GLOBAL_UNCERTAINTY_ASSIGNED_CONTEXT((#388))
GLOBAL_UNIT_ASSIGNED_CONTEXT((#391,#390,#389))
REPRESENTATION_CONTEXT('Spool','TOP_LEVEL_ASSEMBLY_PART')
);
#388=UNCERTAINTY_MEASURE_WITH_UNIT(LENGTH_MEASURE(1.E-8),#391,
'DISTANCE_ACCURACY_VALUE','Maximum Tolerance applied to model');
#389=(
NAMED_UNIT(*)
SI_UNIT($,.STERADIAN.)
SOLID_ANGLE_UNIT()
);
#390=(
NAMED_UNIT(*)
PLANE_ANGLE_UNIT()
SI_UNIT($,.RADIAN.)
);
#391=(
LENGTH_UNIT()
NAMED_UNIT(*)
SI_UNIT($,.METRE.)
);
#392=PRODUCT_DEFINITION_SHAPE('','',#393);
#393=PRODUCT_DEFINITION('','',#395,#394);
#394=PRODUCT_DEFINITION_CONTEXT('',#401,'design');
#395=PRODUCT_DEFINITION_FORMATION_WITH_SPECIFIED_SOURCE('','',#397,
 .NOT_KNOWN.);
#396=PRODUCT_RELATED_PRODUCT_CATEGORY('','',(#397));
#397=PRODUCT('Spool','Spool','Spool',(#399));
#398=PRODUCT_CATEGORY('','');
#399=PRODUCT_CONTEXT('',#401,'mechanical');
#400=APPLICATION_PROTOCOL_DEFINITION('international standard',
'ap242_managed_model_based_3d_engineering',2020,#401);
#401=APPLICATION_CONTEXT('managed model based 3d engineering');
ENDSEC;
END-ISO-10303-21;
